<svg width="56" height="57" viewBox="0 0 56 57" fill="none" xmlns="http://www.w3.org/2000/svg">
<g clip-path="url(#clip0_6002_73)">
<path d="M45.9015 54.3892L45.9015 54.3892C44.7671 54.6472 43.6381 53.9366 43.3802 52.8021C43.3802 52.8021 43.3802 52.8021 43.3802 52.8021L42.037 46.8944H46.3578L47.4887 51.868C47.4887 51.868 47.4887 51.868 47.4887 51.868C47.7465 53.0024 47.0359 54.1312 45.9015 54.3892Z" stroke="white" stroke-width="0.791785"/>
<path d="M40.1504 31.7483C39.9689 31.7482 39.7953 31.7482 39.5708 31.748H39.5705C38.6028 31.748 37.7232 32.1289 37.0726 32.7469L36.5794 31.6558L36.4838 31.4443L36.2526 31.4244L34.9327 31.3108L34.4293 31.2675L34.5076 31.7667L35.9283 40.8156L36.3194 40.7542L35.9283 40.8156C35.9894 41.2042 35.9359 41.5739 35.8183 41.8857L35.8183 41.8857L31.5969 53.078C31.1864 54.1664 29.9713 54.7163 28.8825 54.3057C27.7939 53.8952 27.2442 52.6799 27.6548 51.5913L31.6429 41.0174L31.6798 40.9196L31.6636 40.8163L30.1761 31.3411L30.1807 31.2685C30.1856 31.1936 30.1929 31.0842 30.2024 30.9452C30.2213 30.6671 30.2487 30.2715 30.2817 29.7975C30.3476 28.8494 30.436 27.5884 30.5246 26.3282C30.6132 25.0681 30.7019 23.809 30.7685 22.8649L30.849 21.7243L30.8715 21.4048L30.8775 21.3207L30.879 21.2991L30.8794 21.2936L30.8795 21.2922L30.8795 21.2919C30.8795 21.2918 30.8795 21.2918 30.4846 21.2639L30.8795 21.2918L30.9466 20.3431L30.2261 20.964L28.6602 22.3137L28.6133 22.3542L28.5809 22.4071L23.9531 29.9799C23.6877 30.4143 23.2571 30.6855 22.7895 30.7632L22.6186 30.7915L22.5235 30.9363C20.0198 34.7459 18.9728 36.338 17.9281 37.9315C16.5578 40.0215 15.1914 42.1141 10.5473 49.2161L10.4049 49.4339L10.5483 49.651C10.7591 49.9702 10.9131 50.3309 10.9938 50.7209C11.3404 52.3957 10.2657 54.0308 8.5914 54.3771L8.59133 54.3772C6.90029 54.7274 5.27525 53.6182 4.93523 51.9747L4.93522 51.9747C4.85377 51.5812 4.84983 51.1849 4.91833 50.8022L4.96435 50.5451L4.74603 50.4016L1.13943 48.0318C0.407574 47.5509 0.20318 46.5685 0.682391 45.8357L11.7204 28.956L11.3891 28.7393L11.7204 28.956C12.2009 28.2211 13.1878 28.0159 13.9215 28.498L14.1389 28.1671L13.9215 28.498L19.3911 32.0921L19.722 32.3095L19.9394 31.9786L21.0253 30.3259L21.1565 30.1263L21.041 29.9171C20.7567 29.4024 20.7492 28.7568 21.0761 28.2217L25.8741 20.3706C25.9653 20.2212 26.0793 20.0869 26.2119 19.9727L26.2119 19.9727L31.2544 15.6266L31.3749 15.5228L31.39 15.3645C31.5318 13.885 32.839 12.7926 34.3229 12.9202L39.8475 13.3951L39.8814 13.0007L39.8475 13.3951C41.3405 13.5234 42.4469 14.8379 42.3186 16.331L41.9255 20.904L39.7289 16.0159L38.9774 16.244L40.2969 24.0649L40.3322 24.2742L40.5261 24.3607L47.1147 27.2981C48.0725 27.7252 48.4236 28.9222 47.814 29.8036L40.1504 31.7483ZM40.1504 31.7483C40.1502 31.3196 40.1499 31.0895 40.1505 30.9519L36.9912 29.5434C36.0596 29.1281 35.3875 28.446 34.9579 27.7309C34.5325 27.0227 34.3285 26.2543 34.3673 25.6434L34.9083 17.1341L35.6938 17.0934L37.1509 25.7296C37.1509 25.7296 37.1509 25.7296 37.1509 25.7296C37.2451 26.2877 37.6122 26.7613 38.129 26.9918L45.7387 30.3843L45.7388 30.3843C46.4884 30.7186 47.3574 30.4636 47.814 29.8037L40.1504 31.7483ZM6.48941 51.6531L6.48944 51.6532C6.6536 52.4461 7.43533 52.9959 8.26974 52.8228C9.08497 52.6539 9.60791 51.8577 9.43926 51.0427C9.27573 50.2523 8.49638 49.7 7.65923 49.873L7.65912 49.873C6.84396 50.0417 6.32093 50.8381 6.48941 51.6531Z" stroke="white" stroke-width="0.791785"/>
<path d="M42.6577 6.58979C42.6577 8.91329 40.7741 10.7969 38.4506 10.7969C36.1271 10.7969 34.2435 8.91329 34.2435 6.58979C34.2435 4.26628 36.1271 2.38271 38.4506 2.38271C40.7741 2.38271 42.6577 4.26628 42.6577 6.58979Z" stroke="white" stroke-width="0.791785"/>
<path d="M50.8467 33.929V34.3249H51.2426H54.0028C54.572 34.3249 55.057 34.7882 55.057 35.3792V43.2642C55.057 43.8464 54.585 44.3184 54.0028 44.3184H39.5712C38.9889 44.3184 38.517 43.8465 38.517 43.2642V35.3791C38.517 34.7969 38.9888 34.3249 39.5712 34.3249H42.3313H42.7272V33.929V33.9241V33.9192V33.9143V33.9094V33.9045V33.8996V33.8947V33.8899V33.885V33.8801V33.8752V33.8703V33.8655V33.8606V33.8557V33.8508V33.846V33.8411V33.8362V33.8314V33.8265V33.8217V33.8168V33.8119V33.8071V33.8022V33.7974V33.7925V33.7877V33.7828V33.778V33.7731V33.7683V33.7635V33.7586V33.7538V33.749V33.7441V33.7393V33.7345V33.7296V33.7248V33.72V33.7151V33.7103V33.7055V33.7007V33.6959V33.691V33.6862V33.6814V33.6766V33.6718V33.667V33.6622V33.6574V33.6526V33.6477V33.6429V33.6381V33.6333V33.6285V33.6237V33.6189V33.6142V33.6094V33.6046V33.5998V33.595V33.5902V33.5854V33.5806V33.5758V33.5711V33.5663V33.5615V33.5567V33.5519V33.5472V33.5424V33.5376V33.5328V33.5281V33.5233V33.5185V33.5137V33.509V33.5042V33.4994V33.4947V33.4899V33.4852V33.4804V33.4756V33.4709V33.4661V33.4614V33.4566V33.4519V33.4471V33.4424V33.4376V33.4329V33.4281V33.4234V33.4186V33.4139V33.4091V33.4044V33.3996V33.3949V33.3901V33.3854V33.3807V33.3759V33.3712V33.3665V33.3617V33.357V33.3523V33.3475V33.3428V33.3381V33.3333V33.3286V33.3239V33.3191V33.3144V33.3097V33.305V33.3003V33.2955V33.2908V33.2861V33.2814V33.2766V33.2719V33.2672V33.2625V33.2578V33.2531V33.2483V33.2436V33.2389V33.2342V33.2295V33.2248V33.2201V33.2154V33.2107V33.2059V33.2012V33.1965V33.1918V33.1871V33.1824V33.1777V33.173V33.1683V33.1636V33.1589V33.1542V33.1495V33.1448V33.1401V33.1354V33.1307V33.126V33.1213V33.1166V33.1119V33.1072V33.1025V33.0978V33.0931V33.0884V33.0837V33.0791V33.0744V33.0697V33.065V33.0603V33.0556V33.0509V33.0462V33.0415V33.0368V33.0322V33.0275V33.0228V33.0181V33.0134V33.0087V33.004V32.9993V32.9947V32.99V32.9853V32.9806V32.9759V32.9712V32.9666V32.9619V32.9572V32.9525V32.9478V32.9431V32.9385V32.9338V32.9291V32.9244V32.9197V32.9151V32.9104V32.9057V32.901V32.8963V32.8917V32.887V32.8823V32.8776V32.8729V32.8683V32.8636V32.8589V32.8542V32.8495V32.8449V32.8402V32.8355V32.8308V32.8262V32.8215V32.8168V32.8121V32.8074V32.8028V32.7981V32.7934V32.7887V32.7841V32.7794V32.7747V32.77V32.7653V32.7607V32.756V32.7513V32.7466V32.742V32.7373V32.7326V32.7279V32.7232V32.7186V32.7139V32.7092V32.7045V32.6998V32.6952V32.6905V32.6858V32.6811V32.6764V32.6718V32.6671V32.6624V32.6577V32.653V32.6484V32.6437V32.639V32.6343V32.6296V32.625V32.6203V32.6156V32.6109V32.6062V32.6015V32.5969V32.5922V32.5875V32.5828V32.5781V32.5734V32.5687V32.5641V32.5594V32.5547V32.55V32.5453V32.5406V32.5359V32.5312V32.5266V32.5219V32.5172V32.5125V32.5078V32.5031V32.4984V32.4937V32.489V32.4843V32.4796V32.4749V32.4702V32.4656V32.4609V32.4562V32.4515V32.4468V32.4421V32.4374V32.4327V32.428V32.4233V32.4186V32.4139V32.4092V32.4045V32.3998V32.3951V32.3903V32.3856V32.3809V32.3762V32.3715V32.3668V32.3621V32.3574V32.3527V32.348V32.3433V32.3385V32.3338V32.3291V32.3244V32.3197V32.315V32.3103V32.3055V32.3008V32.2961V32.2914V32.2867V32.2819V32.2772V32.2725V32.2678V32.263V32.2583V32.2536V32.2489V32.2441V32.2394V32.2347V32.2299V32.2252V32.2205V32.2157V32.211V32.2063V32.2015V32.1968V32.1921V32.1873V32.1826V32.1778V32.1731V32.1684V32.1636V32.1589V32.1541V32.1494V32.1446V32.1399V32.1351V32.1304V32.1256V32.1209V32.1161V32.1114V32.1066V32.1018V32.1008L44.3145 32.8084V33.929V34.3249H44.7104H44.7142H44.718H44.7219H44.7258H44.7298H44.7338H44.738H44.7421H44.7464H44.7507H44.755H44.7594H44.7639H44.7684H44.773H44.7777H44.7824H44.7872H44.792H44.7968H44.8018H44.8068H44.8118H44.8169H44.8221H44.8273H44.8326H44.8379H44.8432H44.8487H44.8542H44.8597H44.8653H44.8709H44.8766H44.8824H44.8882H44.894H44.8999H44.9059H44.9119H44.918H44.9241H44.9302H44.9365H44.9427H44.949H44.9554H44.9618H44.9683H44.9748H44.9813H44.9879H44.9946H45.0013H45.008H45.0148H45.0217H45.0285H45.0355H45.0425H45.0495H45.0566H45.0637H45.0708H45.078H45.0853H45.0926H45.0999H45.1073H45.1147H45.1222H45.1297H45.1373H45.1449H45.1525H45.1602H45.1679H45.1757H45.1835H45.1913H45.1992H45.2072H45.2151H45.2231H45.2312H45.2393H45.2474H45.2556H45.2638H45.272H45.2803H45.2886H45.297H45.3053H45.3138H45.3222H45.3307H45.3393H45.3479H45.3565H45.3651H45.3738H45.3825H45.3913H45.4H45.4089H45.4177H45.4266H45.4355H45.4445H45.4534H45.4625H45.4715H45.4806H45.4897H45.4989H45.508H45.5172H45.5265H45.5357H45.545H45.5544H45.5637H45.5731H45.5825H45.592H45.6014H45.6109H45.6205H45.63H45.6396H45.6492H45.6589H45.6685H45.6782H45.6879H45.6977H45.7074H45.7172H45.7271H45.7369H45.7468H45.7567H45.7666H45.7765H45.7865H45.7965H45.8065H45.8165H45.8266H45.8367H45.8468H45.8569H45.867H45.8772H45.8874H45.8976H45.9078H45.9181H45.9284H45.9386H45.9489H45.9593H45.9696H45.98H45.9904H46.0008H46.0112H46.0216H46.0321H46.0425H46.053H46.0635H46.0741H46.0846H46.0951H46.1057H46.1163H46.1269H46.1375H46.1481H46.1588H46.1694H46.1801H46.1908H46.2015H46.2122H46.2229H46.2336H46.2444H46.2551H46.2659H46.2767H46.2875H46.2983H46.3091H46.3199H46.3308H46.3416H46.3524H46.3633H46.3742H46.3851H46.3959H46.4068H46.4177H46.4287H46.4396H46.4505H46.4614H46.4724H46.4833H46.4943H46.5052H46.5162H46.5272H46.5381H46.5491H46.5601H46.5711H46.5821H46.5931H46.6041H46.6151H46.6261H46.6371H46.6481H46.6591H46.6701H46.6811H46.6921H46.7031H46.7142H46.7252H46.7362H46.7472H46.7582H46.7693H46.7803H46.7913H46.8023H46.8133H46.8243H46.8353H46.8463H46.8574H46.8684H46.8794H46.8904H46.9013H46.9123H46.9233H46.9343H46.9453H46.9562H46.9672H46.9782H46.9891H47.0001H47.011H47.0219H47.0329H47.0438H47.0547H47.0656H47.0765H47.0874H47.0983H47.1092H47.12H47.1309H47.1417H47.1526H47.1634H47.1742H47.185H47.1958H47.2066H47.2174H47.2281H47.2389H47.2496H47.2604H47.2711H47.2818H47.2925H47.3031H47.3138H47.3244H47.3351H47.3457H47.3563H47.3669H47.3775H47.388H47.3986H47.4091H47.4196H47.4301H47.4406H47.451H47.4615H47.4719H47.4823H47.4927H47.5031H47.5135H47.5238H47.5341H47.5444H47.5547H47.5649H47.5752H47.5854H47.5956H47.6058H47.6159H47.6261H47.6362H47.6463H47.6563H47.6664H47.6764H47.6864H47.6964H47.7063H47.7163H47.7262H47.736H47.7459H47.7557H47.7655H47.7753H47.7851H47.7948H47.8045H47.8142H47.8238H47.8335H47.8431H47.8526H47.8622H47.8717H47.8812H47.8906H47.9001H47.9095H47.9188H47.9282H47.9375H47.9468H47.956H47.9652H47.9744H47.9836H47.9927H48.0018H48.0109H48.0199H48.0289H48.0379H48.0468H48.0557H48.0646H48.0734H48.0822H48.091H48.0997H48.1084H48.1171H48.1257H48.1343H48.1429H48.1514H48.1599H48.1683H48.1767H48.1851H48.1934H48.2017H48.21H48.2182H48.2264H48.2345H48.2426H48.2507H48.2587H48.2667H48.2747H48.2826H48.2904H48.2983H48.306H48.3138H48.3215H48.3292H48.3368H48.3443H48.3519H48.3594H48.3668H48.3742H48.3816H48.3889H48.3962H48.4034H48.4106H48.4177H48.4248H48.4319H48.4389H48.4458H48.4527H48.4596H48.4664H48.4732H48.4799H48.4866H48.4932H48.4998H48.5063H48.5128H48.5192H48.5256H48.532H48.5382H48.5445H48.5507H48.5568H48.5629H48.5689H48.5749H48.5808H48.5867H48.5925H48.5983H48.604H48.6097H48.6153H48.6209H48.6264H48.6318H48.6372H48.6426H48.6479H48.6531H48.6583H48.6634H48.6685H48.6735H48.6785H48.6834H48.6882H48.693H48.6978H48.7024H48.707H48.7116H48.7161H48.7206H48.7249H48.7293H48.7335H48.7377H48.7419H48.746H48.75H48.754H48.7579H48.7617H48.7655H48.7692H48.7729H48.7765H48.78H48.7835H48.7869H48.7902H48.7935H48.7967H48.7999H48.803H48.806H48.8089H48.8118H48.8147H48.8174H48.8201H48.8228H48.8253H48.8278H48.8303H48.8326H48.8349H48.8371H48.8393H48.8414H48.8434H48.8454H48.8473H48.8491H48.8508H48.8525H48.8541H48.8557H48.8571H48.8585H48.8599H48.8611H48.8623H48.8634H49.2593V33.929V32.3151C49.793 31.8805 50.2305 31.3212 50.522 30.6672C50.5659 30.5688 50.606 30.4694 50.6424 30.3691C50.7695 30.51 50.8467 30.6965 50.8467 30.9007V33.929Z" stroke="white" stroke-width="0.791785"/>
</g>
<defs>
<clipPath id="clip0_6002_73">
<rect width="55.4249" height="55.4249" fill="white" transform="translate(0.0273438 0.699707)"/>
</clipPath>
</defs>
</svg>
