<svg width="56" height="56" viewBox="0 0 56 56" fill="none" xmlns="http://www.w3.org/2000/svg">
<g clip-path="url(#clip0_6002_39)">
<path d="M29.3302 26.6332C28.7617 26.6337 28.2018 26.4942 27.7 26.2271C27.1981 25.9601 26.7697 25.5736 26.4525 25.1018C26.1354 24.63 25.9392 24.0874 25.8813 23.5219C25.8234 22.9563 25.9056 22.3853 26.1206 21.859C26.3356 21.3327 26.6768 20.8675 27.1142 20.5043C27.5515 20.1411 28.0715 19.8911 28.6283 19.7763C29.1851 19.6616 29.7616 19.6857 30.3069 19.8465C30.8522 20.0072 31.3495 20.2997 31.755 20.6981C32.0837 21.0203 32.3449 21.4048 32.5234 21.829C32.7018 22.2533 32.7939 22.7089 32.7943 23.1691" stroke="white" stroke-width="1.58357" stroke-miterlimit="10" stroke-linecap="round"/>
<path d="M29.3293 26.6328C30.0144 26.6328 30.6842 26.836 31.2538 27.2166C31.8235 27.5972 32.2675 28.1383 32.5297 28.7712C32.7919 29.4042 32.8605 30.1007 32.7268 30.7727C32.5931 31.4446 32.2632 32.0619 31.7788 32.5463C31.2943 33.0308 30.6771 33.3607 30.0051 33.4944C29.3331 33.628 28.6366 33.5594 28.0037 33.2972C27.3707 33.0351 26.8297 32.5911 26.449 32.0214C26.0684 31.4517 25.8652 30.782 25.8652 30.0969" stroke="white" stroke-width="1.58357" stroke-miterlimit="10" stroke-linecap="round"/>
<path d="M29.3301 18.5503V19.7058" stroke="white" stroke-width="1.58357" stroke-miterlimit="10" stroke-linecap="round"/>
<path d="M29.3301 34.7171V33.5615" stroke="white" stroke-width="1.58357" stroke-miterlimit="10" stroke-linecap="round"/>
<path d="M40.8769 1.22998H17.7832C14.5946 1.22998 12.0098 3.81483 12.0098 7.00341V48.5721C12.0098 51.7607 14.5946 54.3455 17.7832 54.3455H40.8769C44.0655 54.3455 46.6504 51.7607 46.6504 48.5721V7.00341C46.6504 3.81483 44.0655 1.22998 40.8769 1.22998Z" stroke="white" stroke-width="1.58357" stroke-miterlimit="10" stroke-linecap="round"/>
<path d="M29.3301 38.1797C35.7072 38.1797 40.8769 33.01 40.8769 26.6328C40.8769 20.2556 35.7072 15.0859 29.3301 15.0859C22.9529 15.0859 17.7832 20.2556 17.7832 26.6328C17.7832 33.01 22.9529 38.1797 29.3301 38.1797Z" stroke="white" stroke-width="1.58357" stroke-miterlimit="10" stroke-linecap="round"/>
<path d="M39.7214 1.22998C39.739 1.42203 39.739 1.61528 39.7214 1.80732C39.7316 2.34124 39.6347 2.87179 39.4364 3.36761C39.238 3.86343 38.9423 4.31446 38.5667 4.69404C38.1871 5.06966 37.7361 5.36538 37.2403 5.56371C36.7444 5.76203 36.2139 5.85895 35.68 5.84872H22.9784C21.9066 5.84872 20.8786 5.42294 20.1207 4.66503C19.3628 3.90712 18.937 2.87917 18.937 1.80732C18.9194 1.61528 18.9194 1.42203 18.937 1.22998" stroke="white" stroke-width="1.58357" stroke-miterlimit="10" stroke-linecap="round"/>
</g>
<defs>
<clipPath id="clip0_6002_39">
<rect width="55.4249" height="55.4249" fill="white" transform="translate(0.462891 0.0751953)"/>
</clipPath>
</defs>
</svg>
