<svg width="57" height="57" viewBox="0 0 57 57" fill="none" xmlns="http://www.w3.org/2000/svg">
<path d="M27.906 24.5063H25.6738L23.5017 19.5539V14.7179H23.5018L23.5015 14.7072C23.4999 14.6459 23.5105 14.585 23.5328 14.5279C23.5551 14.4708 23.5886 14.4188 23.6314 14.3749C23.6741 14.331 23.7252 14.2961 23.7817 14.2723C23.8382 14.2485 23.8988 14.2362 23.9601 14.2362H23.9602H27.4243C27.4876 14.2362 27.5502 14.2487 27.6086 14.2729C27.6671 14.2971 27.7202 14.3326 27.7649 14.3773C27.8096 14.422 27.8451 14.4751 27.8693 14.5336C27.8935 14.592 27.906 14.6546 27.906 14.7179V24.5063Z" stroke="white" stroke-width="0.791785"/>
<path d="M30.2818 12.0653C30.239 12.1092 30.2055 12.1613 30.1832 12.2183C30.1609 12.2754 30.1503 12.3364 30.1519 12.3976L30.1522 12.4083H30.1521V24.5061H34.5593L34.6488 12.4083C34.6488 12.4079 34.6488 12.4075 34.6488 12.4071C34.6484 12.2798 34.5977 12.1578 34.5077 12.0677C34.4174 11.9774 34.2948 11.9267 34.1671 11.9267H30.6107H30.6105C30.5492 11.9266 30.4886 11.9389 30.4321 11.9627C30.3757 11.9865 30.3245 12.0214 30.2818 12.0653ZM30.2818 12.0653L29.9981 11.7891L30.2818 12.0653ZM42.4556 41.5328H42.4577C43.4981 41.5328 44.4958 41.9461 45.2315 42.6817C45.9671 43.4174 46.3804 44.4151 46.3804 45.4554L46.3804 45.4575C46.3845 46.2397 46.1561 47.0055 45.7242 47.6575C45.2922 48.3096 44.6762 48.8186 43.9543 49.1198C43.2325 49.4211 42.4374 49.501 41.6701 49.3494C40.9027 49.1978 40.1977 48.8216 39.6447 48.2685C39.0916 47.7154 38.7154 47.0105 38.5638 46.2431C38.4122 45.4758 38.4921 44.6807 38.7933 43.9589C39.0946 43.237 39.6036 42.621 40.2556 42.189C40.9077 41.7571 41.6735 41.5287 42.4556 41.5328ZM18.8247 42.189C19.4768 41.7571 20.2425 41.5287 21.0247 41.5328C22.0639 41.5383 23.0589 41.9536 23.7938 42.6884C24.5286 43.4233 24.9439 44.4183 24.9494 45.4575C24.9536 46.2397 24.7251 47.0055 24.2932 47.6575C23.8612 48.3096 23.2452 48.8186 22.5234 49.1198C21.8015 49.4211 21.0064 49.501 20.2391 49.3494C19.4717 49.1978 18.7668 48.8216 18.2137 48.2685C17.6606 47.7154 17.2844 47.0105 17.1328 46.2431C16.9812 45.4758 17.0611 44.6807 17.3624 43.9588C17.6636 43.237 18.1726 42.621 18.8247 42.189Z" stroke="white" stroke-width="0.791785"/>
<path d="M24.3548 29.7026L24.105 29.701L23.9961 29.9258L21.4558 35.1681L21.1803 35.7366H21.8121H46.7764C47.1307 35.7366 47.4706 35.8774 47.7212 36.128C47.9717 36.3786 48.1125 36.7184 48.1125 37.0728C48.1125 37.4271 47.9717 37.767 47.7212 38.0176C47.4706 38.2681 47.1307 38.4089 46.7764 38.4089L21.8121 38.4089L21.8103 38.4089C21.2916 38.4112 20.781 38.281 20.3268 38.0307C19.8726 37.7803 19.4898 37.4181 19.2148 36.9783L19.2149 36.9783L19.2121 36.974C18.9311 36.5373 18.7683 36.0351 18.7397 35.5165C18.7111 34.998 18.8176 34.4809 19.0489 34.0159L19.0494 34.0149L21.7283 28.5879L21.8117 28.4188L21.7331 28.2475L13.5117 10.3268L13.4059 10.096H13.1519H8.16367C7.8093 10.096 7.46945 9.95523 7.21888 9.70465C6.9683 9.45408 6.82753 9.11423 6.82753 8.75986C6.82753 8.4055 6.9683 8.06564 7.21888 7.81507C7.46945 7.5645 7.8093 7.42372 8.16367 7.42372H14.2827C14.5382 7.42486 14.788 7.49925 15.0026 7.63807C15.2173 7.77702 15.3877 7.97468 15.4934 8.20759L15.494 8.20892L24.0156 26.7994L24.1214 27.0303H24.3755H39.4557H39.6874L39.8009 26.8282L47.2832 13.5032L47.2833 13.5032L47.2878 13.4947C47.3711 13.3376 47.4849 13.1986 47.6226 13.0861C47.7602 12.9735 47.919 12.8895 48.0895 12.8391C48.2601 12.7886 48.4389 12.7728 48.6157 12.7924C48.7924 12.8119 48.9635 12.8666 49.1188 12.9532C49.2742 13.0398 49.4107 13.1565 49.5203 13.2965C49.63 13.4365 49.7106 13.597 49.7574 13.7685C49.8043 13.9401 49.8164 14.1193 49.793 14.2956C49.7697 14.4719 49.7115 14.6417 49.6216 14.7952L49.6216 14.7952L49.6178 14.8019L42.1123 28.2193L42.1112 28.2213C41.8489 28.6966 41.4642 29.0932 40.9971 29.3699C40.5305 29.6463 39.9985 29.793 39.4562 29.7949C39.4556 29.7949 39.4551 29.7949 39.4545 29.7949L24.3548 29.7026ZM41.4153 7.95144V7.95158V18.7963L38.2747 24.5065H37.0803V7.95158H37.0805L37.0802 7.94043C37.0785 7.8812 37.0889 7.82225 37.1108 7.76719C37.1327 7.71213 37.1656 7.66213 37.2075 7.62023L36.9276 7.34029L37.2075 7.62022C37.2494 7.57832 37.2994 7.54542 37.3545 7.52352C37.4096 7.50161 37.4685 7.49118 37.5277 7.49285L37.5277 7.49301H37.5389H40.9337V7.49315L40.9444 7.49286C41.0056 7.4912 41.0666 7.50184 41.1237 7.52415C41.1807 7.54645 41.2328 7.57997 41.2767 7.62271C41.3206 7.66546 41.3555 7.71657 41.3793 7.77303C41.4031 7.8295 41.4154 7.89016 41.4153 7.95144Z" stroke="white" stroke-width="0.791785"/>
</svg>
