<svg width="56" height="57" viewBox="0 0 56 57" fill="none" xmlns="http://www.w3.org/2000/svg">
<g clip-path="url(#clip0_6002_90)">
<g clip-path="url(#clip1_6002_90)">
<path d="M54.5696 42.8227L46.7178 35.6174C44.4084 33.4928 40.8058 33.4928 38.4964 35.6174L35.2365 38.6445L31.9377 35.6174C29.6284 33.4928 26.0257 33.4928 23.7163 35.6174L20.3984 38.6267L17.1576 35.6174C14.8483 33.4928 11.2457 33.4928 8.93624 35.6174L0.992072 42.8227C0.437823 43.2846 0.0683594 44.0235 0.0683594 44.8549C0.0683594 45.6863 0.345484 46.4253 0.899733 46.9795C1.45398 47.5338 2.19302 47.8109 2.93195 47.8109C3.56554 47.8109 4.13116 47.6067 4.68703 47.2576V55.2009C4.68703 55.7552 5.0565 56.1246 5.61075 56.1246H11.1532H14.8482H20.3907H25.9332H29.6281H35.1706H40.7131H44.4083H49.9508C50.5051 56.1246 50.8745 55.7552 50.6898 55.2009V47.072C51.2441 47.5339 51.8907 47.811 52.6297 47.811C53.3688 47.811 54.1077 47.5339 54.6619 46.9796C55.2162 46.4254 55.4933 45.6864 55.4933 44.855C55.4933 44.1159 55.1238 43.3769 54.5696 42.8227ZM24.9172 36.9107C25.7486 36.1717 26.7648 35.8022 27.7808 35.8022C28.8893 35.8022 29.9055 36.1717 30.5521 36.9107L38.4039 44.1159C38.681 44.3007 38.7734 44.5779 38.7734 44.855C38.7734 45.1321 38.681 45.4092 38.4962 45.594C38.2793 45.7675 38.042 45.8585 37.8034 45.8691C37.5648 45.8586 37.3276 45.7677 37.1106 45.594L35.8173 44.4855C35.788 44.4635 35.7573 44.444 35.7258 44.4255L30.275 39.4972C28.797 38.1115 26.7647 38.1115 25.2867 39.4972L19.7917 44.3981C19.743 44.4233 19.696 44.4522 19.6519 44.4854L18.3586 45.5939C18.141 45.768 17.8826 45.8589 17.6314 45.869C17.3826 45.8589 17.1469 45.7679 16.973 45.5939C16.7882 45.4091 16.6958 45.132 16.6958 44.8549C16.7882 44.5778 16.8806 44.3006 17.0653 44.1158L18.0444 43.2173C18.0568 43.2089 18.0694 43.201 18.0815 43.192L21.0375 40.5131C21.0945 40.4561 21.1416 40.3987 21.1811 40.3389L24.9172 36.9107ZM2.19302 45.5939C2.00823 45.4091 1.91589 45.132 1.91589 44.8549C1.91589 44.5778 2.00823 44.393 2.28536 44.1158L10.1372 36.9106C10.9686 36.1716 11.9847 35.8021 13.0008 35.8021C14.1093 35.8021 15.1254 36.1716 15.772 36.8183L18.9127 39.6818L17.3423 41.1598L15.4948 39.4971C14.0168 38.1114 11.9845 38.1114 10.5065 39.4971L3.67098 45.5939C3.20907 45.9634 2.56248 45.9634 2.19302 45.5939ZM6.53457 45.6862L7.33043 44.9615L11.7999 40.9751C12.2066 40.6137 12.6354 40.4302 13.0646 40.4224C13.5047 40.4302 13.9326 40.6137 14.2941 40.9751L16.0491 42.5455L15.7721 42.8226L15.772 42.8227C15.3217 43.198 14.9934 43.7561 14.886 44.3983C14.8612 44.5465 14.8482 44.6991 14.8482 44.855C14.8482 45.0109 14.8579 45.1635 14.8774 45.3122C14.8904 45.4114 14.9077 45.5089 14.9294 45.6045C14.9402 45.6523 14.9521 45.6997 14.9651 45.7464C14.9911 45.8401 15.0214 45.9318 15.056 46.0212C15.0907 46.1107 15.1297 46.198 15.173 46.2829C15.2163 46.3679 15.2639 46.4505 15.3158 46.5306C15.4198 46.6908 15.541 46.841 15.6796 46.9795C15.74 47.0399 15.8029 47.0964 15.8675 47.1502C15.8725 47.1544 15.8774 47.1588 15.8823 47.1629C15.9458 47.2151 16.0113 47.2636 16.078 47.3094C16.0841 47.3135 16.0901 47.3178 16.0961 47.3218C16.1634 47.3671 16.2321 47.4091 16.3022 47.448C16.3084 47.4515 16.3147 47.455 16.3209 47.4583C16.3908 47.4964 16.4619 47.5316 16.5343 47.5636C16.5426 47.5672 16.5509 47.5706 16.5591 47.5742C16.6288 47.6041 16.6994 47.6318 16.7711 47.6561C16.7868 47.6615 16.8027 47.6661 16.8184 47.6712C16.8714 47.6882 16.9249 47.7036 16.9787 47.7175C17.0273 47.7303 17.0762 47.7411 17.1254 47.7514C17.1435 47.755 17.1616 47.7588 17.1798 47.7621C17.9648 47.9113 18.8007 47.7477 19.4506 47.2676C19.456 47.2642 19.4615 47.2609 19.467 47.2575V54.2771H15.772V49.6583C15.772 49.1041 15.4026 48.7346 14.8483 48.7346H11.1533C10.5991 48.7346 10.2296 49.1041 10.2296 49.6583V54.2771H6.53457V45.6862ZM12.0771 54.2771V50.5822H13.9246V54.2771H12.0771ZM21.3146 45.6862L22.1105 44.9615L26.58 40.9751C26.9867 40.6137 27.4155 40.4302 27.8447 40.4224C28.2847 40.4302 28.7127 40.6137 29.0741 40.9751L34.2471 45.6862V54.2771H30.5521V49.6583C30.5521 49.1041 30.1826 48.7346 29.6284 48.7346H25.9334C25.3792 48.7346 25.0097 49.1041 25.0097 49.6583V54.2771H21.3147V45.6862H21.3146ZM26.8571 54.2771V50.5822H28.7047V54.2771H26.8571ZM41.6371 54.2771V50.5822H43.4846V54.2771H41.6371ZM49.0271 54.2771H45.3321V49.6583C45.3321 49.1041 44.9627 48.7346 44.4084 48.7346H40.7135C40.1592 48.7346 39.7897 49.1041 39.7897 49.6583V54.2771H36.0946V47.2265C37.2058 48.0841 38.8331 48.0283 39.882 46.9794C40.4362 46.4252 40.7134 45.5938 40.7134 44.8548C40.7134 44.8416 40.7124 44.8284 40.7122 44.8151C40.7125 44.7976 40.7134 44.7799 40.7134 44.7624C40.7134 44.0234 40.3439 43.2845 39.7896 42.7302L39.5212 42.5513L41.3601 40.9751C41.7611 40.6185 42.1837 40.4358 42.6071 40.4233C43.0305 40.4358 43.4531 40.6185 43.8542 40.9751L49.0272 45.6862V54.2771H49.0271ZM53.2763 45.6862C52.8144 46.0557 52.2601 46.0557 51.7983 45.6862L45.055 39.5895C44.5217 39.1228 43.9399 38.8014 43.3103 38.6582C42.1696 38.3639 40.9511 38.6739 39.9745 39.5894L39.9744 39.5895L38.1073 41.2788L36.5164 39.8189L39.6049 37.0029C41.1753 35.525 43.7617 35.525 45.3321 37.0029L53.184 44.2082C53.4611 44.393 53.5534 44.6701 53.5534 44.9472C53.5534 45.2243 53.4611 45.5016 53.2763 45.6862Z" fill="white"/>
<path d="M21.8703 22.8697C23.6254 25.6409 25.3806 28.597 26.9509 31.6453C27.1357 31.9225 27.4128 32.1072 27.7823 32.1072C28.1517 32.1072 28.4288 31.9225 28.6136 31.553C30.184 28.5046 31.9391 25.5486 33.6942 22.7773C34.6179 21.2994 35.5417 19.9138 36.5578 18.5281C38.1282 16.3111 38.8671 14.0941 38.8671 11.7848C38.8672 5.68795 33.879 0.699707 27.7823 0.699707C21.6855 0.699707 16.6973 5.68795 16.6973 11.7847C16.6973 14.094 17.4363 16.311 19.0066 18.6205C19.9304 20.0061 20.9465 21.3917 21.8703 22.8697ZM27.7823 2.54724C32.8628 2.54724 37.0197 6.70411 36.835 11.7847C36.835 13.7246 36.1884 15.6644 34.8952 17.512C33.9714 18.8976 33.0476 20.3756 32.0316 21.8536C30.5536 24.163 29.0755 26.6571 27.6899 29.2437C26.3043 26.6572 24.8263 24.1631 23.3483 21.8536C22.4245 20.3757 21.5007 18.8976 20.4847 17.512C19.1914 15.5721 18.5448 13.7246 18.5448 11.7847C18.5448 6.70411 22.7017 2.54724 27.7823 2.54724Z" fill="white"/>
<path d="M26.0547 17.7977C26.1264 17.9401 26.2392 18.0655 26.395 18.159C26.4873 18.2513 26.6721 18.2513 26.8569 18.2513C26.8848 18.2513 26.9126 18.2486 26.9405 18.2447C27.0764 18.2285 27.2249 18.1741 27.3612 18.0913C27.3779 18.0831 27.3944 18.0749 27.4111 18.0665C27.4314 18.0514 27.4505 18.0346 27.469 18.0173C27.554 17.9517 27.6306 17.8758 27.6882 17.7894L33.2307 8.55194C33.4155 8.09003 33.3231 7.53578 32.8613 7.25865C32.3994 7.07387 31.8451 7.16632 31.6604 7.62812L26.8057 15.7195L24.8248 13.0783C24.5476 12.7088 23.901 12.6164 23.5315 12.8935C23.1619 13.1706 23.0696 13.8172 23.3467 14.1868L26.0547 17.7977Z" fill="white"/>
</g>
</g>
<defs>
<clipPath id="clip0_6002_90">
<rect width="55.4249" height="55.4249" fill="white" transform="translate(0.0683594 0.699707)"/>
</clipPath>
<clipPath id="clip1_6002_90">
<rect width="55.4249" height="55.4249" fill="white" transform="translate(0.0683594 0.699707)"/>
</clipPath>
</defs>
</svg>
