<svg width="56" height="57" viewBox="0 0 56 57" fill="none" xmlns="http://www.w3.org/2000/svg">
<path d="M54.6958 45.8142L54.6958 45.8142C55.2896 46.4079 55.2896 47.3661 54.6959 47.9598L50.0796 52.576L50.0767 52.579C49.9428 52.7144 49.7763 52.8256 49.5834 52.9056L49.5812 52.9065C49.3957 52.9841 49.1992 53.0231 49.0045 53.0231H10.7023H10.3743L10.1424 53.255L8.50969 54.8877C8.21347 55.1839 7.82607 55.3325 7.43685 55.3325C7.04754 55.3325 6.66024 55.1839 6.36401 54.8877C5.77031 54.294 5.77032 53.3358 6.36401 52.7421L8.67087 50.4353C8.67091 50.4352 8.67096 50.4352 8.67101 50.4351C8.80845 50.2978 8.97668 50.1848 9.16581 50.1062C9.35761 50.0277 9.55564 49.9881 9.74612 49.9881H48.0484H48.3763L48.6082 49.7562L52.5502 45.8142C53.1439 45.2205 54.1021 45.2205 54.6958 45.8142Z" stroke="white" stroke-width="1.58357"/>
<path d="M44.9638 39.0499L44.9638 39.0499L44.9616 39.0509C44.7762 39.1284 44.5797 39.1674 44.385 39.1674H39.7663C38.9266 39.1674 38.2488 38.4897 38.2488 37.6499C38.2488 36.8102 38.9266 36.1324 39.7663 36.1324H43.4289H43.7569L43.9888 35.9005L45.6215 34.2678C46.2152 33.6741 47.1734 33.6741 47.7671 34.2678C48.3608 34.8615 48.3608 35.8197 47.7671 36.4134L45.4601 38.7204L45.4601 38.7204L45.4571 38.7234C45.3232 38.8587 45.1567 38.97 44.9638 39.0499Z" stroke="white" stroke-width="1.58357"/>
<path d="M8.39174 39.1676H8.06377L7.83186 39.3995L6.19914 41.0322C5.90292 41.3284 5.51552 41.477 5.1263 41.477C4.73699 41.477 4.34969 41.3284 4.05346 41.0322C3.45977 40.4385 3.45977 39.4803 4.05346 38.8866L6.36046 36.5796L6.36047 36.5796L6.36343 36.5766C6.49734 36.4413 6.66382 36.3301 6.85672 36.2501L6.8589 36.2492C7.04437 36.1716 7.24087 36.1326 7.43558 36.1326H16.6729C17.5126 36.1326 18.1904 36.8104 18.1904 37.6501C18.1904 38.4898 17.5126 39.1676 16.6729 39.1676H8.39174Z" stroke="white" stroke-width="1.58357"/>
<path d="M33.5945 44.5783C33.5945 43.7386 34.2723 43.0608 35.112 43.0608H37.4213C38.261 43.0608 38.9388 43.7386 38.9388 44.5783C38.9388 45.418 38.261 46.0958 37.4213 46.0958H35.112C34.2723 46.0958 33.5945 45.418 33.5945 44.5783Z" stroke="white" stroke-width="1.58357"/>
<path d="M45.7386 43.0607H46.0665L46.2985 42.8288L48.8619 40.2654C49.456 39.6713 50.4159 39.6723 51.0068 40.2647L51.0082 40.2661C51.6005 40.8569 51.6016 41.8169 51.0075 42.4109L47.7675 45.6509L47.766 45.6524C47.4838 45.9361 47.0998 46.0957 46.6946 46.0957H44.3483C43.5104 46.0957 42.8308 45.4174 42.8308 44.5782C42.8308 43.739 43.5104 43.0607 44.3483 43.0607H45.7386Z" stroke="white" stroke-width="1.58357"/>
<path d="M10.1413 43.0608H16.672C17.5118 43.0608 18.1896 43.7386 18.1896 44.5783C18.1896 45.418 17.5118 46.0958 16.6721 46.0958H10.1413C9.30158 46.0958 8.62382 45.418 8.62382 44.5783C8.62382 43.7386 9.30158 43.0608 10.1413 43.0608Z" stroke="white" stroke-width="1.58357"/>
<path d="M5.52313 46.4909C4.92943 45.8973 3.97127 45.8973 3.37758 46.491L2.84077 45.9542L3.37758 46.491L1.74487 48.1237C1.15117 48.7174 1.15117 49.6756 1.74487 50.2693C2.0411 50.5655 2.4284 50.714 2.81771 50.714C3.20693 50.714 3.59433 50.5655 3.89055 50.2693L5.52323 48.6366C5.52325 48.6366 5.52326 48.6365 5.52327 48.6365C6.11683 48.0429 6.11688 47.0848 5.52316 46.491C5.52315 46.4909 5.52314 46.4909 5.52313 46.4909ZM5.52313 46.4909L6.08304 45.9311L5.52313 46.4909Z" stroke="white" stroke-width="1.58357"/>
<path d="M28.2194 19.1757C29.4942 19.1757 30.5287 18.1411 30.5287 16.8664C30.5287 15.5917 29.4942 14.5571 28.2194 14.5571C26.9447 14.5571 25.9102 15.5917 25.9102 16.8664C25.9102 18.1411 26.9447 19.1757 28.2194 19.1757Z" fill="white"/>
<path d="M26.9078 43.0304L26.9082 43.0311C27.1793 43.4991 27.6797 43.7862 28.2206 43.7862C28.7617 43.7862 29.2619 43.4991 29.533 43.0311L29.5334 43.0304L34.0412 35.2665L34.0413 35.2663C35.8519 32.15 38.0273 29.3177 40.4257 26.1982C42.4993 23.4962 43.5939 20.2711 43.5939 16.8662C43.5939 12.4918 41.7205 8.30961 38.4545 5.39297C35.1917 2.47927 30.801 1.08222 26.4239 1.59613L26.421 1.59646C19.5933 2.37314 13.9447 7.88157 12.9991 14.6773L26.9078 43.0304ZM26.9078 43.0304L22.3933 35.2554M26.9078 43.0304L22.3933 35.2554M22.3933 35.2554L22.3931 35.255C20.8117 32.5276 19.014 29.6139 16.7563 27.0885C13.7444 23.7187 12.3727 19.1971 12.9991 14.6777L22.3933 35.2554ZM35.9403 16.8663C35.9403 12.6095 32.4775 9.14659 28.2206 9.14659C23.9638 9.14659 20.5009 12.6095 20.5009 16.8663C20.5009 21.1232 23.9638 24.586 28.2206 24.586C32.4775 24.586 35.9403 21.1232 35.9403 16.8663Z" stroke="white" stroke-width="1.58357"/>
</svg>
