<svg width="43" height="43" viewBox="0 0 43 43" fill="none" xmlns="http://www.w3.org/2000/svg">
<mask id="path-1-inside-1_6002_51" fill="white">
<path fill-rule="evenodd" clip-rule="evenodd" d="M32.341 8.95322L32.2371 8.87239C32.0373 7.35513 31.311 5.77437 30.1771 4.44186C28.3354 2.27682 25.3332 0.62793 21.3149 0.62793C17.3543 0.62793 14.5634 2.43386 12.9168 4.6728C12.1483 5.70826 11.5994 6.88979 11.3037 8.14494C11.2501 8.37999 11.2069 8.61732 11.1744 8.85623L11.0497 8.95206C9.75185 9.9578 8.79923 11.1771 9.02555 12.5755C9.24263 13.9265 10.4643 14.7486 11.6005 15.2509C11.8899 15.3787 12.2006 15.4987 12.5323 15.6111C12.3654 16.9128 12.4777 18.2351 12.8618 19.4899C13.2459 20.7448 13.8929 21.9034 14.7598 22.8886C15.6267 23.8738 16.6936 24.663 17.8894 25.2036C19.0852 25.7442 20.3825 26.0238 21.6948 26.0238C23.0071 26.0238 24.3043 25.7442 25.5001 25.2036C26.6959 24.663 27.7628 23.8738 28.6297 22.8886C29.4966 21.9034 30.1437 20.7448 30.5278 19.4899C30.9118 18.2351 31.0242 16.9128 30.8572 15.6111C31.189 15.4995 31.4996 15.3794 31.789 15.2509C32.9252 14.7486 34.1458 13.9265 34.364 12.5755C34.5903 11.1771 33.6377 9.9578 32.3398 8.95206M13.5485 10.6402C13.3983 10.2084 13.3591 9.5144 13.5542 8.65646C13.7459 7.81932 14.1431 6.90134 14.7667 6.05149V9.28808C14.7667 9.59432 14.8883 9.88802 15.1048 10.1046C15.3214 10.3211 15.6151 10.4428 15.9213 10.4428C16.2276 10.4428 16.5213 10.3211 16.7378 10.1046C16.9544 9.88802 17.076 9.59432 17.076 9.28808V3.98807C18.0263 3.44767 19.1752 3.07009 20.5401 2.96617V6.9787C20.5401 7.28495 20.6617 7.57865 20.8783 7.79519C21.0948 8.01174 21.3885 8.13339 21.6948 8.13339C22.001 8.13339 22.2947 8.01174 22.5113 7.79519C22.7278 7.57865 22.8495 7.28495 22.8495 6.9787V3.03776C24.0688 3.19133 25.2459 3.5837 26.3135 4.19245V9.28808C26.3135 9.59432 26.4352 9.88802 26.6517 10.1046C26.8683 10.3211 27.162 10.4428 27.4682 10.4428C27.7744 10.4428 28.0681 10.3211 28.2847 10.1046C28.5012 9.88802 28.6229 9.59432 28.6229 9.28808V6.19121C29.8988 7.82624 30.1979 9.5906 29.8388 10.6495C29.7498 10.9115 29.7579 11.1968 29.8617 11.4534C29.9654 11.71 30.1578 11.9208 30.4039 12.0474C30.65 12.174 30.9334 12.208 31.2024 12.1432C31.4715 12.0784 31.7084 11.9192 31.8699 11.6944C32.0973 12.012 32.0893 12.1806 32.0846 12.2071C32.0696 12.2995 31.893 12.6805 30.8549 13.1401C30.4046 13.3387 29.8688 13.5177 29.2672 13.6759L29.2395 13.6828C28.5871 13.8514 27.8608 13.9946 27.0837 14.1124C25.6424 14.32 24.1898 14.4396 22.734 14.4703C21.7332 14.4957 20.7318 14.4849 19.7318 14.438C18.5816 14.3858 17.4347 14.2764 16.2955 14.11C15.5733 14.0054 14.8572 13.8628 14.15 13.6828L14.1223 13.6759C13.5795 13.5403 13.0486 13.3611 12.5346 13.1401C11.4966 12.6805 11.3199 12.2995 11.3049 12.2071C11.3003 12.1806 11.2922 12.012 11.5197 11.6944C11.6814 11.9202 11.9192 12.0801 12.1893 12.1448C12.4594 12.2095 12.7437 12.1747 12.9902 12.0467C13.2367 11.9188 13.4289 11.7063 13.5314 11.4481C13.6339 11.19 13.64 10.9036 13.5485 10.6414M14.7921 16.1943C15.1762 16.2689 15.5719 16.3371 15.9791 16.3986C17.2123 16.5834 18.5402 16.7012 19.8911 16.7566C21.0954 16.8062 22.3011 16.8062 23.5053 16.7566C24.8494 16.7012 26.1726 16.5834 27.4001 16.3986C27.8111 16.3386 28.2103 16.2705 28.5975 16.1943C28.6796 17.1505 28.5621 18.1134 28.2525 19.0219C27.9429 19.9303 27.4479 20.7646 26.799 21.4717C26.15 22.1788 25.3611 22.7433 24.4825 23.1295C23.6039 23.5157 22.6545 23.7151 21.6948 23.7151C20.735 23.7151 19.7857 23.5157 18.907 23.1295C18.0284 22.7433 17.2396 22.1788 16.5906 21.4717C15.9416 20.7646 15.4466 19.9303 15.137 19.0219C14.8274 18.1134 14.7099 17.1505 14.7921 16.1943Z"/>
</mask>
<path d="M32.2371 8.87239L31.452 8.97574L31.4945 9.2979L31.7509 9.49739L32.2371 8.87239ZM30.1771 4.44186L29.574 4.95489L29.5741 4.95499L30.1771 4.44186ZM12.9168 4.6728L13.5526 5.14469L13.5547 5.1419L12.9168 4.6728ZM11.3037 8.14494L10.533 7.96339L10.5318 7.9686L11.3037 8.14494ZM11.1744 8.85623L11.6569 9.48403L11.9151 9.28558L11.959 8.96288L11.1744 8.85623ZM11.0497 8.95206L10.5672 8.32425L10.5647 8.3262L11.0497 8.95206ZM9.02555 12.5755L9.80731 12.4499L9.80716 12.449L9.02555 12.5755ZM11.6005 15.2509L11.2804 15.9751L11.2807 15.9752L11.6005 15.2509ZM12.5323 15.6111L13.3177 15.7119L13.4001 15.0691L12.7864 14.8612L12.5323 15.6111ZM30.8572 15.6111L30.6047 14.8607L29.9892 15.0678L30.0719 15.7119L30.8572 15.6111ZM31.789 15.2509L31.4689 14.5267L31.4676 14.5273L31.789 15.2509ZM34.364 12.5755L33.5824 12.449L33.5823 12.4492L34.364 12.5755ZM13.5542 8.65646L12.7824 8.47975L12.7822 8.48085L13.5542 8.65646ZM14.7667 6.05149H15.5584V3.63383L14.1283 5.58311L14.7667 6.05149ZM17.076 3.98807L16.6846 3.29978L16.2842 3.52747V3.98807H17.076ZM20.5401 2.96617H21.3319V2.1118L20.48 2.17667L20.5401 2.96617ZM22.8495 3.03776L22.9484 2.25218L22.0577 2.14V3.03776H22.8495ZM26.3135 4.19245H27.1053V3.73246L26.7057 3.50462L26.3135 4.19245ZM28.6229 6.19121L29.2471 5.70409L27.8311 3.88956V6.19121H28.6229ZM29.8388 10.6495L30.5885 10.904L30.5886 10.9038L29.8388 10.6495ZM31.8699 11.6944L32.5135 11.2333L31.8709 10.3362L31.2269 11.2324L31.8699 11.6944ZM32.0846 12.2071L31.3045 12.0715L31.3031 12.0801L32.0846 12.2071ZM30.8549 13.1401L31.1744 13.8646L31.1754 13.8641L30.8549 13.1401ZM29.2672 13.6759L29.4593 14.4441L29.4686 14.4416L29.2672 13.6759ZM29.2395 13.6828L29.0474 12.9147L29.0414 12.9162L29.2395 13.6828ZM27.0837 14.1124L27.1966 14.8961L27.2023 14.8952L27.0837 14.1124ZM22.734 14.4703L22.7173 13.6787L22.7139 13.6788L22.734 14.4703ZM19.7318 14.438L19.7689 13.6471L19.7677 13.647L19.7318 14.438ZM16.2955 14.11L16.4099 13.3266L16.409 13.3264L16.2955 14.11ZM14.15 13.6828L14.3453 12.9155L14.3421 12.9147L14.15 13.6828ZM14.1223 13.6759L14.3144 12.9077L14.3142 12.9077L14.1223 13.6759ZM12.5346 13.1401L12.2141 13.8642L12.2218 13.8675L12.5346 13.1401ZM11.3049 12.2071L12.0865 12.0801L12.085 12.0715L11.3049 12.2071ZM11.5197 11.6944L12.1633 11.2333L11.5196 10.3349L10.876 11.2333L11.5197 11.6944ZM14.7921 16.1943L14.9431 15.417L14.0785 15.249L14.0032 16.1265L14.7921 16.1943ZM15.9791 16.3986L15.8607 17.1815L15.8618 17.1817L15.9791 16.3986ZM19.8911 16.7566L19.9238 15.9655L19.9236 15.9655L19.8911 16.7566ZM23.5053 16.7566L23.5379 17.5477L23.5379 17.5477L23.5053 16.7566ZM27.4001 16.3986L27.2856 15.6152L27.2822 15.6157L27.4001 16.3986ZM28.5975 16.1943L29.3864 16.1265L29.3108 15.2469L28.4446 15.4174L28.5975 16.1943ZM32.8271 8.32822L32.7232 8.24739L31.7509 9.49739L31.8549 9.57822L32.8271 8.32822ZM33.0221 8.76904C32.8001 7.08346 32.0011 5.36362 30.7801 3.92873L29.5741 4.95499C30.6209 6.18512 31.2744 7.6268 31.452 8.97574L33.0221 8.76904ZM30.7802 3.92883C28.7869 1.58565 25.5637 -0.163855 21.3149 -0.163855V1.41971C25.1027 1.41971 27.8838 2.96799 29.574 4.95489L30.7802 3.92883ZM21.3149 -0.163855C17.0867 -0.163855 14.0652 1.77488 12.279 4.20369L13.5547 5.1419C15.0616 3.09284 17.6219 1.41971 21.3149 1.41971V-0.163855ZM12.281 4.2009C11.4483 5.32296 10.8534 6.60329 10.5331 7.9634L12.0744 8.32648C12.3454 7.17629 12.8484 6.09356 13.5526 5.14469L12.281 4.2009ZM10.5318 7.9686C10.4729 8.22667 10.4255 8.48726 10.3899 8.74957L11.959 8.96288C11.9883 8.74738 12.0272 8.5333 12.0756 8.32127L10.5318 7.9686ZM10.6919 8.22842L10.5672 8.32426L11.5322 9.57987L11.6569 9.48403L10.6919 8.22842ZM10.5647 8.3262C9.2324 9.35863 7.9421 10.8371 8.24394 12.702L9.80716 12.449C9.65636 11.5172 10.2713 10.557 11.5347 9.57793L10.5647 8.3262ZM8.24379 12.7011C8.53054 14.4857 10.1131 15.459 11.2804 15.9751L11.9206 14.5267C10.8155 14.0381 9.95472 13.3672 9.80731 12.4499L8.24379 12.7011ZM11.2807 15.9752C11.5938 16.1134 11.9266 16.2419 12.2783 16.3611L12.7864 14.8612C12.4745 14.7556 12.1861 14.6439 11.9203 14.5265L11.2807 15.9752ZM11.747 15.5104C11.5657 16.9236 11.6877 18.3593 12.1047 19.7217L13.6189 19.2582C13.2677 18.1109 13.165 16.9019 13.3177 15.7119L11.747 15.5104ZM12.1047 19.7217C12.5217 21.0841 13.2242 22.342 14.1654 23.4116L15.3543 22.3655C14.5616 21.4648 13.9701 20.4055 13.6189 19.2582L12.1047 19.7217ZM14.1654 23.4116C15.1066 24.4813 16.265 25.3381 17.5632 25.9251L18.2156 24.4821C17.1223 23.9878 16.1469 23.2663 15.3543 22.3655L14.1654 23.4116ZM17.5632 25.9251C18.8615 26.512 20.27 26.8156 21.6948 26.8156V25.232C20.4949 25.232 19.3089 24.9764 18.2156 24.4821L17.5632 25.9251ZM21.6948 26.8156C23.1196 26.8156 24.528 26.512 25.8263 25.9251L25.1739 24.4821C24.0807 24.9764 22.8946 25.232 21.6948 25.232V26.8156ZM25.8263 25.9251C27.1246 25.3381 28.2829 24.4813 29.2241 23.4116L28.0353 22.3655C27.2427 23.2663 26.2672 23.9878 25.1739 24.4821L25.8263 25.9251ZM29.2241 23.4116C30.1653 22.342 30.8679 21.0841 31.2849 19.7217L29.7706 19.2582C29.4195 20.4055 28.8279 21.4648 28.0353 22.3655L29.2241 23.4116ZM31.2849 19.7217C31.7019 18.3593 31.8238 16.9236 31.6426 15.5104L30.0719 15.7119C30.2245 16.9019 30.1218 18.1109 29.7706 19.2582L31.2849 19.7217ZM31.1097 16.3616C31.4624 16.2429 31.7962 16.114 32.1104 15.9745L31.4676 14.5273C31.2029 14.6448 30.9155 14.7561 30.6047 14.8607L31.1097 16.3616ZM32.1092 15.9751C33.2771 15.4588 34.8575 14.4855 35.1456 12.7017L33.5823 12.4492C33.434 13.3674 32.5734 14.0384 31.4689 14.5267L32.1092 15.9751ZM35.1456 12.702C35.4474 10.8371 34.1571 9.35863 32.8248 8.3262L31.8548 9.57793C33.1182 10.557 33.7332 11.5172 33.5824 12.449L35.1456 12.702ZM14.2963 10.3803C14.2092 10.1296 14.1528 9.59482 14.3263 8.83208L12.7822 8.48085C12.5654 9.43397 12.5875 10.2871 12.8006 10.9002L14.2963 10.3803ZM14.326 8.83318C14.4937 8.10086 14.8457 7.28222 15.405 6.51987L14.1283 5.58311C13.4405 6.52046 12.9981 7.53777 12.7824 8.47975L14.326 8.83318ZM13.9749 6.05149V9.28808H15.5584V6.05149H13.9749ZM13.9749 9.28808C13.9749 9.80431 14.1799 10.2994 14.545 10.6644L15.6647 9.54469C15.5967 9.47663 15.5584 9.38433 15.5584 9.28808H13.9749ZM14.545 10.6644C14.91 11.0295 15.4051 11.2345 15.9213 11.2345V9.65098C15.8251 9.65098 15.7328 9.61274 15.6647 9.54469L14.545 10.6644ZM15.9213 11.2345C16.4376 11.2345 16.9327 11.0295 17.2977 10.6644L16.1779 9.54469C16.1099 9.61275 16.0176 9.65098 15.9213 9.65098V11.2345ZM17.2977 10.6644C17.6627 10.2994 17.8678 9.80432 17.8678 9.28808H16.2842C16.2842 9.38432 16.246 9.47663 16.1779 9.54469L17.2977 10.6644ZM17.8678 9.28808V3.98807H16.2842V9.28808H17.8678ZM17.4674 4.67635C18.3143 4.19478 19.3498 3.85088 20.6002 3.75567L20.48 2.17667C19.0007 2.2893 17.7384 2.70057 16.6846 3.29978L17.4674 4.67635ZM19.7483 2.96617V6.9787H21.3319V2.96617H19.7483ZM19.7483 6.9787C19.7483 7.49494 19.9534 7.99003 20.3184 8.35507L21.4382 7.23531C21.3701 7.16726 21.3319 7.07495 21.3319 6.9787H19.7483ZM20.3184 8.35507C20.6834 8.7201 21.1785 8.92518 21.6948 8.92518V7.34161C21.5985 7.34161 21.5062 7.30337 21.4382 7.23531L20.3184 8.35507ZM21.6948 8.92518C22.211 8.92518 22.7061 8.7201 23.0711 8.35507L21.9514 7.23531C21.8833 7.30337 21.791 7.34161 21.6948 7.34161V8.92518ZM23.0711 8.35507C23.4362 7.99004 23.6412 7.49494 23.6412 6.9787H22.0577C22.0577 7.07495 22.0194 7.16726 21.9514 7.23531L23.0711 8.35507ZM23.6412 6.9787V3.03776H22.0577V6.9787H23.6412ZM22.7505 3.82334C23.8666 3.96391 24.9441 4.32306 25.9213 4.88027L26.7057 3.50462C25.5477 2.84434 24.271 2.41875 22.9484 2.25218L22.7505 3.82334ZM25.5217 4.19245V9.28808H27.1053V4.19245H25.5217ZM25.5217 9.28808C25.5217 9.80431 25.7268 10.2994 26.0918 10.6644L27.2116 9.54469C27.1435 9.47663 27.1053 9.38433 27.1053 9.28808H25.5217ZM26.0918 10.6644C26.4569 11.0295 26.952 11.2345 27.4682 11.2345V9.65098C27.372 9.65098 27.2796 9.61274 27.2116 9.54469L26.0918 10.6644ZM27.4682 11.2345C27.9844 11.2345 28.4795 11.0295 28.8446 10.6644L27.7248 9.54469C27.6567 9.61275 27.5644 9.65098 27.4682 9.65098V11.2345ZM28.8446 10.6644C29.2096 10.2994 29.4147 9.80432 29.4147 9.28808H27.8311C27.8311 9.38432 27.7929 9.47663 27.7248 9.54469L28.8446 10.6644ZM29.4147 9.28808V6.19121H27.8311V9.28808H29.4147ZM27.9987 6.67832C29.1663 8.17462 29.3369 9.66409 29.0889 10.3951L30.5886 10.9038C31.0589 9.51712 30.6313 7.47787 29.2471 5.70409L27.9987 6.67832ZM29.089 10.3949C28.939 10.8367 28.9527 11.3176 29.1276 11.7502L30.5957 11.1566C30.5631 11.076 30.5606 10.9863 30.5885 10.904L29.089 10.3949ZM29.1276 11.7502C29.3025 12.1827 29.6268 12.538 30.0417 12.7514L30.7662 11.3433C30.6888 11.3035 30.6283 11.2373 30.5957 11.1566L29.1276 11.7502ZM30.0417 12.7514C30.4565 12.9649 30.9342 13.0222 31.3878 12.913L31.0171 11.3734C30.9326 11.3938 30.8435 11.3831 30.7662 11.3433L30.0417 12.7514ZM31.3878 12.913C31.8413 12.8038 32.2406 12.5353 32.5128 12.1565L31.2269 11.2324C31.1761 11.303 31.1017 11.3531 31.0171 11.3734L31.3878 12.913ZM31.2262 12.1555C31.2993 12.2576 31.3103 12.3021 31.3066 12.2898C31.3047 12.2835 31.2992 12.2632 31.2963 12.2296C31.2948 12.2129 31.2939 12.1924 31.2946 12.1682C31.2952 12.1464 31.2973 12.1131 31.3046 12.0715L32.8647 12.3428C32.9183 12.0349 32.8142 11.6531 32.5135 11.2333L31.2262 12.1555ZM31.3031 12.0801C31.3211 11.9692 31.3586 11.9109 31.3605 11.908C31.3676 11.8966 31.3584 11.9148 31.3129 11.9574C31.22 12.0441 30.999 12.2104 30.5344 12.4161L31.1754 13.8641C31.7488 13.6103 32.1352 13.3563 32.394 13.1145C32.6371 12.8873 32.8196 12.6206 32.8662 12.3341L31.3031 12.0801ZM30.5354 12.4157C30.1337 12.5928 29.6397 12.7592 29.0658 12.9101L29.4686 14.4416C30.0978 14.2762 30.6754 14.0846 31.1744 13.8646L30.5354 12.4157ZM29.0751 12.9077L29.0474 12.9147L29.4316 14.4509L29.4593 14.444L29.0751 12.9077ZM29.0414 12.9162C28.4205 13.0767 27.7214 13.2149 26.965 13.3295L27.2023 14.8952C28.0001 14.7743 28.7537 14.6261 29.4376 14.4494L29.0414 12.9162ZM26.9708 13.3287C25.5614 13.5318 24.1409 13.6486 22.7173 13.6787L22.7507 15.2619C24.2387 15.2305 25.7235 15.1083 27.1966 14.896L26.9708 13.3287ZM22.7139 13.6788C21.7322 13.7037 20.7499 13.6931 19.7689 13.6471L19.6947 15.2289C20.7137 15.2767 21.7342 15.2877 22.7541 15.2618L22.7139 13.6788ZM19.7677 13.647C18.6438 13.5961 17.5231 13.4891 16.4099 13.3266L16.1811 14.8935C17.3464 15.0637 18.5195 15.1756 19.6959 15.2289L19.7677 13.647ZM16.409 13.3264C15.7144 13.2258 15.0255 13.0886 14.3453 12.9155L13.9548 14.4501C14.6888 14.637 15.4322 14.785 16.1819 14.8936L16.409 13.3264ZM14.3421 12.9147L14.3144 12.9077L13.9303 14.444L13.958 14.451L14.3421 12.9147ZM14.3142 12.9077C13.8128 12.7825 13.3223 12.6169 12.8475 12.4127L12.2218 13.8675C12.7749 14.1054 13.3463 14.2982 13.9305 14.4441L14.3142 12.9077ZM12.8552 12.4161C12.3905 12.2104 12.1695 12.0441 12.0767 11.9574C12.0312 11.9148 12.022 11.8966 12.0291 11.908C12.0309 11.9109 12.0684 11.9692 12.0864 12.0801L10.5234 12.3341C10.5699 12.6206 10.7524 12.8873 10.9956 13.1145C11.2543 13.3563 11.6407 13.6103 12.2141 13.8641L12.8552 12.4161ZM12.085 12.0715C12.0922 12.1131 12.0943 12.1464 12.0949 12.1682C12.0956 12.1924 12.0947 12.2129 12.0933 12.2296C12.0903 12.2632 12.0848 12.2835 12.0829 12.2898C12.0792 12.3021 12.0902 12.2576 12.1633 12.1555L10.876 11.2333C10.5753 11.6531 10.4713 12.0349 10.5248 12.3428L12.085 12.0715ZM10.8761 12.1556C11.1488 12.5362 11.5495 12.8057 12.0048 12.9148L12.3737 11.3748C12.2888 11.3545 12.2141 11.3042 12.1633 11.2333L10.8761 12.1556ZM12.0048 12.9148C12.4601 13.0239 12.9395 12.9652 13.355 12.7495L12.6255 11.344C12.548 11.3842 12.4586 11.3951 12.3737 11.3748L12.0048 12.9148ZM13.355 12.7495C13.7705 12.5338 14.0944 12.1755 14.2673 11.7404L12.7955 11.1558C12.7633 11.237 12.7029 11.3038 12.6255 11.344L13.355 12.7495ZM14.2673 11.7404C14.4401 11.3053 14.4503 10.8225 14.296 10.3804L12.8009 10.9023C12.8297 10.9847 12.8278 11.0747 12.7955 11.1558L14.2673 11.7404ZM14.641 16.9715C15.0365 17.0484 15.4431 17.1184 15.8607 17.1815L16.0975 15.6158C15.7006 15.5557 15.3159 15.4895 14.9431 15.417L14.641 16.9715ZM15.8618 17.1817C17.1274 17.3713 18.484 17.4913 19.8587 17.5477L19.9236 15.9655C18.5963 15.911 17.2971 15.7955 16.0964 15.6156L15.8618 17.1817ZM19.8585 17.5477C21.0845 17.5982 22.312 17.5982 23.5379 17.5477L23.4727 15.9655C22.2902 16.0142 21.1062 16.0142 19.9238 15.9655L19.8585 17.5477ZM23.5379 17.5477C24.9057 17.4913 26.2579 17.3713 27.5179 17.1816L27.2822 15.6157C26.0874 15.7955 24.793 15.911 23.4727 15.9655L23.5379 17.5477ZM27.5145 17.1821C27.9378 17.1203 28.3498 17.05 28.7504 16.9711L28.4446 15.4174C28.0708 15.4909 27.6845 15.5569 27.2856 15.6152L27.5145 17.1821ZM27.8086 16.262C27.8813 17.109 27.7773 17.9618 27.5031 18.7665L29.002 19.2773C29.347 18.265 29.4779 17.1921 29.3864 16.1265L27.8086 16.262ZM27.5031 18.7665C27.2288 19.5711 26.7904 20.31 26.2156 20.9363L27.3823 22.0071C28.1054 21.2191 28.657 20.2896 29.002 19.2773L27.5031 18.7665ZM26.2156 20.9363C25.6408 21.5626 24.9421 22.0626 24.1639 22.4046L24.8011 23.8544C25.7802 23.424 26.6591 22.795 27.3823 22.0071L26.2156 20.9363ZM24.1639 22.4046C23.3857 22.7467 22.5449 22.9233 21.6948 22.9233V24.5069C22.7642 24.5069 23.822 24.2847 24.8011 23.8544L24.1639 22.4046ZM21.6948 22.9233C20.8447 22.9233 20.0039 22.7467 19.2256 22.4046L18.5884 23.8544C19.5675 24.2847 20.6253 24.5069 21.6948 24.5069V22.9233ZM19.2256 22.4046C18.4474 22.0626 17.7487 21.5626 17.1739 20.9363L16.0072 22.0071C16.7304 22.795 17.6094 23.424 18.5884 23.8544L19.2256 22.4046ZM17.1739 20.9363C16.5991 20.31 16.1607 19.5711 15.8865 18.7665L14.3876 19.2773C14.7325 20.2896 15.2841 21.2191 16.0072 22.0071L17.1739 20.9363ZM15.8865 18.7665C15.6122 17.9618 15.5082 17.109 15.5809 16.262L14.0032 16.1265C13.9117 17.1921 14.0426 18.265 14.3876 19.2773L15.8865 18.7665Z" fill="white" mask="url(#path-1-inside-1_6002_51)"/>
<path d="M15.5271 27.0701C14.9162 27.1833 14.3076 27.3089 13.7018 27.4468L15.5271 27.0701ZM15.5271 27.0701V31.8043V32.2002H15.923H27.4699H27.8658V31.8043V27.0702C28.469 27.182 29.0794 27.3075 29.6911 27.4468C32.8126 28.1597 35.9459 29.2246 38.2884 30.5818C40.6594 31.9556 42.0849 33.5467 42.0849 35.2684V41.8006H1.308V35.2684C1.308 33.5467 2.73349 31.9556 5.1045 30.5818C7.447 29.2246 10.5802 28.1597 13.7017 27.4468L15.5271 27.0701ZM10.9084 29.7678L11.1885 29.6822C11.9521 29.4486 12.7346 29.2376 13.5207 29.0478L14.0096 28.9297V29.4326V33.7178H29.3834V29.4337V28.9322L29.8712 29.0487C31.0532 29.3308 32.2212 29.6687 33.3712 30.0614L33.6392 30.1528V30.436V39.4912H35.1568V31.339V30.7295L35.7136 30.9773C36.0552 31.1293 36.384 31.2858 36.7 31.4469M10.9084 29.7678L3.68081 33.5428C3.02882 34.2383 2.82559 34.8073 2.82559 35.2684V39.8871V40.283H3.22148H8.59902H8.99491H11.3043H11.7002H32.8474H33.2433H35.5527H35.9486H40.1714H40.5673V39.8871V35.2684C40.5673 34.8073 40.3641 34.2383 39.7121 33.5428C39.0524 32.8387 38.0351 32.1257 36.7 31.4469M10.9084 29.7678V30.0607V39.4912H9.39081M10.9084 29.7678L9.39081 39.4912M36.7 31.4469C36.6999 31.4469 36.6998 31.4468 36.6997 31.4468L36.5203 31.7997L36.7002 31.447C36.7001 31.447 36.7 31.4469 36.7 31.4469ZM9.39081 39.4912V30.8586V30.2804L8.8517 30.4895C8.0884 30.7857 7.36352 31.1051 6.69283 31.447C5.35781 32.1257 4.34056 32.8386 3.6809 33.5427L9.39081 39.4912ZM35.5527 31.339H35.9486V31.5199C35.8187 31.4589 35.6868 31.3986 35.5527 31.339ZM35.5527 31.339L35.3918 31.7007C35.4458 31.7247 35.4994 31.7488 35.5527 31.7731V31.339Z" stroke="white" stroke-width="0.791785"/>
</svg>
