<svg width="56" height="57" viewBox="0 0 56 57" fill="none" xmlns="http://www.w3.org/2000/svg">
<g clip-path="url(#clip0_6002_82)">
<g clip-path="url(#clip1_6002_82)">
<path d="M28.6662 52.2646C28.8735 47.8911 32.4972 44.3963 36.9211 44.3963H43.8492C48.2731 44.3963 51.8968 47.8911 52.1041 52.2646H49.4273C49.2236 49.3652 46.7995 47.0685 43.8492 47.0685H36.9211C33.9707 47.0685 31.5467 49.3652 31.343 52.2646H28.6662ZM25.5841 29.1993C25.8347 28.9488 26.1745 28.808 26.5289 28.808C26.8833 28.808 27.2231 28.9488 27.4737 29.1993C27.7243 29.4499 27.865 29.7898 27.865 30.1441V40.1404H25.1928V30.1441C25.1928 29.7898 25.3335 29.4499 25.5841 29.1993Z" stroke="white" stroke-width="0.791785"/>
<path d="M32.1209 24.9484V24.5525H31.725H25.1928V21.8803H55.5775V24.5525H49.0453H48.6494V24.9484V33.6086C48.6494 38.1651 44.9417 41.8728 40.3851 41.8728C35.8286 41.8728 32.1209 38.1651 32.1209 33.6086V24.9484ZM35.1891 31.4807H34.7932V31.8766V33.6086C34.7932 36.692 37.3017 39.2006 40.3851 39.2006C43.4686 39.2006 45.9771 36.692 45.9771 33.6086V31.8766V31.4807H45.5812H35.1891ZM45.5812 28.8084H45.9771V28.4125V24.9484V24.5525H45.5812H35.1891H34.7932V24.9484V28.4125V28.8084H35.1891H45.5812Z" stroke="white" stroke-width="0.791785"/>
<path d="M44.7399 17.6244C42.9906 10.1458 36.2663 4.55998 28.2613 4.55998H28.2607C24.3215 4.55362 20.504 5.92433 17.4686 8.43498C14.4332 10.9456 12.3709 14.4383 11.6383 18.3087L11.5876 18.5768L11.319 18.6248C5.40322 19.6827 0.944721 24.8813 0.944721 31.0105C0.944721 37.9555 6.59572 43.6049 13.539 43.6049H20.9373V40.9326H13.539H13.5386C10.9081 40.9297 8.38618 39.8835 6.52613 38.0235C4.66609 36.1634 3.61986 33.6415 3.61699 31.011L3.61699 31.0094C3.62446 28.4992 4.5814 26.0849 6.2956 24.2512C8.00981 22.4176 10.3543 21.3004 12.8583 21.1241L12.8591 21.124L13.9761 21.0479L14.0963 19.9353C14.4705 16.4418 16.1251 13.2105 18.741 10.8648C21.3567 8.51916 24.7483 7.22512 28.2618 7.23225C28.2619 7.23225 28.262 7.23225 28.2621 7.23225L44.7399 17.6244ZM44.7399 17.6244H41.965H44.7399Z" stroke="white" stroke-width="0.791785"/>
</g>
</g>
<defs>
<clipPath id="clip0_6002_82">
<rect width="55.4249" height="55.4249" fill="white" transform="translate(0.548828 0.699707)"/>
</clipPath>
<clipPath id="clip1_6002_82">
<rect width="55.4249" height="55.4249" fill="white" transform="translate(0.548828 0.699707)"/>
</clipPath>
</defs>
</svg>
