<svg width="56" height="57" viewBox="0 0 56 57" fill="none" xmlns="http://www.w3.org/2000/svg">
<g clip-path="url(#clip0_6002_108)">
<path d="M15.994 39.4062H12.9629C12.4882 39.4062 12.1035 39.7909 12.1035 40.2657C12.1035 40.7405 12.4881 41.1251 12.9629 41.1251H15.994C16.4687 41.1251 16.8534 40.7405 16.8534 40.2657C16.8534 39.7909 16.4687 39.4062 15.994 39.4062Z" fill="white"/>
<path d="M54.2141 49.3876H50.1101V37.2574C50.1101 36.1518 49.2106 35.2522 48.105 35.2522H47.933V17.22H51.1473C52.2529 17.22 53.1525 16.3204 53.1525 15.2148V5.14089C53.1525 4.03531 52.2529 3.13574 51.1473 3.13574H4.46143C3.35585 3.13574 2.45628 4.03531 2.45628 5.14089V15.2147C2.45628 16.3203 3.35585 17.2198 4.46143 17.2198H36.5894V35.2521H36.4174C35.3118 35.2521 34.4122 36.1517 34.4122 37.2573V49.3874H27.1801V43.2489C27.8244 42.9762 28.367 42.5074 28.7721 41.8661C29.301 41.0291 29.6072 39.8757 29.6577 38.5305C29.691 37.6405 29.6118 36.6957 29.4355 35.8083C29.4817 35.7711 29.5267 35.7319 29.5701 35.6905C30.0157 35.266 30.2512 34.6798 30.2512 33.9951C30.2512 32.7756 29.5324 31.7084 28.9294 31.0278C28.4231 30.4562 27.7866 29.9245 27.1802 29.5555V28.593C27.1802 27.4183 26.2246 26.4627 25.0501 26.4627H11.8007C10.6263 26.4627 9.67062 27.4184 9.67062 28.593V29.5555C9.0644 29.9246 8.42799 30.4563 7.92159 31.0278C7.31852 31.7084 6.59973 32.7756 6.59973 33.9951C6.59973 34.6798 6.83528 35.2661 7.28085 35.6905C7.32426 35.7319 7.36918 35.7711 7.41551 35.8083C7.23917 36.6957 7.15993 37.6405 7.19327 38.5305C7.24372 39.8757 7.54985 41.0292 8.07888 41.8661C8.48396 42.5073 9.02652 42.9762 9.67072 43.2488V49.3874H1.43352C0.704548 49.3876 0.111328 49.981 0.111328 50.71V52.3665C0.111328 53.0955 0.704548 53.6887 1.43352 53.6887H54.2142C54.9432 53.6887 55.5364 53.0955 55.5364 52.3665V50.71C55.5363 49.981 54.9431 49.3876 54.2141 49.3876ZM9.67051 41.143C9.62255 41.0818 9.57579 41.0178 9.53162 40.9482C8.86003 39.8853 8.78371 38.0155 9.04708 36.4335C9.2611 36.4616 9.47122 36.476 9.67051 36.4821V41.143ZM9.67062 34.7589C9.20665 34.7403 8.69884 34.6676 8.46653 34.4461C8.39768 34.3806 8.31855 34.2698 8.31855 33.9951C8.31855 33.2465 8.94858 32.366 9.67062 31.7023V34.7589ZM4.46143 15.5012C4.3062 15.5012 4.17499 15.37 4.17499 15.2148V5.14089C4.17499 4.98566 4.3062 4.85446 4.46143 4.85446H11.9971L6.02578 15.5011L4.46143 15.5012ZM7.99618 15.5012L13.9675 4.85456H18.1798L12.2085 15.5012H7.99618ZM14.179 15.5012L20.1503 4.85456H24.3626L18.3913 15.5012H14.179ZM20.3618 15.5012L26.333 4.85456H51.1471C51.3023 4.85456 51.4335 4.98577 51.4335 5.141V15.2148C51.4335 15.3701 51.3023 15.5012 51.1471 15.5012H20.3618ZM46.2142 17.22V35.2522H38.308V17.22H46.2142ZM36.1308 37.2574C36.1308 37.1021 36.262 36.9709 36.4173 36.9709H48.1049C48.2601 36.9709 48.3913 37.1021 48.3913 37.2574V49.3875H36.1308V37.2574ZM27.18 31.7024C27.9021 32.366 28.5322 33.2466 28.5322 33.9952C28.5322 34.2699 28.4532 34.3807 28.3843 34.4462C28.1519 34.6678 27.6441 34.7404 27.18 34.7589V31.7024ZM27.1799 36.482C27.3792 36.4759 27.5894 36.4616 27.8036 36.4334C28.0669 38.0155 27.9907 39.8852 27.319 40.9481C27.2749 41.0179 27.2282 41.0818 27.1799 41.1429V36.482ZM11.3894 28.5931C11.3894 28.37 11.5778 28.1815 11.8008 28.1815H25.05C25.273 28.1815 25.4614 28.37 25.4614 28.5931V37.0648H11.3894V28.5931ZM25.4613 38.7834V42.5397H19.2847V38.7834H25.4613ZM11.3894 38.7834H17.566V42.5397H11.3894V38.7834ZM11.3894 44.2584H25.4614V49.3876H23.2899V45.7713H21.4565V49.3876H15.3944V45.7713H13.5611V49.3876H11.3893L11.3894 44.2584ZM53.8176 51.97H1.83004V51.1063H53.8176V51.97Z" fill="white"/>
<path d="M46.2141 40.0631C46.6571 40.0631 47.0162 39.704 47.0162 39.261C47.0162 38.8181 46.6571 38.459 46.2141 38.459C45.7712 38.459 45.4121 38.8181 45.4121 39.261C45.4121 39.704 45.7712 40.0631 46.2141 40.0631Z" fill="white"/>
<path d="M23.1508 30.1968H13.7012C13.2265 30.1968 12.8418 30.5814 12.8418 31.0562V34.4779C12.8418 34.9526 13.2264 35.3373 13.7012 35.3373H23.1508C23.6255 35.3373 24.0102 34.9527 24.0102 34.4779V31.0562C24.0102 30.5814 23.6256 30.1968 23.1508 30.1968ZM22.2915 33.6185H14.5606V31.9155H22.2915V33.6185Z" fill="white"/>
<path d="M42.0895 6.31543C41.8352 6.31543 41.594 6.4279 41.4308 6.62297C40.85 7.31633 38.9551 9.69148 38.9551 11.1474C38.9551 12.8758 40.3613 14.282 42.0896 14.282C43.818 14.282 45.2243 12.8758 45.2243 11.1474C45.2243 9.69148 43.3293 7.31633 42.7485 6.62297C42.5851 6.4279 42.3437 6.31543 42.0895 6.31543ZM42.0895 12.5632C41.3089 12.5632 40.6738 11.928 40.6738 11.1473C40.6738 10.7788 41.2213 9.73467 42.0895 8.56263C42.9577 9.73467 43.5054 10.7788 43.5054 11.1473C43.5053 11.928 42.8702 12.5632 42.0895 12.5632Z" fill="white"/>
<path d="M42.261 40.0631C42.704 40.0631 43.0631 39.704 43.0631 39.261C43.0631 38.8181 42.704 38.459 42.261 38.459C41.8181 38.459 41.459 38.8181 41.459 39.261C41.459 39.704 41.8181 40.0631 42.261 40.0631Z" fill="white"/>
<path d="M20.8575 41.1246H23.8885C24.3632 41.1246 24.7479 40.74 24.7479 40.2652C24.7479 39.7904 24.3633 39.4058 23.8885 39.4058H20.8575C20.3828 39.4058 19.998 39.7904 19.998 40.2652C19.998 40.74 20.3828 41.1246 20.8575 41.1246Z" fill="white"/>
<path d="M38.3079 40.0631C38.7509 40.0631 39.1099 39.704 39.1099 39.261C39.1099 38.8181 38.7509 38.459 38.3079 38.459C37.8649 38.459 37.5059 38.8181 37.5059 39.261C37.5059 39.704 37.8649 40.0631 38.3079 40.0631Z" fill="white"/>
</g>
<defs>
<clipPath id="clip0_6002_108">
<rect width="55.4249" height="55.4249" fill="white" transform="translate(0.111328 0.699707)"/>
</clipPath>
</defs>
</svg>
