<svg width="70" height="70" viewBox="0 0 70 70" fill="none" xmlns="http://www.w3.org/2000/svg">
<g clip-path="url(#clip0_6002_2244)">
<path d="M32.3652 36.875C33.4486 36.875 36.9794 39.4829 36.9794 42.0508C36.9794 44.6189 33.4486 44.057 32.3652 44.057V36.875Z" fill="white"/>
<path opacity="0.2" d="M32.3652 36.875V44.057C32.8109 44.057 33.671 44.1516 34.5289 44.0846V38.0156C33.6712 37.3171 32.8109 36.875 32.3652 36.875Z" fill="white"/>
<path d="M13.8934 36.875C12.8101 36.875 9.2793 39.4829 9.2793 42.0508C9.2793 44.6189 12.8101 44.057 13.8934 44.057V36.875Z" fill="white"/>
<path opacity="0.2" d="M13.8942 36.875V44.057C13.4485 44.057 12.5882 44.1516 11.7305 44.0846V38.0156C12.5884 37.3171 13.4485 36.875 13.8942 36.875Z" fill="white"/>
<path d="M65.9039 5.60879C65.9039 4.81281 65.2527 4.16162 64.4567 4.16162H5.49404C4.69807 4.16162 4.04688 4.81281 4.04688 5.60879V18.3317C4.04688 19.1277 4.69807 19.7789 5.49404 19.7789H64.4567C65.2527 19.7789 65.9039 19.1277 65.9039 18.3317V5.60879Z" fill="white"/>
<path d="M33.1012 62.5764V35.2283C33.1012 34.3455 32.3789 33.623 31.4962 33.623H14.763C13.8802 33.623 13.1582 34.3455 13.1582 35.2283V62.5765H33.1012V62.5764Z" fill="white"/>
<path d="M33.1011 50.1084H13.1582V62.5769H33.1011V50.1084Z" fill="white"/>
<path d="M19.3018 56.9243H16.9863V62.5768H19.3018V56.9243Z" fill="white"/>
<path d="M29.2745 56.9243H26.959V62.5768H29.2745V56.9243Z" fill="white"/>
<path d="M29.0966 38.3389H17.1621V42.6604H29.0966V38.3389Z" fill="white"/>
<path d="M59.3122 19.6636H47.1562V62.5769H59.3122V19.6636Z" fill="white"/>
<path opacity="0.1" d="M59.3122 19.6636H47.1562V24.1743H59.3122V19.6636Z" fill="white"/>
<path opacity="0.1" d="M59.3122 42.9146H47.1562V46.3642H59.3122V42.9146Z" fill="white"/>
<path d="M62.0616 62.5767V46.1713C62.0616 45.3753 61.4104 44.7241 60.6144 44.7241H45.8534C45.0574 44.7241 44.4062 45.3753 44.4062 46.1713V62.5767H62.0616Z" fill="white"/>
<path d="M24.6733 4.16211H16.8645L8.10547 19.7792H15.9142L24.6733 4.16211Z" fill="#666666"/>
<path d="M32.4818 4.16211H24.6732L15.9141 19.7792H23.7229L32.4818 4.16211Z" fill="#666666"/>
<path d="M23.1298 47.0132H13.1582V53.928H23.1298V47.0132Z" fill="white"/>
<path d="M33.1006 47.0132H23.1289V53.928H33.1006V47.0132Z" fill="white"/>
<path d="M53.0179 16.0685C54.605 16.0685 55.8915 14.7818 55.8915 13.1949C55.8915 11.608 53.0179 8.17773 53.0179 8.17773C53.0179 8.17773 50.1445 11.6079 50.1445 13.1949C50.1445 14.7819 51.4308 16.0685 53.0179 16.0685Z" fill="#666666"/>
<path d="M68.9151 65.2535C68.9151 65.5749 68.6523 65.8379 68.3307 65.8379H1.67041C1.34885 65.8379 1.08594 65.5749 1.08594 65.2535V63.1614C1.08594 62.8397 1.34885 62.5767 1.67041 62.5767H68.3308C68.6525 62.5767 68.9153 62.8397 68.9153 63.1614V65.2535H68.9151Z" fill="white"/>
<path d="M20.0581 51.0551H16.2299C15.6304 51.0551 15.1445 50.5693 15.1445 49.9697C15.1445 49.3702 15.6303 48.8843 16.2299 48.8843H20.0581C20.6576 48.8843 21.1435 49.37 21.1435 49.9697C21.1435 50.5693 20.6576 51.0551 20.0581 51.0551Z" fill="white"/>
<path d="M30.0307 51.0551H26.2026C25.6031 51.0551 25.1172 50.5693 25.1172 49.9697C25.1172 49.3702 25.6029 48.8843 26.2026 48.8843H30.0307C30.6302 48.8843 31.1161 49.37 31.1161 49.9697C31.1161 50.5693 30.6301 51.0551 30.0307 51.0551Z" fill="white"/>
<path d="M53.2337 49.7149C53.7931 49.7149 54.2466 49.2614 54.2466 48.7019C54.2466 48.1425 53.7931 47.689 53.2337 47.689C52.6742 47.689 52.2207 48.1425 52.2207 48.7019C52.2207 49.2614 52.6742 49.7149 53.2337 49.7149Z" fill="white"/>
<path d="M48.2415 49.7149C48.8009 49.7149 49.2544 49.2614 49.2544 48.7019C49.2544 48.1425 48.8009 47.689 48.2415 47.689C47.682 47.689 47.2285 48.1425 47.2285 48.7019C47.2285 49.2614 47.682 49.7149 48.2415 49.7149Z" fill="white"/>
<path d="M58.2258 49.7149C58.7853 49.7149 59.2388 49.2614 59.2388 48.7019C59.2388 48.1425 58.7853 47.689 58.2258 47.689C57.6664 47.689 57.2129 48.1425 57.2129 48.7019C57.2129 49.2614 57.6664 49.7149 58.2258 49.7149Z" fill="white"/>
<path d="M68.3301 61.4914H63.147V46.1712C63.147 44.7749 62.0108 43.6388 60.6145 43.6388H60.3973V20.8646H64.4569C65.8532 20.8646 66.9893 19.7285 66.9893 18.3321V5.6091C66.9893 4.21279 65.8532 3.07666 64.4569 3.07666H5.49404C4.09773 3.07666 2.9616 4.21279 2.9616 5.6091V18.332C2.9616 19.7283 4.09773 20.8645 5.49404 20.8645H46.0707V43.6387H45.8534C44.4571 43.6387 43.321 44.7748 43.321 46.1711V61.4911H34.1871V53.7383C35.0008 53.3939 35.6861 52.8018 36.1977 51.9919C36.8657 50.9348 37.2524 49.478 37.3162 47.7792C37.3583 46.6551 37.2582 45.4618 37.0355 44.3411C37.0938 44.2941 37.1507 44.2446 37.2055 44.1924C37.7683 43.6562 38.0658 42.9158 38.0658 42.0511C38.0658 40.5109 37.158 39.163 36.3963 38.3035C35.7569 37.5816 34.953 36.91 34.1872 36.444V35.2284C34.1872 33.7449 32.9803 32.5379 31.4969 32.5379H14.7633C13.28 32.5379 12.0731 33.7449 12.0731 35.2284V36.444C11.3075 36.9102 10.5037 37.5817 9.86412 38.3035C9.10246 39.163 8.19465 40.5109 8.19465 42.0511C8.19465 42.9158 8.49215 43.6563 9.05488 44.1924C9.10971 44.2446 9.16644 44.2941 9.22496 44.3411C9.00225 45.4618 8.90217 46.6551 8.94428 47.7792C9.00799 49.478 9.39463 50.9349 10.0628 51.9919C10.5744 52.8017 11.2596 53.3938 12.0732 53.7382V61.4911H1.66988C0.749219 61.4914 0 62.2407 0 63.1615V65.2536C0 66.1743 0.749219 66.9235 1.66988 66.9235H68.3303C69.2509 66.9235 70.0001 66.1743 70.0001 65.2536V63.1615C70 62.2407 69.2508 61.4914 68.3301 61.4914ZM34.1869 39.1555C35.099 39.9936 35.8947 41.1058 35.8947 42.0512C35.8947 42.3982 35.7949 42.5381 35.7079 42.6208C35.4144 42.9006 34.773 42.9924 34.1869 43.0158V39.1555ZM34.1869 45.1919C34.4386 45.1843 34.704 45.1662 34.9744 45.1305C35.3071 47.1287 35.2107 49.4901 34.3625 50.8325C34.3067 50.9207 34.2478 51.0014 34.1868 51.0785V45.1918L34.1869 45.1919ZM5.49404 18.6939C5.29799 18.6939 5.13229 18.5282 5.13229 18.3321V5.6091C5.13229 5.41305 5.29799 5.24734 5.49404 5.24734H64.4567C64.6528 5.24734 64.8185 5.41305 64.8185 5.6091V18.332C64.8185 18.5282 64.6528 18.6938 64.4567 18.6938L5.49404 18.6939ZM58.2265 20.8646V43.6388H48.2412V20.8646H58.2265ZM45.4915 46.1712C45.4915 45.9752 45.6572 45.8095 45.8533 45.8095H60.6143C60.8103 45.8095 60.976 45.9752 60.976 46.1712V61.4913H45.4915V46.1712ZM14.2439 35.2285C14.2439 34.9468 14.4818 34.7087 14.7634 34.7087H31.4967C31.7784 34.7087 32.0164 34.9468 32.0164 35.2285V45.928H14.2439V35.2285ZM32.0163 48.0986V52.8427H24.2154V48.0986H32.0163ZM14.2439 48.0986H22.0447V52.8427H14.2439V48.0986ZM14.2439 55.0134H32.0164V61.4914H14.2439V55.0134ZM10.5524 42.6208C10.4654 42.5381 10.3656 42.3982 10.3656 42.0512C10.3656 41.1058 11.1612 39.9937 12.0732 39.1555V43.0159C11.4872 42.9924 10.8458 42.9005 10.5524 42.6208ZM11.8975 50.8327C11.0493 49.4902 10.9529 47.1287 11.2856 45.1307C11.5559 45.1662 11.8212 45.1844 12.0729 45.1921V51.0788C12.0124 51.0014 11.9533 50.9207 11.8975 50.8327ZM67.8293 64.7528H2.17068V63.6621H67.8293V64.7528ZM53.0172 7.09223C52.6961 7.09223 52.3914 7.23428 52.1853 7.48064C51.4518 8.35633 49.0585 11.3561 49.0585 13.1948C49.0585 15.3778 50.8345 17.1538 53.0173 17.1538C55.2002 17.1538 56.9763 15.3778 56.9763 13.1948C56.9763 11.3561 54.583 8.35633 53.8496 7.48064C53.6431 7.23428 53.3384 7.09223 53.0172 7.09223ZM53.0172 14.9829C52.0313 14.9829 51.2292 14.1807 51.2292 13.1947C51.2292 12.7293 51.9207 11.4106 53.0172 9.93037C54.1137 11.4106 54.8055 12.7293 54.8055 13.1947C54.8054 14.1807 54.0032 14.9829 53.0172 14.9829Z" fill="#666666"/>
</g>
<defs>
<clipPath id="clip0_6002_2244">
<rect width="70" height="70" fill="white"/>
</clipPath>
</defs>
</svg>
