<svg width="70" height="70" viewBox="0 0 70 70" fill="none" xmlns="http://www.w3.org/2000/svg">
<path d="M51.0423 1.4585H21.8757C17.8486 1.4585 14.584 4.72309 14.584 8.75016V61.2502C14.584 65.2772 17.8486 68.5418 21.8757 68.5418H51.0423C55.0694 68.5418 58.334 65.2772 58.334 61.2502V8.75016C58.334 4.72309 55.0694 1.4585 51.0423 1.4585Z" stroke="#666666" stroke-width="2.91667" stroke-miterlimit="10" stroke-linecap="round"/>
<path d="M36.4583 48.1252C44.5125 48.1252 51.0417 41.596 51.0417 33.5418C51.0417 25.4877 44.5125 18.9585 36.4583 18.9585C28.4042 18.9585 21.875 25.4877 21.875 33.5418C21.875 41.596 28.4042 48.1252 36.4583 48.1252Z" fill="#D9D9D9" stroke="#666666" stroke-width="2.91667" stroke-miterlimit="10" stroke-linecap="round"/>
<path d="M49.5831 1.4585C49.6053 1.70104 49.6053 1.94512 49.5831 2.18766C49.596 2.86198 49.4736 3.53205 49.2231 4.15826C48.9726 4.78446 48.5991 5.3541 48.1247 5.8335C47.6453 6.3079 47.0757 6.68138 46.4495 6.93186C45.8233 7.18234 45.1532 7.30474 44.4789 7.29183H28.4372C27.0835 7.29183 25.7853 6.75407 24.828 5.79685C23.8708 4.83964 23.3331 3.54137 23.3331 2.18766C23.3109 1.94512 23.3109 1.70104 23.3331 1.4585" stroke="#666666" stroke-width="2.91667" stroke-miterlimit="10" stroke-linecap="round"/>
<path d="M36.4587 33.542C35.7407 33.5426 35.0336 33.3665 34.3998 33.0292C33.7659 32.6919 33.2249 32.2037 32.8243 31.6079C32.4237 31.012 32.1759 30.3268 32.1028 29.6125C32.0297 28.8982 32.1335 28.177 32.4051 27.5123C32.6766 26.8477 33.1076 26.2601 33.6599 25.8013C34.2123 25.3426 34.869 25.0269 35.5722 24.882C36.2754 24.7371 37.0035 24.7675 37.6922 24.9705C38.3809 25.1736 39.009 25.543 39.5212 26.0462C39.9363 26.4531 40.2662 26.9386 40.4916 27.4745C40.7169 28.0103 40.8332 28.5857 40.8337 29.167" stroke="#666666" stroke-width="2.91667" stroke-miterlimit="10" stroke-linecap="round"/>
<path d="M36.459 33.542C37.3243 33.542 38.1701 33.7986 38.8896 34.2793C39.6091 34.76 40.1698 35.4433 40.501 36.2428C40.8321 37.0422 40.9187 37.9218 40.7499 38.7705C40.5811 39.6192 40.1644 40.3987 39.5526 41.0106C38.9407 41.6224 38.1612 42.0391 37.3125 42.2079C36.4638 42.3767 35.5842 42.2901 34.7847 41.959C33.9853 41.6278 33.302 41.0671 32.8213 40.3476C32.3406 39.6281 32.084 38.7823 32.084 37.917" stroke="#666666" stroke-width="2.91667" stroke-miterlimit="10" stroke-linecap="round"/>
<path d="M36.459 23.3335V24.7918" stroke="#666666" stroke-width="2.91667" stroke-miterlimit="10" stroke-linecap="round"/>
<path d="M36.459 43.7503V42.292" stroke="#666666" stroke-width="2.91667" stroke-miterlimit="10" stroke-linecap="round"/>
</svg>
