<svg width="70" height="68" viewBox="0 0 70 68" fill="none" xmlns="http://www.w3.org/2000/svg">
<path d="M58.9122 56.8423H52.4297L54.2649 64.9143C54.6519 66.6165 56.3458 67.6825 58.0477 67.2955C59.7497 66.9084 60.8159 65.2149 60.429 63.5129L58.9122 56.8423Z" fill="#666666"/>
<path d="M51.1743 38.713C51.1743 36.989 51.171 37.0793 51.1839 36.8869L46.8878 34.9716C44.747 34.0172 43.7869 31.8319 43.8694 30.5344L44.5526 19.7875L46.3928 30.6948C46.5397 31.5647 47.112 32.3031 47.9176 32.6623L57.5285 36.947C58.6979 37.4685 60.0526 37.0702 60.7643 36.0415C61.7144 34.6675 61.1658 32.8013 59.6735 32.1359L51.3523 28.426L49.6858 18.5484L53.2493 26.4785L53.9107 18.7843C54.0964 16.6234 52.4953 14.7211 50.3345 14.5354L43.3571 13.9356C41.2092 13.7509 39.3175 15.332 39.1124 17.4731L32.7439 22.962C32.5371 23.1403 32.3593 23.3497 32.217 23.5826L26.1573 33.4984C25.6465 34.3342 25.6599 35.3418 26.1019 36.1421L24.7305 38.2293L17.8224 33.6901C16.6648 32.9294 15.1078 33.2532 14.3495 34.4128L0.408838 55.7313C-0.347288 56.8876 -0.0247777 58.4377 1.12996 59.1965L5.68498 62.1895C5.58727 62.7354 5.59305 63.3002 5.70888 63.8597C6.19318 66.2005 8.506 67.7816 10.9174 67.2822C13.3024 66.7888 14.8337 64.4592 14.34 62.0735C14.2247 61.5169 14.005 61.0025 13.7048 60.548C24.0421 44.7396 21.5207 48.5837 28.8298 37.4621C29.5568 37.3414 30.2297 36.9186 30.6442 36.2404L36.4889 26.6762L38.4666 24.9715C38.4666 24.9715 37.5685 37.6834 37.5749 37.7245L39.4617 49.7432L34.4248 63.0976C33.8088 64.7309 34.6335 66.5542 36.2667 67.1702C37.9003 67.7861 39.7233 66.9612 40.3393 65.3283L45.6707 51.1927C45.8472 50.7249 45.9274 50.1706 45.8358 49.5872L44.0415 38.1587L45.7086 38.3021L46.6493 40.3835C47.3936 39.3713 48.592 38.7127 49.9418 38.7127C50.4167 38.713 50.7113 38.713 51.1743 38.713ZM10.3083 64.3399C9.5335 64.5006 8.80416 63.9904 8.65104 63.2509C8.49413 62.4919 8.98101 61.7507 9.74003 61.5936C10.5178 61.4329 11.2448 61.9455 11.3973 62.6826C11.5544 63.4416 11.0677 64.1827 10.3083 64.3399Z" fill="#666666"/>
<path d="M48.5263 12.2523C51.737 12.2523 54.3397 9.64955 54.3397 6.4389C54.3397 3.22824 51.737 0.625488 48.5263 0.625488C45.3156 0.625488 42.7129 3.22824 42.7129 6.4389C42.7129 9.64955 45.3156 12.2523 48.5263 12.2523Z" fill="#666666"/>
<path d="M68.1694 40.9667H64.6834V37.1421C64.6834 36.4692 64.241 35.8998 63.6313 35.7085C63.5568 36.0261 63.4524 36.3391 63.3167 36.6436C62.9483 37.4699 62.3773 38.1653 61.6785 38.684V40.9667C61.4467 40.9667 57.2355 40.9667 56.4334 40.9667V39.2269L53.4287 37.8874C53.4287 38.9564 53.4287 39.911 53.4287 40.9667H49.9427C48.9311 40.9667 48.1113 41.7867 48.1113 42.7981V52.7568C48.1113 53.7683 48.9312 54.5882 49.9427 54.5882H68.1694C69.1809 54.5882 70.0008 53.7682 70.0008 52.7568V42.7982C70.0008 41.7683 69.157 40.9667 68.1694 40.9667Z" fill="#666666"/>
</svg>
