<svg width="70" height="70" viewBox="0 0 70 70" fill="none" xmlns="http://www.w3.org/2000/svg">
<path d="M36.1674 62.9976H33.834V69.9977H36.1674V62.9976Z" fill="#666666"/>
<path d="M68.8302 53.166C68.829 53.1649 68.8279 53.1637 68.8266 53.1637L58.9063 44.0332C55.9897 41.33 51.4244 41.3346 48.5217 44.0355L44.3613 47.8272L40.2395 44.0332C37.3251 41.33 32.7622 41.3358 29.8502 44.0391L25.6944 47.8261L21.5726 44.0332C18.6559 41.33 14.0907 41.3346 11.188 44.0355L1.16388 53.1707C0.431193 53.8532 0.0181605 54.7794 0.000660267 55.7805C-0.0180705 56.7804 0.362286 57.7207 1.06941 58.4277C1.78336 59.1417 2.72031 59.5011 3.65589 59.5011C4.42467 59.5011 5.18661 59.2432 5.83289 58.7568V68.831C5.83289 69.4762 6.35434 69.9977 6.99953 69.9977H13.9996H18.6663H25.6664H31.4999V61.831C31.4999 61.1858 32.0213 60.6643 32.6665 60.6643H37.3332C37.9784 60.6643 38.4998 61.1858 38.4998 61.831V69.9977H44.3333H51.3334H56.0001H63.0002C63.6453 69.9977 64.1668 69.4762 64.1668 68.831V58.7568C64.8166 59.2432 65.5784 59.4988 66.3461 59.4988C67.2829 59.4988 68.2187 59.1395 68.9303 58.4277C69.6385 57.7195 70.0188 56.7768 69.999 55.7759C69.9806 54.7737 69.5652 53.8462 68.8302 53.166ZM4.54019 56.82C4.01642 57.2961 3.21838 57.2773 2.71894 56.778C2.46341 56.5225 2.32573 56.183 2.3327 55.8225C2.33968 55.4609 2.48898 55.126 2.74574 54.888L12.7687 45.7529C13.7814 44.8102 15.08 44.34 16.3807 44.34C17.6781 44.34 18.9767 44.8079 19.9904 45.7482L23.9642 49.4035L21.9342 51.2538L19.5542 49.1142C17.6513 47.3886 15.0963 47.3898 13.2051 49.1129L4.54019 56.82ZM24.4998 67.6644H19.8331V61.831C19.8331 61.1858 19.3116 60.6643 18.6664 60.6643H13.9998C13.3546 60.6643 12.8331 61.1858 12.8331 61.831V67.6644H8.1663V56.8003L14.7662 50.8467C15.1628 50.4861 15.598 50.2761 16.0402 50.2027C16.7075 50.0931 17.3913 50.3031 17.9897 50.8467L18.0293 50.8817L20.1795 52.8522L19.8308 53.1708C19.0981 53.8533 18.685 54.7796 18.6675 55.7807C18.6488 56.7805 19.0292 57.7209 19.7363 58.4278C19.9077 58.5993 20.0933 58.7475 20.287 58.8782C20.3477 58.9191 20.4131 58.947 20.4748 58.9843C20.6125 59.0648 20.7502 59.143 20.8949 59.2048C20.9742 59.2386 21.0559 59.2609 21.1375 59.2888C21.2706 59.3343 21.4024 59.3786 21.5388 59.4089C21.6299 59.4288 21.722 59.4393 21.8142 59.4522C21.9436 59.4709 22.072 59.4848 22.2027 59.4895C22.2424 59.4906 22.282 59.5011 22.3229 59.5011C22.3859 59.5011 22.4477 59.4871 22.5108 59.4836C22.6193 59.4789 22.7266 59.4707 22.8351 59.4545C22.9436 59.4393 23.0509 59.4172 23.1583 59.3914C23.2597 59.367 23.3601 59.3402 23.4604 59.3075C23.5701 59.2713 23.6751 59.2293 23.7813 59.1827C23.877 59.1407 23.9692 59.0964 24.0613 59.0462C24.164 58.9902 24.2631 58.9284 24.3611 58.8607C24.4067 58.8303 24.4556 58.8082 24.4999 58.7755V67.6644H24.4998ZM45.1699 55.3628L38.221 49.114C36.3182 47.3874 33.7608 47.3908 31.872 49.1128L23.2071 56.8199C22.6821 57.2959 21.884 57.2772 21.386 56.7779C21.1304 56.5224 20.9927 56.1829 20.9997 55.8224C21.0067 55.4607 21.156 55.1259 21.4128 54.8879L22.6961 53.7177C22.6961 53.7177 22.6961 53.7166 22.6972 53.7166L23.0858 53.3619L26.4773 50.2714C26.4785 50.2703 26.4785 50.2703 26.4785 50.269L31.4275 45.7599C31.4286 45.7563 31.4322 45.754 31.4345 45.7517C32.4483 44.809 33.7469 44.3388 35.0478 44.3388C36.3451 44.3388 37.6437 44.8077 38.6575 45.747L47.326 53.7259C47.3272 53.7259 47.3272 53.7271 47.3272 53.7282L48.5779 54.8773C48.8427 55.1236 48.9933 55.4584 49.0002 55.82C49.0072 56.1806 48.8695 56.5213 48.6117 56.7779C48.1124 57.2784 47.3154 57.2936 46.7904 56.8199L45.1711 55.3627H45.1699V55.3628ZM61.8337 67.6644H57.167V61.831C57.167 61.1858 56.6455 60.6643 56.0003 60.6643H51.3336C50.6885 60.6643 50.167 61.1858 50.167 61.831V67.6644H45.5003V58.7766C45.5528 58.8152 45.6112 58.842 45.6648 58.877C45.7523 58.9364 45.841 58.9913 45.9332 59.0414C46.0417 59.1021 46.1525 59.1534 46.2657 59.2013C46.3591 59.2398 46.4523 59.2782 46.548 59.3098C46.6646 59.3484 46.7825 59.3763 46.9016 59.402C46.9984 59.4241 47.0953 59.4463 47.1932 59.4591C47.3145 59.4755 47.4359 59.4802 47.5572 59.4836C47.6563 59.4871 47.7532 59.4941 47.8511 59.4895C47.9759 59.4836 48.0984 59.4638 48.2209 59.4452C48.3154 59.4312 48.4099 59.4218 48.5033 59.4009C48.6327 59.3705 48.7576 59.325 48.8847 59.2807C48.9676 59.2516 49.0515 59.2294 49.1333 59.1944C49.2768 59.1314 49.4133 59.0509 49.5497 58.9693C49.6081 58.9343 49.6687 58.9085 49.7247 58.8712C49.9137 58.7428 50.0958 58.5959 50.2637 58.4278C50.5122 58.1793 50.7035 57.8959 50.868 57.5984C51.1725 57.0453 51.3451 56.4282 51.3323 55.7772V55.776C51.3137 54.7738 50.8983 53.8463 50.1598 53.1626L49.8506 52.8767L52.1 50.8467C52.3916 50.5819 52.7043 50.4045 53.0239 50.2949C53.7625 50.0417 54.5452 50.1992 55.2279 50.772C55.2582 50.7965 55.2897 50.8152 55.3189 50.842L61.8337 56.8119V67.6644ZM67.2786 56.778C66.7803 57.2786 65.9812 57.2937 65.4574 56.82L56.8882 49.114C55.9362 48.2506 54.8221 47.8202 53.709 47.8202C52.596 47.8202 51.4853 48.2519 50.5392 49.1129L48.109 51.2748L46.0859 49.4139L50.1028 45.7527C52.1258 43.8709 55.2957 43.8686 57.3245 45.7469L67.2471 54.8797C67.5108 55.1258 67.6601 55.4595 67.6671 55.82C67.6741 56.1807 67.5364 56.5214 67.2786 56.778Z" fill="#666666"/>
<path d="M27.5333 27.9545C29.7628 31.4183 31.9282 35.1494 33.9664 39.0391C34.1682 39.4241 34.5661 39.6645 35.0002 39.6645C35.4341 39.6645 35.8309 39.4241 36.0327 39.0391C38.0709 35.1494 40.2363 31.4183 42.4658 27.9545C43.6733 26.0784 44.8598 24.3039 46.0907 22.5294C48.0216 19.7504 49.0004 16.8804 49.0004 13.9975C49.0004 6.28221 42.7201 0.00304689 35.0002 0.00195312C27.279 0.00304689 21 6.28221 21 13.9975C21 16.8804 21.9777 19.7504 23.9086 22.5294C25.1394 24.3039 26.3258 26.0784 27.5333 27.9545ZM29.6334 15.3975C30.1478 15.0113 30.8794 15.114 31.2655 15.6309L33.7249 18.9093L39.8324 8.73006C40.1637 8.17935 40.8801 7.9986 41.4332 8.32988C41.9862 8.66238 42.1646 9.37866 41.8334 9.9306L34.8415 21.5847V21.5859L34.8333 21.5975C34.7609 21.7188 34.6652 21.8145 34.5615 21.8986C34.5498 21.9079 34.5452 21.922 34.5323 21.9313C34.5161 21.9429 34.4973 21.9464 34.4811 21.9581C34.4111 22.0047 34.3364 22.0432 34.2582 22.0736C34.2268 22.0864 34.1964 22.1016 34.1637 22.1121C34.06 22.1425 33.9526 22.1623 33.8429 22.1634C33.8405 22.1634 33.837 22.1646 33.8346 22.1646H33.8334H33.8322C33.677 22.1646 33.5218 22.1227 33.3725 22.0584C33.3457 22.0468 33.32 22.0374 33.2932 22.0246C33.2734 22.0141 33.2524 22.0095 33.2325 21.9978C33.1124 21.9255 33.0179 21.8287 32.9338 21.726C32.9245 21.7144 32.9093 21.7098 32.9 21.6969L32.8931 21.6887C32.8918 21.6864 32.8907 21.6841 32.8884 21.6828L29.4 17.0301C29.0128 16.5152 29.1178 15.7836 29.6334 15.3975Z" fill="#666666"/>
</svg>
