<svg width="70" height="70" viewBox="0 0 70 70" fill="none" xmlns="http://www.w3.org/2000/svg">
<path fill-rule="evenodd" clip-rule="evenodd" d="M44.4682 24.9985C44.8376 24.9031 45.2297 24.9562 45.5604 25.1465C45.8911 25.3368 46.134 25.6491 46.2371 26.0164C46.7214 27.7501 46.798 29.5722 46.4609 31.3403C46.1238 33.1085 45.3822 34.7746 44.294 36.2084C43.2058 37.6422 41.8007 38.8048 40.1884 39.6052C38.5762 40.4056 36.8006 40.8221 35.0007 40.8221C33.2007 40.8221 31.4251 40.4056 29.8129 39.6052C28.2006 38.8048 26.7955 37.6422 25.7073 36.2084C24.6191 34.7746 23.8775 33.1085 23.5404 31.3403C23.2033 29.5722 23.2799 27.7501 23.7642 26.0164C23.8673 25.6491 24.1102 25.3368 24.4409 25.1465C24.7716 24.9562 25.1637 24.9031 25.5332 24.9985C30.9611 26.3985 39.0402 26.3985 44.4682 24.9985ZM26.309 28.166C26.1696 29.3907 26.2905 30.631 26.6638 31.8057C27.0371 32.9804 27.6543 34.0629 28.4751 34.9825C29.2959 35.902 30.3017 36.6377 31.4267 37.1415C32.5516 37.6453 33.7703 37.9057 35.0028 37.9057C36.2354 37.9057 37.4541 37.6453 38.579 37.1415C39.7039 36.6377 40.7098 35.902 41.5305 34.9825C42.3513 34.0629 42.9686 32.9804 43.3419 31.8057C43.7152 30.631 43.8361 29.3907 43.6967 28.166C38.4219 29.2306 31.5823 29.2306 26.309 28.166Z" fill="#666666"/>
<path fill-rule="evenodd" clip-rule="evenodd" d="M27.7083 41.5479C18.9773 43.0719 8.75 46.9627 8.75 52.5V61.25H61.25V52.5C61.25 46.9627 51.0227 43.0719 42.2917 41.5479V48.125H27.7083V41.5479ZM18.9583 61.25V48.125H21.875V61.25H18.9583ZM49.5833 48.125V61.25H52.5V48.125H49.5833ZM36.4583 8.83458V15.2833C36.4583 15.6701 36.3047 16.041 36.0312 16.3145C35.7577 16.588 35.3868 16.7417 35 16.7417C34.6132 16.7417 34.2423 16.588 33.9688 16.3145C33.6953 16.041 33.5417 15.6701 33.5417 15.2833V8.75C32.036 8.82875 30.5555 9.16926 29.1667 9.75625V18.2C29.1667 18.5868 29.013 18.9577 28.7395 19.2312C28.466 19.5047 28.0951 19.6583 27.7083 19.6583C27.3216 19.6583 26.9506 19.5047 26.6771 19.2312C26.4036 18.9577 26.25 18.5868 26.25 18.2V11.5719C24.2521 13.2898 23.1 15.5181 22.734 17.4708L22.699 17.675L22.6698 17.7042C22.54 18.6215 22.6115 19.3769 22.7981 19.896C22.9177 20.2573 22.8913 20.651 22.7246 20.993C22.558 21.3351 22.2642 21.5985 21.906 21.727C21.5478 21.8554 21.1536 21.8388 20.8075 21.6806C20.4614 21.5225 20.1908 21.2353 20.0535 20.8804L19.9835 20.6763C11.515 31.7333 58.5317 31.7275 50.0019 20.6573L49.9319 20.8702C49.7974 21.2264 49.529 21.5159 49.184 21.6768C48.839 21.8377 48.4447 21.8573 48.0854 21.7315C47.7261 21.6056 47.4303 21.3443 47.2611 21.0032C47.0919 20.6622 47.0628 20.2685 47.18 19.9062C47.39 19.3025 47.4512 18.55 47.3375 17.7188L47.3113 17.6998C46.9963 15.7281 45.7975 13.5479 43.75 11.83V18.2C43.75 18.5868 43.5964 18.9577 43.3229 19.2312C43.0494 19.5047 42.6784 19.6583 42.2917 19.6583C41.9049 19.6583 41.534 19.5047 41.2605 19.2312C40.987 18.9577 40.8333 18.5868 40.8333 18.2V10.0071C40.2638 9.75149 39.6777 9.53467 39.079 9.35812C38.222 9.1085 37.3453 8.93431 36.4583 8.83458Z" fill="#666666"/>
</svg>
