<svg width="70" height="70" viewBox="0 0 70 70" fill="none" xmlns="http://www.w3.org/2000/svg">
<path d="M69.1431 56.2718C68.0027 55.1314 66.1594 55.1314 65.0191 56.2718L60.0405 61.2504H11.6659C11.2868 61.2504 10.9075 61.3291 10.5518 61.475C10.1931 61.6237 9.86933 61.8396 9.60096 62.1079L6.68729 65.0215C5.54695 66.1619 5.54695 68.0052 6.68729 69.1455C7.25602 69.7143 8.00262 70.0001 8.74936 70.0001C9.49596 70.0001 10.2427 69.7143 10.8114 69.1455L12.8735 67.0835H61.2481C61.6272 67.0835 62.0064 67.0076 62.3622 66.8588C62.7209 66.7101 63.0446 66.4972 63.313 66.226L69.1432 60.3958C70.2836 59.2554 70.2836 57.4121 69.1431 56.2718Z" fill="#666666"/>
<path d="M49.5826 43.7508C47.9697 43.7508 46.666 45.0545 46.666 46.6674C46.666 48.2802 47.9697 49.5839 49.5826 49.5839H55.4158C55.7949 49.5839 56.1741 49.508 56.5299 49.3593C56.8886 49.2105 57.2123 48.9977 57.4807 48.7264L60.3944 45.8128C61.5347 44.6724 61.5347 42.8291 60.3944 41.6888C59.2541 40.5484 57.4107 40.5484 56.2704 41.6888L54.2083 43.7508H49.5826Z" fill="#666666"/>
<path d="M5.83334 52.5002C6.57994 52.5002 7.32668 52.2144 7.89542 51.6456L9.95749 49.5836H20.4163C22.0292 49.5836 23.3329 48.2799 23.3329 46.667C23.3329 45.0542 22.0292 43.7505 20.4163 43.7505H8.74988C8.37077 43.7505 7.99153 43.8264 7.63579 43.9751C7.27705 44.1239 6.95331 44.3367 6.68494 44.608L3.77127 47.5216C2.63093 48.662 2.63093 50.5053 3.77127 51.6456C4.34 52.2144 5.08661 52.5002 5.83334 52.5002Z" fill="#666666"/>
<path d="M43.7037 52.5005C42.0908 52.5005 40.7871 53.8042 40.7871 55.417C40.7871 57.0299 42.0908 58.3336 43.7037 58.3336H46.6202C48.233 58.3336 49.5367 57.0299 49.5367 55.417C49.5367 53.8042 48.233 52.5005 46.6202 52.5005H43.7037Z" fill="#666666"/>
<path d="M57.1235 52.5005H55.3677C53.7578 52.5005 52.4512 53.8042 52.4512 55.4171C52.4512 57.0299 53.7578 58.3336 55.3677 58.3336H58.331C59.1069 58.3336 59.8476 58.0274 60.3931 57.479L64.4851 53.387C65.6254 52.2466 65.6254 50.4004 64.4851 49.263C63.3476 48.1226 61.5014 48.1226 60.3611 49.263L57.1235 52.5005Z" fill="#666666"/>
<path d="M20.4165 52.5005H12.1685C10.5557 52.5005 9.25195 53.8042 9.25195 55.417C9.25195 57.0299 10.5557 58.3336 12.1685 58.3336H20.4166C22.0295 58.3336 23.3332 57.0299 23.3332 55.417C23.3332 53.8042 22.0295 52.5005 20.4165 52.5005Z" fill="#666666"/>
<path d="M7.04134 57.1258C5.901 55.9854 4.05767 55.9854 2.91733 57.1258L0.855255 59.1878C-0.285085 60.3282 -0.285085 62.1715 0.855255 63.3118C1.42399 63.8806 2.17059 64.1664 2.91733 64.1664C3.66393 64.1664 4.41067 63.8806 4.9794 63.3118L7.04147 61.2498C8.18168 60.1094 8.18168 58.2662 7.04134 57.1258Z" fill="#666666"/>
<path d="M34.9986 23.3345C36.6085 23.3345 37.9151 22.028 37.9151 20.418C37.9151 18.8081 36.6085 17.5015 34.9986 17.5015C33.3886 17.5015 32.082 18.8081 32.082 20.418C32.082 22.028 33.3886 23.3345 34.9986 23.3345Z" fill="#666666"/>
<path d="M26.7752 44.1444L32.4772 53.9645C32.9993 54.8657 33.9618 55.417 35 55.417C36.0384 55.417 37.0008 54.8657 37.5228 53.9645L43.216 44.1589C45.4647 40.2886 48.1713 36.7625 51.2074 32.8133C53.9607 29.2259 55.4161 24.9385 55.4161 20.4178C55.4161 14.6079 52.9283 9.05471 48.5913 5.18157C44.2573 1.31131 38.4271 -0.543505 32.6142 0.138977C23.5378 1.17145 16.0422 8.48037 14.7852 17.516C13.954 23.5125 15.7739 29.5178 19.7754 33.9947C22.5549 37.1037 24.7832 40.7086 26.7752 44.1444ZM35 11.6682C39.824 11.6682 43.7498 15.5939 43.7498 20.4179C43.7498 25.2419 39.824 29.1677 35 29.1677C30.176 29.1677 26.2503 25.2419 26.2503 20.4179C26.2503 15.5939 30.176 11.6682 35 11.6682Z" fill="#666666"/>
</svg>
