<svg width="70" height="70" viewBox="0 0 70 70" fill="none" xmlns="http://www.w3.org/2000/svg">
<path d="M65.625 65.625H61.25C61.25 62.0069 58.3056 59.0625 54.6875 59.0625H45.9375C42.3194 59.0625 39.375 62.0069 39.375 65.625H35C35 59.5941 39.9066 54.6875 45.9375 54.6875H54.6875C60.7184 54.6875 65.625 59.5941 65.625 65.625ZM32.8125 35C32.2323 35 31.6759 35.2305 31.2657 35.6407C30.8555 36.0509 30.625 36.6073 30.625 37.1875V50.3125H35V37.1875C35 36.6073 34.7695 36.0509 34.3593 35.6407C33.9491 35.2305 33.3927 35 32.8125 35Z" fill="#666666"/>
<path d="M70 26.25H30.625V30.625H39.375V41.5625C39.375 47.5934 44.2816 52.5 50.3125 52.5C56.3434 52.5 61.25 47.5934 61.25 41.5625V30.625H70V26.25ZM50.3125 48.125C46.6944 48.125 43.75 45.1806 43.75 41.5625V39.375H56.875V41.5625C56.875 45.1806 53.9306 48.125 50.3125 48.125ZM56.875 35H43.75V30.625H56.875V35Z" fill="#666666"/>
<path d="M56.4331 21.875C54.4031 11.9022 45.5656 4.37503 35 4.37503C29.9084 4.36682 24.974 6.13856 21.0505 9.38375C17.127 12.6289 14.4613 17.1435 13.5144 22.1463C5.80781 23.5244 0 30.2947 0 38.2813C0 47.3288 7.36094 54.6875 16.4062 54.6875H26.25V50.3125H16.4062C13.2164 50.3091 10.1583 49.0404 7.90271 46.7848C5.64716 44.5293 4.37847 41.4711 4.375 38.2813C4.38406 35.2373 5.5445 32.3095 7.62325 30.0859C9.70201 27.8623 12.5451 26.5076 15.5816 26.2938L17.4103 26.1691L17.6072 24.3469C18.0667 20.0575 20.0982 16.0902 23.3099 13.2101C26.5216 10.33 30.6861 8.74116 35 8.75003C43.1375 8.75003 49.9734 14.3391 51.9247 21.875H56.4331Z" fill="#666666"/>
</svg>
