<svg width="70" height="70" viewBox="0 0 70 70" fill="none" xmlns="http://www.w3.org/2000/svg">
<path d="M35.0004 30.5665V17.704C35.0004 17.5585 34.9717 17.4144 34.916 17.2799C34.8603 17.1454 34.7787 17.0232 34.6758 16.9203C34.5729 16.8174 34.4507 16.7358 34.3162 16.6801C34.1817 16.6244 34.0376 16.5957 33.8921 16.5957H29.5171C29.3729 16.5957 29.2301 16.6245 29.0972 16.6805C28.9644 16.7366 28.8441 16.8187 28.7435 16.922C28.6429 17.0253 28.564 17.1478 28.5115 17.2821C28.459 17.4164 28.434 17.5599 28.4379 17.704V23.9165L31.3546 30.5665H35.0004Z" fill="#666666"/>
<path d="M25.8132 51.0709C24.7262 51.0651 23.6621 51.3825 22.7559 51.9828C21.8497 52.5831 21.1424 53.4392 20.7238 54.4423C20.3051 55.4454 20.1941 56.5504 20.4047 57.6167C20.6154 58.6831 21.1382 59.6628 21.9068 60.4314C22.6754 61.2 23.6551 61.7229 24.7215 61.9335C25.7879 62.1442 26.8928 62.0331 27.8959 61.6145C28.8991 61.1958 29.7551 60.4885 30.3554 59.5823C30.9557 58.6761 31.2731 57.612 31.2674 56.525C31.2597 55.0809 30.6826 53.698 29.6614 52.6768C28.6402 51.6556 27.2574 51.0785 25.8132 51.0709ZM52.8799 51.0709C51.7929 51.0651 50.7288 51.3825 49.8226 51.9828C48.9164 52.5831 48.2091 53.4392 47.7904 54.4423C47.3718 55.4454 47.2608 56.5504 47.4714 57.6167C47.682 58.6831 48.2049 59.6628 48.9735 60.4314C49.7421 61.2 50.7218 61.7229 51.7882 61.9335C52.8545 62.1442 53.9595 62.0331 54.9626 61.6145C55.9657 61.1958 56.8218 60.4885 57.4221 59.5823C58.0224 58.6761 58.3398 57.612 58.334 56.525C58.334 55.0785 57.7594 53.6912 56.7366 52.6684C55.7137 51.6455 54.3264 51.0709 52.8799 51.0709ZM43.5174 14.7875C43.5174 14.4936 43.4006 14.2117 43.1927 14.0038C42.9849 13.796 42.703 13.6792 42.409 13.6792H37.9174C37.7732 13.6791 37.6304 13.708 37.4975 13.764C37.3647 13.8201 37.2444 13.9022 37.1438 14.0055C37.0432 14.1088 36.9643 14.2313 36.9118 14.3656C36.8593 14.4999 36.8343 14.6434 36.8382 14.7875V30.5667H43.4007L43.5174 14.7875Z" fill="#666666"/>
<path d="M30.0122 37.1292L26.8039 43.75H58.3331C58.9132 43.75 59.4696 43.9805 59.8799 44.3907C60.2901 44.801 60.5206 45.3574 60.5206 45.9375C60.5206 46.5177 60.2901 47.0741 59.8799 47.4843C59.4696 47.8946 58.9132 48.125 58.3331 48.125H26.8039C26.0637 48.1283 25.3349 47.9425 24.6867 47.5852C24.0384 47.2279 23.4922 46.711 23.0997 46.0834C22.698 45.459 22.4653 44.741 22.4244 43.9996C22.3835 43.2583 22.5358 42.519 22.8664 41.8542L26.2497 35L15.8664 12.3667H9.56641C8.98625 12.3667 8.42985 12.1362 8.01961 11.726C7.60937 11.3158 7.37891 10.7594 7.37891 10.1792C7.37891 9.59904 7.60937 9.04264 8.01961 8.6324C8.42985 8.22217 8.98625 7.9917 9.56641 7.9917H17.2956C17.7143 7.99334 18.1238 8.11514 18.4754 8.34262C18.8269 8.57011 19.1058 8.89373 19.2789 9.27503L30.0414 32.7542H49.0872L58.5372 15.925C58.6736 15.6678 58.8599 15.4403 59.0853 15.256C59.3106 15.0717 59.5705 14.9342 59.8497 14.8516C60.1289 14.7691 60.4218 14.7431 60.7112 14.7752C61.0005 14.8072 61.2806 14.8968 61.5349 15.0385C61.7893 15.1802 62.0127 15.3713 62.1922 15.6005C62.3718 15.8297 62.5037 16.0924 62.5804 16.3733C62.6571 16.6542 62.6769 16.9475 62.6387 17.2362C62.6005 17.5248 62.5051 17.8029 62.3581 18.0542L52.8789 35C52.5045 35.6784 51.9555 36.2443 51.2889 36.6392C50.6222 37.0341 49.8621 37.2435 49.0872 37.2459L30.0122 37.1292ZM52.0622 22.9834V9.15837C52.0623 9.01416 52.0334 8.87141 51.9774 8.73854C51.9213 8.60567 51.8392 8.48538 51.7359 8.38478C51.6326 8.28418 51.5102 8.20531 51.3759 8.15282C51.2415 8.10033 51.0981 8.0753 50.9539 8.0792H46.6664C46.5236 8.07517 46.3815 8.10034 46.2487 8.15314C46.116 8.20595 45.9954 8.2853 45.8944 8.38632C45.7933 8.48734 45.714 8.60792 45.6612 8.74067C45.6084 8.87342 45.5832 9.01555 45.5872 9.15837V30.5667H47.8914L52.0622 22.9834Z" fill="#666666"/>
</svg>
