<svg width="28" height="32" viewBox="0 0 28 32" fill="none" xmlns="http://www.w3.org/2000/svg">
<path fill-rule="evenodd" clip-rule="evenodd" d="M14.0005 0.786621C14.6143 0.786621 15.1119 1.2842 15.1119 1.89799V5.23211C15.1119 5.8459 14.6143 6.34348 14.0005 6.34348C13.3867 6.34348 12.8892 5.8459 12.8892 5.23211V1.89799C12.8892 1.2842 13.3867 0.786621 14.0005 0.786621ZM4.57022 4.69278C5.00424 4.25876 5.70792 4.25876 6.14194 4.69278L8.49952 7.05036C8.93353 7.48438 8.93353 8.18806 8.49952 8.62208C8.0655 9.05609 7.36182 9.05609 6.9278 8.62208L4.57022 6.2645C4.13621 5.83048 4.13621 5.1268 4.57022 4.69278ZM23.4308 4.69278C23.8649 5.1268 23.8649 5.83048 23.4308 6.2645L21.0733 8.62208C20.6392 9.05609 19.9356 9.05609 19.5015 8.62208C19.0675 8.18806 19.0675 7.48438 19.5015 7.05036L21.8591 4.69278C22.2931 4.25876 22.9968 4.25876 23.4308 4.69278ZM13.3313 11.3547C13.7934 11.2309 14.2828 11.4167 14.5464 11.8159L22.2922 23.5473C22.5398 23.9224 22.5372 24.4098 22.2854 24.7822C22.0336 25.1546 21.5823 25.3386 21.1419 25.2485L18.0341 24.6126L19.5822 30.3902C19.7411 30.983 19.3892 31.5924 18.7964 31.7513C18.2035 31.9102 17.5941 31.5583 17.4352 30.9654L15.8871 25.1879L13.5141 27.2924C13.1777 27.5906 12.6949 27.6569 12.2906 27.4603C11.8864 27.2637 11.6404 26.843 11.6673 26.3942L12.5096 12.3616C12.5382 11.8841 12.8693 11.4785 13.3313 11.3547ZM0.664062 14.1231C0.664062 13.5093 1.16164 13.0117 1.77543 13.0117H5.10955C5.72334 13.0117 6.22092 13.5093 6.22092 14.1231C6.22092 14.7369 5.72334 15.2345 5.10955 15.2345H1.77543C1.16164 15.2345 0.664062 14.7369 0.664062 14.1231ZM21.7801 14.1231C21.7801 13.5093 22.2777 13.0117 22.8915 13.0117H26.2256C26.8394 13.0117 27.337 13.5093 27.337 14.1231C27.337 14.7369 26.8394 15.2345 26.2256 15.2345H22.8915C22.2777 15.2345 21.7801 14.7369 21.7801 14.1231ZM8.49952 19.6241C8.93353 20.0581 8.93353 20.7618 8.49952 21.1958L6.14194 23.5534C5.70792 23.9874 5.00424 23.9874 4.57022 23.5534C4.1362 23.1194 4.1362 22.4157 4.57022 21.9817L6.9278 19.6241C7.36182 19.1901 8.0655 19.1901 8.49952 19.6241Z" fill="white"/>
</svg>
