<svg width="32" height="30" viewBox="0 0 32 30" fill="none" xmlns="http://www.w3.org/2000/svg">
<g clip-path="url(#clip0_6015_2672)">
<path d="M22.9117 13.7728C22.9117 17.9635 22.9117 22.1444 22.9117 26.3351C22.9117 27.0141 22.8632 27.1499 22.2035 27.2663C21.4954 27.3924 20.7678 27.4409 20.05 27.4603C19.468 27.4797 19.3127 27.2663 19.3127 26.694C19.3127 23.8032 19.3127 20.9027 19.3127 18.012C19.3127 17.1292 19.0799 16.8964 18.1972 16.8867C16.907 16.8867 15.6071 16.8867 14.317 16.8867C13.6282 16.8867 13.3566 17.168 13.3469 17.8665C13.3372 18.6619 13.3372 19.4476 13.3469 20.2431C13.3566 20.699 13.1529 20.893 12.7067 20.8833C11.9791 20.8736 11.2516 20.8833 10.524 20.8833C9.84499 20.8833 9.73828 20.7863 9.73828 20.0976C9.73828 14.0056 9.73828 7.91366 9.73828 1.812C9.73828 1.52099 9.73828 1.22997 9.73828 0.938952C9.73828 0.541228 9.94199 0.327816 10.33 0.327816C11.1352 0.318115 11.95 0.318115 12.7552 0.327816C13.1432 0.327816 13.3469 0.531528 13.3469 0.929251C13.3469 1.49188 13.3372 2.06422 13.3469 2.62685C13.3566 3.25739 13.6379 3.55811 14.2587 3.56781C15.6362 3.57751 17.004 3.57751 18.3815 3.56781C19.0314 3.55811 19.303 3.26709 19.3127 2.59775C19.3224 2.04482 19.3224 1.50159 19.3127 0.948653C19.303 0.512127 19.5165 0.327816 19.9336 0.318115C20.6805 0.318115 21.4178 0.318115 22.1647 0.318115C22.7565 0.318115 22.9117 0.473324 22.9117 1.06506C22.9117 2.84026 22.9117 4.62517 22.9117 6.40037C22.9117 8.85462 22.9117 11.3186 22.9117 13.7728ZM16.3347 6.7981C15.6265 6.7981 14.9087 6.7981 14.2005 6.7981C13.0947 6.8078 12.3477 7.53534 12.338 8.64121C12.3283 9.67917 12.3283 10.7074 12.338 11.7454C12.3477 12.8804 13.0171 13.6079 14.152 13.6467C15.5877 13.6855 17.0331 13.6855 18.4688 13.6467C19.6329 13.6176 20.3022 12.8901 20.3119 11.726C20.3216 10.6783 20.3216 9.62097 20.3119 8.5733C20.2925 7.55474 19.5359 6.8078 18.527 6.7981C17.7898 6.7981 17.0622 6.7981 16.3347 6.7981Z" fill="white"/>
<path d="M9.55407 21.9407C12.1926 21.9407 14.8215 21.9407 17.46 21.9407C18.1391 21.9407 18.2652 22.0668 18.2652 22.7264C18.2652 23.4734 18.2652 24.2106 18.2652 24.9576C18.2652 25.5202 18.1003 25.7045 17.557 25.7045C12.212 25.7045 6.85731 25.7045 1.51229 25.7045C0.988461 25.7045 0.813851 25.5202 0.80415 25.0061C0.79445 24.2106 0.79445 23.4249 0.80415 22.6294C0.80415 22.1056 0.96906 21.9504 1.51229 21.9504C4.18965 21.9407 6.86701 21.9407 9.55407 21.9407Z" fill="white"/>
<path d="M2.02561 8.14641C1.79279 8.17551 1.63758 8.18521 1.48238 8.21431C1.11375 8.27252 0.861539 8.13671 0.813036 7.76809C0.764533 7.41887 0.997347 7.26366 1.32717 7.18605C2.37483 6.92414 3.43219 6.69132 4.45075 6.3518C5.64392 5.93468 6.71098 5.25564 7.67134 4.42139C7.96236 4.16918 8.27278 4.01397 8.55409 4.36319C8.82571 4.69301 8.6414 4.99372 8.33098 5.22654C8.00116 5.47875 7.68104 5.76977 7.32212 5.98318C6.9923 6.17719 6.9147 6.41001 6.9147 6.76893C6.9244 11.1633 6.9244 15.5576 6.9244 19.9617C6.9244 20.1363 6.9729 20.3497 6.8953 20.4855C6.79829 20.6504 6.59458 20.8542 6.42967 20.8542C6.26476 20.8542 6.05135 20.6699 5.94464 20.5049C5.86703 20.3788 5.90584 20.1557 5.90584 19.9811C5.90584 15.8293 5.90584 11.6774 5.90584 7.51587C5.90584 7.32186 5.90584 7.13755 5.90584 6.90474C5.17829 7.17635 4.50895 7.44797 3.82991 7.68078C3.05387 7.9524 3.04417 7.933 3.04417 8.73815C3.04417 12.4244 3.04417 16.1106 3.04417 19.7968C3.04417 19.9132 3.04417 20.0199 3.04417 20.1363C3.04417 20.5146 3.03447 20.893 2.51064 20.8736C2.03531 20.8639 2.01591 20.5049 2.01591 20.146C2.01591 16.7314 2.01591 13.3265 2.01591 9.91191C2.02561 9.34928 2.02561 8.77695 2.02561 8.14641Z" fill="white"/>
<path d="M30.6048 8.13677C30.6048 8.39869 30.6048 8.5927 30.6048 8.77701C30.6048 12.4923 30.6048 16.2076 30.6048 19.9327C30.6048 20.0782 30.6048 20.2237 30.5951 20.3692C30.5757 20.699 30.4108 20.8833 30.0713 20.8736C29.7512 20.8736 29.6057 20.6893 29.5863 20.3886C29.5766 20.2237 29.5766 20.0685 29.5766 19.9036C29.5766 16.0718 29.5669 12.2401 29.5863 8.40839C29.5863 8.01066 29.4699 7.86516 29.0915 7.74875C28.3058 7.51593 27.5492 7.20552 26.7149 6.9048C26.7149 7.11821 26.7149 7.30252 26.7149 7.48683C26.7149 11.629 26.7149 15.7614 26.7149 19.9036C26.7149 20.0685 26.7246 20.2237 26.7052 20.3886C26.6858 20.6893 26.5209 20.8639 26.2105 20.8736C25.9001 20.8833 25.7254 20.7184 25.706 20.408C25.6963 20.2431 25.6963 20.0879 25.6963 19.923C25.6963 15.5286 25.6963 11.1342 25.706 6.73019C25.706 6.38097 25.6187 6.16756 25.318 5.98324C24.9203 5.73103 24.5614 5.43031 24.2025 5.12959C23.9211 4.90648 23.8532 4.60576 24.0958 4.32445C24.3286 4.06253 24.6099 4.12073 24.8718 4.33415C26.6858 5.88624 28.8005 6.77869 31.1481 7.13761C31.2451 7.15701 31.3809 7.13761 31.4294 7.19582C31.5749 7.38013 31.8174 7.60324 31.7883 7.77785C31.7592 7.95246 31.4682 8.11737 31.2548 8.19497C31.0996 8.26288 30.8862 8.17557 30.6048 8.13677Z" fill="white"/>
<path d="M29.1405 29.6817C28.2383 29.4877 27.2974 29.2839 26.3564 29.0802C25.2312 28.828 24.1156 28.8668 23.0097 29.2063C21.5255 29.6623 20.022 29.7496 18.5281 29.2742C17.0633 28.8086 15.6179 28.8086 14.1531 29.2645C12.7756 29.7011 11.3787 29.7302 10.0013 29.2936C8.44917 28.7989 6.92618 28.8474 5.38379 29.3227C4.03541 29.7399 2.67733 29.6623 1.32895 29.2742C0.999128 29.1772 0.756613 28.9929 0.853619 28.6146C0.950625 28.2266 1.26104 28.1684 1.58116 28.2654C2.99745 28.6825 4.37493 28.5758 5.77181 28.149C7.19779 27.7222 8.63348 27.7901 10.0595 28.2363C11.3787 28.6534 12.7077 28.6437 14.0173 28.2266C15.5791 27.7319 17.1215 27.7416 18.6833 28.2363C19.9152 28.634 21.1666 28.6728 22.4083 28.2848C24.0962 27.7513 25.7647 27.761 27.4526 28.2945C28.5876 28.6534 29.7419 28.6243 30.8963 28.3236C31.003 28.2945 31.1388 28.2169 31.2261 28.2557C31.4395 28.343 31.7305 28.44 31.8082 28.6146C31.944 28.8959 31.7499 29.1675 31.4492 29.2354C30.7023 29.3907 29.9553 29.5168 29.1405 29.6817Z" fill="white"/>
<path d="M27.8589 21.9407C28.9551 21.9407 30.061 21.9407 31.1571 21.9407C31.6616 21.9407 31.8362 22.1056 31.8362 22.6004C31.8459 23.4055 31.8459 24.2204 31.8362 25.0255C31.8265 25.5105 31.6519 25.6948 31.1571 25.6948C28.9745 25.7046 26.7919 25.6948 24.6092 25.6948C24.1824 25.6948 23.9593 25.4911 23.9593 25.0352C23.969 24.2107 23.969 23.3861 23.9593 22.5616C23.9496 22.1056 24.163 21.9213 24.6092 21.931C25.6957 21.9504 26.7822 21.9407 27.8589 21.9407Z" fill="white"/>
<path d="M11.5523 26.7036C12.0179 26.7036 12.4835 26.6842 12.9492 26.7133C13.0753 26.723 13.2693 26.8588 13.3081 26.9752C13.3954 27.1983 13.279 27.3535 13.0074 27.4117C11.95 27.6155 10.9315 27.4602 9.92259 27.1207C9.84499 27.0916 9.79648 26.9655 9.73828 26.8782C9.83529 26.82 9.94199 26.7133 10.039 26.7133C10.5531 26.6939 11.0479 26.7036 11.5523 26.7036Z" fill="white"/>
</g>
<defs>
<clipPath id="clip0_6015_2672">
<rect width="31.0515" height="29.3636" fill="white" transform="translate(0.794922 0.318115)"/>
</clipPath>
</defs>
</svg>
