<svg width="152" height="217" viewBox="0 0 152 217" fill="none" xmlns="http://www.w3.org/2000/svg">
<rect width="152" height="217" rx="6" fill="white"/>
<g clip-path="url(#clip0_6002_2242)">
<path d="M73.3652 89.875C74.4486 89.875 77.9794 92.4829 77.9794 95.0508C77.9794 97.6189 74.4486 97.057 73.3652 97.057V89.875Z" fill="white"/>
<path opacity="0.2" d="M73.3652 89.875V97.057C73.8109 97.057 74.671 97.1516 75.5289 97.0846V91.0156C74.6712 90.3171 73.8109 89.875 73.3652 89.875Z" fill="white"/>
<path d="M54.8934 89.875C53.8101 89.875 50.2793 92.4829 50.2793 95.0508C50.2793 97.6189 53.8101 97.057 54.8934 97.057V89.875Z" fill="white"/>
<path opacity="0.2" d="M54.8942 89.875V97.057C54.4485 97.057 53.5882 97.1516 52.7305 97.0846V91.0156C53.5884 90.3171 54.4485 89.875 54.8942 89.875Z" fill="white"/>
<path d="M106.904 58.6088C106.904 57.8128 106.253 57.1616 105.457 57.1616H46.494C45.6981 57.1616 45.0469 57.8128 45.0469 58.6088V71.3317C45.0469 72.1277 45.6981 72.7789 46.494 72.7789H105.457C106.253 72.7789 106.904 72.1277 106.904 71.3317V58.6088Z" fill="white"/>
<path d="M74.1012 115.576V88.2283C74.1012 87.3455 73.3789 86.623 72.4962 86.623H55.763C54.8802 86.623 54.1582 87.3455 54.1582 88.2283V115.577H74.1012V115.576Z" fill="white"/>
<path d="M74.1011 103.108H54.1582V115.577H74.1011V103.108Z" fill="white"/>
<path d="M60.3018 109.924H57.9863V115.577H60.3018V109.924Z" fill="white"/>
<path d="M70.2745 109.924H67.959V115.577H70.2745V109.924Z" fill="white"/>
<path d="M70.0966 91.3389H58.1621V95.6604H70.0966V91.3389Z" fill="white"/>
<path d="M100.312 72.6636H88.1562V115.577H100.312V72.6636Z" fill="white"/>
<path opacity="0.1" d="M100.312 72.6636H88.1562V77.1743H100.312V72.6636Z" fill="white"/>
<path opacity="0.1" d="M100.312 95.9146H88.1562V99.3642H100.312V95.9146Z" fill="white"/>
<path d="M103.062 115.577V99.1713C103.062 98.3753 102.41 97.7241 101.614 97.7241H86.8534C86.0574 97.7241 85.4062 98.3753 85.4062 99.1713V115.577H103.062Z" fill="white"/>
<path d="M65.6733 57.1621H57.8645L49.1055 72.7792H56.9142L65.6733 57.1621Z" fill="#666666"/>
<path d="M73.4818 57.1621H65.6732L56.9141 72.7792H64.7229L73.4818 57.1621Z" fill="#666666"/>
<path d="M64.1298 100.013H54.1582V106.928H64.1298V100.013Z" fill="white"/>
<path d="M74.1006 100.013H64.1289V106.928H74.1006V100.013Z" fill="white"/>
<path d="M94.0179 69.0685C95.605 69.0685 96.8915 67.7818 96.8915 66.1949C96.8915 64.608 94.0179 61.1777 94.0179 61.1777C94.0179 61.1777 91.1445 64.6079 91.1445 66.1949C91.1445 67.7819 92.4308 69.0685 94.0179 69.0685Z" fill="#666666"/>
<path d="M109.915 118.253C109.915 118.575 109.652 118.838 109.331 118.838H42.6704C42.3488 118.838 42.0859 118.575 42.0859 118.253V116.161C42.0859 115.84 42.3488 115.577 42.6704 115.577H109.331C109.652 115.577 109.915 115.84 109.915 116.161V118.253H109.915Z" fill="white"/>
<path d="M61.0581 104.055H57.2299C56.6304 104.055 56.1445 103.569 56.1445 102.97C56.1445 102.37 56.6303 101.884 57.2299 101.884H61.0581C61.6576 101.884 62.1435 102.37 62.1435 102.97C62.1435 103.569 61.6576 104.055 61.0581 104.055Z" fill="white"/>
<path d="M71.0307 104.055H67.2026C66.6031 104.055 66.1172 103.569 66.1172 102.97C66.1172 102.37 66.6029 101.884 67.2026 101.884H71.0307C71.6302 101.884 72.1161 102.37 72.1161 102.97C72.1161 103.569 71.6301 104.055 71.0307 104.055Z" fill="white"/>
<path d="M94.2337 102.715C94.7931 102.715 95.2466 102.261 95.2466 101.702C95.2466 101.142 94.7931 100.689 94.2337 100.689C93.6742 100.689 93.2207 101.142 93.2207 101.702C93.2207 102.261 93.6742 102.715 94.2337 102.715Z" fill="white"/>
<path d="M89.2415 102.715C89.8009 102.715 90.2544 102.261 90.2544 101.702C90.2544 101.142 89.8009 100.689 89.2415 100.689C88.682 100.689 88.2285 101.142 88.2285 101.702C88.2285 102.261 88.682 102.715 89.2415 102.715Z" fill="white"/>
<path d="M99.2258 102.715C99.7853 102.715 100.239 102.261 100.239 101.702C100.239 101.142 99.7853 100.689 99.2258 100.689C98.6664 100.689 98.2129 101.142 98.2129 101.702C98.2129 102.261 98.6664 102.715 99.2258 102.715Z" fill="white"/>
<path d="M109.33 114.491H104.147V99.1712C104.147 97.7749 103.011 96.6388 101.615 96.6388H101.397V73.8646H105.457C106.853 73.8646 107.989 72.7285 107.989 71.3321V58.6091C107.989 57.2128 106.853 56.0767 105.457 56.0767H46.494C45.0977 56.0767 43.9616 57.2128 43.9616 58.6091V71.332C43.9616 72.7283 45.0977 73.8645 46.494 73.8645H87.0707V96.6387H86.8534C85.4571 96.6387 84.321 97.7748 84.321 99.1711V114.491H75.1871V106.738C76.0008 106.394 76.6861 105.802 77.1977 104.992C77.8657 103.935 78.2524 102.478 78.3162 100.779C78.3583 99.6551 78.2582 98.4618 78.0355 97.3411C78.0938 97.2941 78.1507 97.2446 78.2055 97.1924C78.7683 96.6562 79.0658 95.9158 79.0658 95.0511C79.0658 93.5109 78.158 92.163 77.3963 91.3035C76.7569 90.5816 75.953 89.91 75.1872 89.444V88.2284C75.1872 86.7449 73.9803 85.5379 72.4969 85.5379H55.7633C54.28 85.5379 53.0731 86.7449 53.0731 88.2284V89.444C52.3075 89.9102 51.5037 90.5817 50.8641 91.3035C50.1025 92.163 49.1946 93.5109 49.1946 95.0511C49.1946 95.9158 49.4921 96.6563 50.0549 97.1924C50.1097 97.2446 50.1664 97.2941 50.225 97.3411C50.0022 98.4618 49.9022 99.6551 49.9443 100.779C50.008 102.478 50.3946 103.935 51.0628 104.992C51.5744 105.802 52.2596 106.394 53.0732 106.738V114.491H42.6699C41.7492 114.491 41 115.241 41 116.162V118.254C41 119.174 41.7492 119.924 42.6699 119.924H109.33C110.251 119.924 111 119.174 111 118.254V116.162C111 115.241 110.251 114.491 109.33 114.491ZM75.1869 92.1555C76.099 92.9936 76.8947 94.1058 76.8947 95.0512C76.8947 95.3982 76.7949 95.5381 76.7079 95.6208C76.4144 95.9006 75.773 95.9924 75.1869 96.0158V92.1555ZM75.1869 98.1919C75.4386 98.1843 75.704 98.1662 75.9744 98.1305C76.3071 100.129 76.2107 102.49 75.3625 103.833C75.3067 103.921 75.2478 104.001 75.1868 104.078V98.1918L75.1869 98.1919ZM46.494 71.6939C46.298 71.6939 46.1323 71.5282 46.1323 71.3321V58.6091C46.1323 58.413 46.298 58.2473 46.494 58.2473H105.457C105.653 58.2473 105.818 58.413 105.818 58.6091V71.332C105.818 71.5282 105.653 71.6938 105.457 71.6938L46.494 71.6939ZM99.2265 73.8646V96.6388H89.2412V73.8646H99.2265ZM86.4915 99.1712C86.4915 98.9752 86.6572 98.8095 86.8533 98.8095H101.614C101.81 98.8095 101.976 98.9752 101.976 99.1712V114.491H86.4915V99.1712ZM55.2439 88.2285C55.2439 87.9468 55.4818 87.7087 55.7634 87.7087H72.4967C72.7784 87.7087 73.0164 87.9468 73.0164 88.2285V98.928H55.2439V88.2285ZM73.0163 101.099V105.843H65.2154V101.099H73.0163ZM55.2439 101.099H63.0447V105.843H55.2439V101.099ZM55.2439 108.013H73.0164V114.491H55.2439V108.013ZM51.5524 95.6208C51.4654 95.5381 51.3656 95.3982 51.3656 95.0512C51.3656 94.1058 52.1612 92.9937 53.0732 92.1555V96.0159C52.4872 95.9924 51.8458 95.9005 51.5524 95.6208ZM52.8975 103.833C52.0493 102.49 51.9529 100.129 52.2856 98.1307C52.5559 98.1662 52.8212 98.1844 53.0729 98.1921V104.079C53.0124 104.001 52.9533 103.921 52.8975 103.833ZM108.829 117.753H43.1707V116.662H108.829V117.753ZM94.0172 60.0922C93.6961 60.0922 93.3914 60.2343 93.1853 60.4806C92.4518 61.3563 90.0585 64.3561 90.0585 66.1948C90.0585 68.3778 91.8345 70.1538 94.0173 70.1538C96.2002 70.1538 97.9763 68.3778 97.9763 66.1948C97.9763 64.3561 95.583 61.3563 94.8496 60.4806C94.6431 60.2343 94.3384 60.0922 94.0172 60.0922ZM94.0172 67.9829C93.0313 67.9829 92.2292 67.1807 92.2292 66.1947C92.2292 65.7293 92.9207 64.4106 94.0172 62.9304C95.1137 64.4106 95.8055 65.7293 95.8055 66.1947C95.8054 67.1807 95.0032 67.9829 94.0172 67.9829Z" fill="#666666"/>
</g>
<path d="M47.0686 157.288C46.0233 157.288 45.122 157.101 44.3646 156.728C43.6073 156.355 42.9833 155.864 42.4926 155.256C42.002 154.648 41.634 153.997 41.3886 153.304C41.154 152.611 41.0366 151.944 41.0366 151.304V150.952C41.0366 150.259 41.1593 149.56 41.4046 148.856C41.65 148.152 42.0233 147.512 42.5246 146.936C43.026 146.349 43.65 145.88 44.3966 145.528C45.154 145.176 46.0446 145 47.0686 145C48.0926 145 48.978 145.176 49.7246 145.528C50.482 145.88 51.1113 146.349 51.6126 146.936C52.114 147.512 52.4873 148.152 52.7326 148.856C52.978 149.56 53.1006 150.259 53.1006 150.952V151.304C53.1006 151.944 52.978 152.611 52.7326 153.304C52.498 153.997 52.1353 154.648 51.6446 155.256C51.154 155.864 50.53 156.355 49.7726 156.728C49.0153 157.101 48.114 157.288 47.0686 157.288ZM47.0686 155.848C47.7513 155.848 48.3646 155.72 48.9086 155.464C49.4633 155.208 49.9326 154.861 50.3166 154.424C50.7006 153.976 50.994 153.475 51.1966 152.92C51.3993 152.355 51.5006 151.763 51.5006 151.144C51.5006 150.493 51.3993 149.885 51.1966 149.32C50.994 148.755 50.7006 148.259 50.3166 147.832C49.9326 147.395 49.4633 147.053 48.9086 146.808C48.3646 146.563 47.7513 146.44 47.0686 146.44C46.386 146.44 45.7673 146.563 45.2126 146.808C44.6686 147.053 44.2046 147.395 43.8206 147.832C43.4366 148.259 43.1433 148.755 42.9406 149.32C42.738 149.885 42.6366 150.493 42.6366 151.144C42.6366 151.763 42.738 152.355 42.9406 152.92C43.1433 153.475 43.4366 153.976 43.8206 154.424C44.2046 154.861 44.6686 155.208 45.2126 155.464C45.7673 155.72 46.386 155.848 47.0686 155.848ZM55.8724 157V148.456H57.4084V157H55.8724ZM54.5604 149.672V148.456H57.4084V149.672H54.5604ZM56.3044 147.08C55.963 147.08 55.707 146.989 55.5364 146.808C55.3764 146.627 55.2964 146.397 55.2964 146.12C55.2964 145.843 55.3764 145.613 55.5364 145.432C55.707 145.251 55.963 145.16 56.3044 145.16C56.6457 145.16 56.8964 145.251 57.0564 145.432C57.227 145.613 57.3124 145.843 57.3124 146.12C57.3124 146.397 57.227 146.627 57.0564 146.808C56.8964 146.989 56.6457 147.08 56.3044 147.08ZM60.4743 157V145.32H62.0103V157H60.4743ZM59.2903 146.536V145.32H62.0103V146.536H59.2903ZM75.717 157L70.901 151.864C70.4103 151.331 70.0263 150.872 69.749 150.488C69.4823 150.104 69.2903 149.741 69.173 149.4C69.0663 149.059 69.013 148.691 69.013 148.296C69.013 147.603 69.141 147.027 69.397 146.568C69.6637 146.109 70.0797 145.768 70.645 145.544C71.2103 145.309 71.941 145.192 72.837 145.192C73.189 145.192 73.5837 145.208 74.021 145.24C74.4583 145.272 74.8477 145.309 75.189 145.352V146.696C74.9757 146.675 74.6983 146.653 74.357 146.632C74.0157 146.6 73.6797 146.579 73.349 146.568C73.0183 146.547 72.7463 146.536 72.533 146.536C71.7757 146.536 71.2423 146.691 70.933 147C70.6343 147.299 70.485 147.741 70.485 148.328C70.485 148.797 70.5917 149.229 70.805 149.624C71.029 150.019 71.3757 150.467 71.845 150.968L77.525 157H75.717ZM71.749 157.288C70.9277 157.288 70.2077 157.133 69.589 156.824C68.9703 156.515 68.4903 156.093 68.149 155.56C67.8077 155.027 67.637 154.435 67.637 153.784V153.544C67.637 152.776 67.8503 152.099 68.277 151.512C68.7143 150.915 69.253 150.435 69.893 150.072L70.693 151.144C70.2237 151.379 69.8397 151.725 69.541 152.184C69.253 152.632 69.109 153.128 69.109 153.672C69.109 154.173 69.2263 154.595 69.461 154.936C69.7063 155.277 70.0263 155.539 70.421 155.72C70.8263 155.891 71.269 155.976 71.749 155.976C72.4957 155.976 73.141 155.768 73.685 155.352C74.229 154.925 74.645 154.301 74.933 153.48C75.2317 152.648 75.381 151.619 75.381 150.392H76.757C76.757 151.459 76.645 152.419 76.421 153.272C76.2077 154.115 75.8877 154.835 75.461 155.432C75.0343 156.029 74.5063 156.488 73.877 156.808C73.2583 157.128 72.549 157.288 71.749 157.288ZM73.525 150.6V149.384H77.717V150.6H73.525ZM88.6933 157.288C87.7866 157.288 86.9653 157.139 86.2293 156.84C85.4933 156.541 84.8586 156.12 84.3253 155.576C83.8026 155.032 83.3973 154.392 83.1093 153.656C82.8213 152.909 82.6773 152.099 82.6773 151.224V150.872C82.6773 150.125 82.8053 149.405 83.0613 148.712C83.3279 148.008 83.7066 147.379 84.1973 146.824C84.6986 146.259 85.3066 145.816 86.0213 145.496C86.7359 145.165 87.5413 145 88.4373 145C89.4079 145 90.2719 145.187 91.0293 145.56C91.7866 145.923 92.3946 146.435 92.8533 147.096C93.3119 147.747 93.5786 148.504 93.6533 149.368H92.0533C91.9786 148.717 91.7653 148.179 91.4133 147.752C91.0613 147.315 90.6239 146.989 90.1013 146.776C89.5893 146.552 89.0346 146.44 88.4373 146.44C87.8293 146.44 87.2693 146.552 86.7573 146.776C86.2453 146.989 85.8026 147.299 85.4293 147.704C85.0666 148.109 84.7839 148.595 84.5813 149.16C84.3786 149.725 84.2773 150.36 84.2773 151.064C84.2773 151.864 84.3839 152.568 84.5973 153.176C84.8213 153.773 85.1306 154.275 85.5253 154.68C85.9199 155.075 86.3839 155.373 86.9173 155.576C87.4613 155.779 88.0533 155.88 88.6933 155.88C89.5999 155.88 90.3946 155.699 91.0773 155.336C91.7706 154.963 92.2933 154.483 92.6453 153.896L92.0693 155.8V152.328H93.5413V155.112C93.0186 155.795 92.3466 156.328 91.5253 156.712C90.7039 157.096 89.7599 157.288 88.6933 157.288ZM88.2773 152.648V151.336H94.5333V152.648H88.2773ZM101.718 157V154.44H101.462V151.48C101.462 150.893 101.307 150.451 100.998 150.152C100.699 149.853 100.257 149.704 99.6701 149.704C99.3395 149.704 98.9981 149.709 98.6461 149.72C98.2941 149.731 97.9581 149.741 97.6381 149.752C97.3181 149.763 97.0408 149.779 96.8061 149.8V148.456C97.0408 148.435 97.2861 148.419 97.5421 148.408C97.8088 148.387 98.0808 148.376 98.3581 148.376C98.6355 148.365 98.9021 148.36 99.1581 148.36C100.033 148.36 100.747 148.467 101.302 148.68C101.857 148.883 102.267 149.219 102.534 149.688C102.801 150.157 102.934 150.792 102.934 151.592V157H101.718ZM98.9181 157.224C98.2781 157.224 97.7235 157.117 97.2541 156.904C96.7955 156.68 96.4381 156.36 96.1821 155.944C95.9368 155.528 95.8141 155.027 95.8141 154.44C95.8141 153.832 95.9475 153.325 96.2141 152.92C96.4915 152.515 96.8915 152.211 97.4141 152.008C97.9368 151.795 98.5661 151.688 99.3021 151.688H101.622V152.84H99.2381C98.6195 152.84 98.1448 152.989 97.8141 153.288C97.4835 153.587 97.3181 153.971 97.3181 154.44C97.3181 154.909 97.4835 155.288 97.8141 155.576C98.1448 155.864 98.6195 156.008 99.2381 156.008C99.6008 156.008 99.9475 155.944 100.278 155.816C100.609 155.677 100.881 155.453 101.094 155.144C101.318 154.824 101.441 154.387 101.462 153.832L101.878 154.44C101.825 155.048 101.675 155.56 101.43 155.976C101.195 156.381 100.865 156.691 100.438 156.904C100.022 157.117 99.5155 157.224 98.9181 157.224ZM108.553 157.256C107.433 157.256 106.564 157.016 105.945 156.536C105.337 156.056 105.023 155.4 105.001 154.568H106.441C106.463 154.899 106.628 155.213 106.937 155.512C107.257 155.8 107.796 155.944 108.553 155.944C109.236 155.944 109.759 155.811 110.121 155.544C110.484 155.267 110.665 154.931 110.665 154.536C110.665 154.184 110.532 153.912 110.265 153.72C109.999 153.517 109.567 153.384 108.969 153.32L108.041 153.224C107.231 153.139 106.569 152.899 106.057 152.504C105.545 152.099 105.289 151.533 105.289 150.808C105.289 150.264 105.428 149.8 105.705 149.416C105.983 149.021 106.367 148.723 106.857 148.52C107.348 148.307 107.913 148.2 108.553 148.2C109.513 148.2 110.292 148.413 110.889 148.84C111.487 149.267 111.796 149.901 111.817 150.744H110.377C110.367 150.403 110.207 150.115 109.897 149.88C109.599 149.635 109.151 149.512 108.553 149.512C107.956 149.512 107.503 149.635 107.193 149.88C106.884 150.125 106.729 150.435 106.729 150.808C106.729 151.128 106.836 151.384 107.049 151.576C107.273 151.768 107.636 151.891 108.137 151.944L109.065 152.04C109.983 152.136 110.719 152.392 111.273 152.808C111.828 153.213 112.105 153.789 112.105 154.536C112.105 155.069 111.951 155.544 111.641 155.96C111.343 156.365 110.927 156.685 110.393 156.92C109.86 157.144 109.247 157.256 108.553 157.256Z" fill="#666666"/>
<defs>
<clipPath id="clip0_6002_2242">
<rect width="70" height="70" fill="white" transform="translate(41 53)"/>
</clipPath>
</defs>
</svg>
