<svg width="34" height="30" viewBox="0 0 34 30" fill="none" xmlns="http://www.w3.org/2000/svg">
<path d="M28.709 18.3144C29.0777 15.9543 28.7133 13.5378 27.665 11.3914C26.6167 9.24494 24.935 7.47187 22.8469 6.31157C22.8469 6.28045 22.8558 6.2523 22.8558 6.22118C22.8558 4.66802 22.2388 3.17848 21.1406 2.08023C20.0423 0.98198 18.5528 0.36499 16.9996 0.36499C15.4465 0.36499 13.9569 0.98198 12.8587 2.08023C11.7604 3.17848 11.1434 4.66802 11.1434 6.22118C11.1434 6.25082 11.1523 6.28045 11.1523 6.31009C9.06403 7.47048 7.38215 9.24379 6.33382 11.3905C5.28549 13.5373 4.92122 15.954 5.29021 18.3144C4.35351 18.5319 3.48492 18.9771 2.76137 19.6105C2.03783 20.2439 1.48167 21.046 1.14217 21.9457C0.802665 22.8454 0.690295 23.815 0.815012 24.7685C0.939729 25.722 1.29768 26.63 1.85717 27.4121C2.41665 28.1942 3.16039 28.8263 4.02251 29.2523C4.88462 29.6783 5.8385 29.8851 6.79963 29.8544C7.76077 29.8237 8.6995 29.5565 9.53267 29.0763C10.3658 28.5961 11.0677 27.9179 11.5761 27.1016C13.2483 27.9822 15.1098 28.4424 16.9996 28.4424C18.8895 28.4424 20.7509 27.9822 22.4231 27.1016C22.9318 27.9171 23.6336 28.5946 24.4665 29.0741C25.2994 29.5536 26.2377 29.8204 27.1983 29.8508C28.1589 29.8812 29.1122 29.6742 29.9737 29.2483C30.8353 28.8224 31.5786 28.1907 32.1377 27.409C32.6969 26.6273 33.0547 25.7199 33.1795 24.7669C33.3043 23.814 33.1922 22.845 32.8532 21.9457C32.5141 21.0464 31.9586 20.2445 31.2358 19.6112C30.5129 18.9778 29.6451 18.5324 28.709 18.3144ZM16.9996 1.85127C17.8636 1.85127 18.7081 2.10743 19.4264 2.58738C20.1448 3.06732 20.7047 3.74949 21.0354 4.54763C21.3661 5.34577 21.4527 6.22404 21.2842 7.07139C21.1158 7.91875 20.6999 8.69713 20.0891 9.30812C19.4783 9.91912 18.7001 10.3353 17.8528 10.504C17.0055 10.6727 16.1272 10.5864 15.3289 10.256C14.5307 9.92562 13.8483 9.36594 13.3681 8.64775C12.8879 7.92956 12.6315 7.08511 12.6312 6.22118C12.6324 5.06296 13.093 3.95252 13.912 3.13353C14.731 2.31455 15.8414 1.85244 16.9996 1.85127ZM6.62682 28.373C5.76289 28.373 4.91836 28.1169 4.2 27.6369C3.48165 27.157 2.92174 26.4748 2.59106 25.6767C2.26038 24.8785 2.17378 24.0003 2.34222 23.1529C2.51065 22.3056 2.92656 21.5272 3.53735 20.9162C4.14814 20.3052 4.92638 19.889 5.77367 19.7203C6.62097 19.5516 7.49927 19.6379 8.29752 19.9683C9.09577 20.2987 9.77813 20.8584 10.2583 21.5766C10.7385 22.2948 10.995 23.1392 10.9953 24.0031C10.9941 25.1614 10.5335 26.2718 9.71447 27.0908C8.89548 27.9098 7.78504 28.3719 6.62682 28.373ZM12.1837 25.765C12.3743 25.1968 12.4753 24.6024 12.483 24.0031C12.4803 22.4734 11.879 21.0054 10.8079 19.9132C9.73673 18.821 8.28073 18.1913 6.7513 18.1588C6.66891 17.6412 6.62532 17.1181 6.62089 16.594C6.62132 14.8549 7.06043 13.1441 7.89758 11.6197C8.73472 10.0954 9.94286 8.80689 11.4102 7.87342C11.76 9.08547 12.4944 10.151 13.5026 10.9093C14.5107 11.6676 15.7381 12.0777 16.9996 12.0777C18.2612 12.0777 19.4885 11.6676 20.4967 10.9093C21.5049 10.151 22.2392 9.08547 22.5891 7.87342C24.0564 8.80689 25.2645 10.0954 26.1017 11.6197C26.9388 13.1441 27.3779 14.8549 27.3784 16.594C27.3739 17.1181 27.3303 17.6412 27.248 18.1588C25.7185 18.1913 24.2625 18.821 23.1914 19.9132C22.1202 21.0054 21.519 22.4734 21.5162 24.0031C21.5241 24.6019 21.6251 25.1958 21.8156 25.7635C20.325 26.5269 18.6743 26.925 16.9996 26.925C15.325 26.925 13.6743 26.5284 12.1837 25.765ZM27.3724 28.3716C26.5084 28.3716 25.6638 28.1154 24.9455 27.6354C24.2271 27.1553 23.6672 26.4731 23.3365 25.6749C23.0059 24.8766 22.9194 23.9983 23.0879 23.1509C23.2565 22.3035 23.6726 21.5251 24.2835 20.9142C24.8944 20.3032 25.6728 19.8872 26.5202 19.7186C27.3676 19.5501 28.2459 19.6366 29.0442 19.9672C29.8424 20.2979 30.5246 20.8578 31.0047 21.5762C31.4847 22.2945 31.7409 23.1391 31.7409 24.0031C31.7397 25.1614 31.2791 26.2718 30.4601 27.0908C29.6411 27.9098 28.5307 28.3704 27.3724 28.3716Z" fill="white"/>
</svg>
