<svg width="36" height="37" viewBox="0 0 36 37" fill="none" xmlns="http://www.w3.org/2000/svg">
<path fill-rule="evenodd" clip-rule="evenodd" d="M22.8728 28.9991H19.7536H19.7471H16.3662H16.3608H13.2406V30.5527H22.8728V28.9991ZM22.8728 31.0076H13.2406V32.5612H15.3574H15.3639H20.7505H20.756H22.8728V31.0076ZM20.5229 33.0162H15.5913V34.5698H20.5229V33.0162ZM22.5287 11.1849C22.6352 11.0055 22.7331 10.8298 22.8219 10.6577C23.4341 9.4778 23.6191 8.55299 23.2316 8.16651C22.8442 7.77809 21.9194 7.96313 20.7403 8.57522C20.5692 8.66406 20.3926 8.76388 20.2132 8.86932C20.3509 9.47231 20.4628 10.1418 20.5406 10.8576C20.8836 10.8944 21.2175 10.9407 21.5375 10.9925C21.8833 11.048 22.2144 11.1128 22.5287 11.1849ZM15.374 18.1057C15.5451 18.017 15.7207 17.9189 15.9011 17.8117C15.7624 17.2086 15.6514 16.5411 15.5738 15.8253C15.3028 15.7957 15.0393 15.7605 14.7841 15.7217C14.3624 15.6588 13.9619 15.583 13.5856 15.4961C13.4793 15.6773 13.3812 15.8531 13.2925 16.0232C12.6802 17.2031 12.4953 18.1279 12.8818 18.5164C13.2702 18.9027 14.195 18.7179 15.374 18.1057ZM15.9502 11.7544C16.0353 11.6657 16.1213 11.5789 16.2082 11.4919C16.2951 11.4049 16.383 11.318 16.47 11.2347C16.3071 11.2458 16.1472 11.257 15.9891 11.2718C15.9741 11.4309 15.9612 11.5918 15.9502 11.7544ZM19.9062 15.1889C19.8183 15.2776 19.7313 15.3628 19.6444 15.4479C19.8062 15.4368 19.9672 15.4238 20.1253 15.4091C20.1401 15.2501 20.1531 15.091 20.1642 14.9282C20.0791 15.0152 19.9931 15.1021 19.9062 15.1889ZM17.6989 10.1233C17.2227 9.74411 16.7565 9.40945 16.309 9.12091C16.2757 9.27803 16.2433 9.43904 16.2129 9.60359C16.1425 9.98639 16.0833 10.3895 16.0353 10.8132C16.3442 10.7854 16.6613 10.765 16.984 10.7502C17.2226 10.532 17.4612 10.3231 17.6989 10.1233ZM18.4248 10.7299C18.3018 10.6226 18.1787 10.5171 18.0567 10.4154C17.9347 10.5172 17.8126 10.6226 17.6896 10.7299C17.8108 10.7281 17.9338 10.7262 18.0567 10.7262C18.1806 10.7262 18.3027 10.7281 18.4248 10.7299ZM20.9825 13.3413C20.8808 13.2193 20.7755 13.0954 20.6691 12.9733C20.6709 13.0954 20.6718 13.2175 20.6718 13.3413C20.6718 13.4635 20.6709 13.5874 20.6691 13.7076C20.7755 13.5855 20.8808 13.4635 20.9825 13.3413ZM22.2754 15.0892C21.9887 14.6416 21.653 14.1756 21.2748 13.7002C21.0751 13.9369 20.866 14.1756 20.6479 14.414C20.633 14.7377 20.6127 15.054 20.5858 15.3628C21.1898 15.2944 21.7566 15.2019 22.2754 15.0892ZM20.2122 17.8116C20.3926 17.9189 20.5683 18.0169 20.7403 18.1056C21.9194 18.7178 22.8442 18.9027 23.2316 18.5162C23.619 18.1277 23.4341 17.203 22.8219 16.0231C22.7332 15.853 22.6352 15.6772 22.5287 15.4978C21.9249 15.6347 21.2564 15.7455 20.5406 15.8251C20.4749 16.4207 20.3871 16.9829 20.2798 17.5026C20.2584 17.6082 20.2354 17.7099 20.2122 17.8116ZM18.4155 16.5577C18.8917 16.9368 19.3578 17.2716 19.8044 17.5601L19.8358 17.4122C19.9348 16.9332 20.0163 16.4172 20.0791 15.8696C19.7693 15.8956 19.4529 15.9178 19.1302 15.9326C18.8918 16.1508 18.6532 16.3579 18.4155 16.5577ZM17.6895 15.9529C17.8126 16.0602 17.9347 16.1637 18.0566 16.2654C18.1786 16.1637 18.3018 16.0602 18.4247 15.9529C18.3026 15.9547 18.1806 15.9547 18.0566 15.9547C17.9337 15.9547 17.8116 15.9547 17.6895 15.9529ZM15.9141 14.2291C16.112 14.4419 16.3173 14.6563 16.53 14.8691C16.7427 15.0799 16.9554 15.2871 17.169 15.485C17.4602 15.496 17.7571 15.5015 18.0567 15.5015C18.3573 15.5015 18.6541 15.496 18.9444 15.485C19.1581 15.287 19.3717 15.0799 19.5844 14.8691C19.7972 14.6563 20.0025 14.4419 20.2003 14.2291C20.2114 13.9388 20.2169 13.641 20.2169 13.3413C20.2169 13.0399 20.2114 12.744 20.2003 12.4537C20.0024 12.2391 19.7971 12.0265 19.5844 11.8138C19.3717 11.601 19.1591 11.3956 18.9454 11.1979C18.6541 11.1868 18.3573 11.1812 18.0568 11.1812C17.7572 11.1812 17.4603 11.1868 17.1691 11.1979C16.9554 11.3957 16.7427 11.6011 16.53 11.8138C16.3173 12.0264 16.1121 12.2391 15.9141 12.4537C15.903 12.744 15.8975 13.0399 15.8975 13.3413C15.8974 13.641 15.9029 13.9369 15.9141 14.2291ZM15.1317 13.3413C15.2334 13.4635 15.3379 13.5855 15.4451 13.7076C15.4433 13.5874 15.4424 13.4634 15.4424 13.3413C15.4424 13.2175 15.4433 13.0954 15.4451 12.9733C15.338 13.0954 15.2335 13.2193 15.1317 13.3413ZM13.8379 11.5936C14.1257 12.0412 14.4613 12.5073 14.8395 12.9826C15.0393 12.7458 15.2482 12.5055 15.4665 12.2668C15.4812 11.945 15.5015 11.6286 15.5284 11.3198C14.9246 11.3884 14.3577 11.4808 13.8379 11.5936ZM13.2924 10.6577C13.3811 10.8298 13.4792 11.0055 13.5855 11.1849C14.1885 11.0462 14.857 10.9352 15.5738 10.8576C15.6245 10.3914 15.6893 9.94388 15.7671 9.52211C15.8087 9.29831 15.853 9.0802 15.9011 8.86932C15.7207 8.76207 15.5452 8.66406 15.374 8.57522C14.195 7.96313 13.2702 7.77809 12.8818 8.16651C12.4953 8.55299 12.6802 9.4778 13.2924 10.6577ZM17.6979 16.5577C17.4612 16.3579 17.2226 16.1509 16.984 15.9326C16.6612 15.9178 16.3441 15.8974 16.0352 15.8696C16.1046 16.4744 16.1971 17.0403 16.3098 17.5601C16.7565 17.2716 17.2226 16.9368 17.6979 16.5577ZM20.6479 12.2668C20.8661 12.5073 21.0751 12.7458 21.2748 12.9826C21.653 12.5073 21.9887 12.0394 22.2763 11.5936C22.0174 11.5363 21.7464 11.4845 21.4644 11.4401C21.1814 11.3939 20.8882 11.3532 20.5859 11.3199C20.6127 11.6287 20.633 11.945 20.6479 12.2668ZM19.6435 11.2347C19.7314 11.318 19.8184 11.4049 19.9062 11.4919C19.9931 11.5789 20.0791 11.6657 20.1633 11.7544C20.1521 11.5918 20.1401 11.4309 20.1253 11.2718C19.9672 11.2588 19.8063 11.2458 19.6435 11.2347ZM18.4155 10.1233C18.6532 10.3231 18.8917 10.532 19.1302 10.7502C19.4529 10.765 19.7693 10.7854 20.0782 10.8132C20.0097 10.2084 19.9173 9.64047 19.8044 9.12264C19.3579 9.40938 18.8918 9.74591 18.4155 10.1233ZM15.4665 14.414C15.2482 14.1755 15.0393 13.9369 14.8396 13.7002C14.4614 14.1756 14.1257 14.6416 13.838 15.0892C14.158 15.1575 14.4964 15.2186 14.8517 15.2723C15.0708 15.3056 15.2974 15.3351 15.5285 15.3629C15.5016 15.054 15.4804 14.7377 15.4665 14.414ZM16.2082 15.1889C16.1213 15.1021 16.0352 15.0151 15.9511 14.9282C15.9622 15.091 15.9741 15.2519 15.9889 15.4091C16.147 15.4238 16.3069 15.4368 16.4698 15.4479C16.3829 15.3628 16.2951 15.2759 16.2082 15.1889ZM17.2974 6.21904C17.2531 6.17466 17.1912 6.14868 17.1236 6.14868C17.0561 6.14868 16.9942 6.17466 16.9497 6.21904C16.9053 6.26343 16.8785 6.32629 16.8785 6.39283C16.8785 6.46132 16.9053 6.52224 16.9497 6.56663C16.9618 6.57788 16.9739 6.58899 16.9868 6.59809L17.0487 6.62775C17.0626 6.6315 17.0765 6.63511 17.0913 6.63706H17.0923H17.0959L17.108 6.63879H17.1089H17.1108H17.1144H17.1173H17.1191H17.1209H17.1236C17.1912 6.63879 17.2531 6.61115 17.2974 6.56663C17.3418 6.52224 17.3696 6.46132 17.3696 6.39283V6.39103V6.38735L17.3686 6.38353V6.38172V6.37991V6.37811V6.3763V6.37436V6.37068L17.3678 6.3688V6.36706V6.36519V6.36324L17.3668 6.36137V6.35963V6.35783V6.35602V6.35408H17.366V6.35213V6.35032L17.365 6.34852V6.34678C17.3557 6.29851 17.3318 6.25419 17.2974 6.21904ZM17.7607 6.10249L17.7653 6.1136L17.7671 6.11728L17.77 6.12465L17.7718 6.12833L17.7801 6.14868L17.781 6.1525V6.15431L17.7828 6.15799L17.7846 6.16167L17.7912 6.18376L17.7921 6.18577L17.793 6.18751L17.7958 6.19682L17.7967 6.2005L17.7977 6.2023V6.20404L17.7995 6.20974L17.8003 6.21342L17.806 6.23551L17.8069 6.23933L17.8078 6.24481L17.8087 6.24856L17.8096 6.25225L17.8106 6.2578L17.8114 6.26155L17.8124 6.26523V6.26892V6.27086L17.8134 6.27454L17.8142 6.27822V6.2801L17.8152 6.28378L17.816 6.28746L17.817 6.29302V6.2967L17.818 6.30233V6.30413L17.8188 6.30594V6.31143L17.8198 6.3133V6.31518V6.3206V6.32261L17.8207 6.32435V6.32983L17.8217 6.33164V6.33358V6.3372V6.33907V6.34275L17.8226 6.34657V6.34831V6.35199V6.35581L17.8235 6.35762V6.36123V6.36505V6.36693V6.37054V6.37422V6.37616V6.37984V6.38353V6.38908V6.39276C17.8235 6.58691 17.7449 6.76271 17.6192 6.88851C17.4926 7.0143 17.3167 7.09376 17.1236 7.09376H17.1208H17.119H17.1172H17.1143H17.1116H17.1098H17.108H17.1061H17.1052H17.1034H17.1024H17.1006H17.0988H17.097H17.096H17.0942H17.0914H17.0896H17.0878L17.0868 7.09196H17.085H17.0822H17.0786H17.0757H17.0739H17.0711H17.0702H17.0693H17.0665H17.0647L17.0508 7.09015H17.0481H17.0461C17.0231 7.08633 16.9999 7.08272 16.9767 7.07904C16.766 7.50448 16.5782 8.03711 16.4201 8.65482C16.9444 8.98407 17.4956 9.37805 18.0569 9.82927C18.6191 9.37805 19.1703 8.98407 19.6945 8.65482C19.6419 8.45144 19.5873 8.25716 19.529 8.07406C19.1278 6.80724 18.6052 6.02303 18.0569 6.02303C17.9801 6.02303 17.9052 6.03789 17.8331 6.06748L17.7607 6.10249ZM24.7907 12.3335C24.835 12.2889 24.8628 12.228 24.8628 12.1595C24.8628 12.0929 24.835 12.0301 24.7907 11.9857C24.7463 11.9413 24.6844 11.9136 24.6168 11.9136C24.5493 11.9136 24.4874 11.9413 24.4429 11.9857C24.4254 12.0042 24.4096 12.0246 24.3977 12.0485L24.38 12.0929L24.3764 12.1115L24.3708 12.1595C24.3708 12.228 24.3985 12.2889 24.4429 12.3335C24.4874 12.3779 24.5493 12.4055 24.6168 12.4055H24.6196H24.6205H24.6233H24.6251H24.6261H24.6287H24.6298H24.6326H24.6353H24.6371L24.639 12.4036H24.6408H24.6418H24.6444H24.6491H24.6509L24.6574 12.4019H24.6601H24.663C24.7121 12.3926 24.7564 12.3667 24.7907 12.3335ZM25.033 12.7236C24.9479 12.7864 24.849 12.8308 24.7407 12.8494H24.738L24.7113 12.8531L24.7066 12.855H24.7056H24.7001H24.6973L24.6945 12.8569H24.689H24.6881H24.6835H24.6798H24.6779L24.6724 12.8586H24.6706H24.6668H24.6623H24.6613H24.6557H24.653H24.6502L24.6446 12.8605H24.6438H24.6392H24.6346H24.6335H24.6281H24.6262H24.6225H24.6169C24.4237 12.8605 24.248 12.7809 24.1212 12.6552C23.9954 12.5293 23.9169 12.3537 23.9169 12.1595C23.9169 12.1336 23.9179 12.1076 23.9207 12.0818C23.5757 11.9431 23.18 11.8155 22.7435 11.7026C22.4143 12.228 22.0204 12.7791 21.569 13.3413C22.0204 13.9017 22.4143 14.4529 22.7435 14.978C22.946 14.9262 23.1401 14.8708 23.3241 14.8117C24.591 14.4121 25.3752 13.8888 25.3752 13.3412C25.3752 13.2228 25.3363 13.1045 25.2634 12.9898C25.206 12.8994 25.1282 12.8105 25.033 12.7236ZM18.3359 20.9539C18.4053 21.0223 18.4996 21.065 18.6033 21.065C18.7078 21.065 18.802 21.0224 18.8704 20.9558C18.9389 20.8855 18.9805 20.7912 18.9805 20.6877C18.9805 20.5841 18.9389 20.4896 18.8715 20.4213C18.8539 20.4046 18.8354 20.388 18.815 20.3751L18.7974 20.364L18.7956 20.3622H18.7938L18.7911 20.3603H18.79L18.7874 20.3585H18.7864L18.7836 20.3567L18.7827 20.3549H18.7799L18.7789 20.3531L18.7752 20.3512H18.7742L18.7715 20.3494H18.7706L18.7669 20.3476L18.7631 20.3458L18.7594 20.344H18.7584L18.7547 20.3422L18.751 20.3402H18.7501L18.7472 20.3385H18.7464H18.7426L18.7417 20.3366L18.7371 20.3349C18.7185 20.3292 18.6992 20.3237 18.6798 20.3181H18.6779L18.6696 20.3163H18.6622H18.6614L18.6576 20.3146H18.6557H18.6539H18.6512H18.6494H18.6465L18.6457 20.3127H18.642H18.6409H18.6373H18.6335H18.6326H18.6289H18.628H18.6241H18.6223L18.6205 20.311H18.6178H18.6159H18.6132H18.6123H18.6084H18.6076H18.603C18.4994 20.311 18.4051 20.3534 18.3366 20.42C18.2682 20.4902 18.2266 20.5846 18.2266 20.6881C18.2303 20.7399 18.2303 20.751 18.2413 20.7917L18.2424 20.7954L18.2434 20.8009L18.2452 20.8046C18.2629 20.8614 18.2952 20.9131 18.3359 20.9539ZM18.7474 19.8682C18.8206 19.8811 18.8889 19.9034 18.9537 19.933L18.9555 19.9348C19.2404 19.4725 19.492 18.8195 19.6944 18.028C19.1702 17.6988 18.619 17.3048 18.0567 16.8536C17.4954 17.3031 16.9443 17.6988 16.4199 18.0262C16.469 18.2203 16.5217 18.4052 16.5772 18.581C16.9101 19.6445 17.329 20.3731 17.7776 20.5914L17.7784 20.5821L17.7794 20.5747L17.7802 20.571L17.7812 20.5655V20.5617L17.7821 20.5563L17.783 20.5507L17.7839 20.547L17.7848 20.5414L17.7857 20.5377L17.7867 20.5303L17.7885 20.521L17.7903 20.5119L17.7913 20.5099L17.7921 20.5045L17.7931 20.5007L17.7939 20.4952L17.7958 20.4895L17.7967 20.4859L17.7985 20.4804V20.4785L17.8003 20.4713L17.8013 20.4694L17.8031 20.462V20.4602L17.806 20.4528V20.451L17.8087 20.4436V20.4416L17.8105 20.436L17.8124 20.4323L17.8133 20.4268L17.8151 20.4212L17.816 20.4195L17.8188 20.412H17.8198L17.8225 20.4028L17.8253 20.3955V20.3936L17.8281 20.3863L17.8299 20.3845L17.8317 20.3789L17.8337 20.3752L17.8345 20.3696L17.8374 20.3659L17.841 20.3549H17.842L17.8457 20.3474L17.8485 20.3382H17.8495L17.8522 20.3308L17.854 20.329L17.8568 20.3235L17.8586 20.3196L17.8606 20.316L17.8624 20.3105L17.8642 20.3085L17.8669 20.3013L17.8678 20.2995L17.8724 20.2921L17.8762 20.2846L17.8771 20.2829L17.8807 20.2773L17.8817 20.2755L17.8845 20.2701L17.8873 20.2662L17.8891 20.2626L17.892 20.2571L17.8938 20.2551L17.8974 20.2496L17.8984 20.2478L17.9031 20.2404L17.9076 20.233H17.9086L17.9122 20.2275L17.9141 20.2237L17.9168 20.22L17.9197 20.2164L17.9215 20.2126L17.9252 20.2071L17.927 20.2053L17.9307 20.1997L17.9317 20.198L17.9372 20.1923L17.9418 20.185L17.9428 20.1832L17.9475 20.1777L17.9493 20.1758L17.9529 20.1721L17.9557 20.1684L17.9586 20.1647L17.9614 20.1609L17.9632 20.1572L17.9678 20.1536L17.9686 20.1517L17.9743 20.1443L17.9798 20.1387L17.9807 20.137L17.9854 20.1314L17.9882 20.1297L17.9918 20.1259L17.9947 20.1222L17.9974 20.1204L18.0011 20.1147L18.003 20.113L18.0084 20.1073H18.0094L18.015 20.1019C18.1667 19.9502 18.3747 19.8559 18.6032 19.8559H18.6086H18.6132H18.6142H18.6179L18.6225 19.8577H18.6253H18.6271H18.6317H18.6354H18.6364H18.6409H18.6456H18.6464H18.6503H18.6548H18.6566H18.6595L18.6649 19.8595H18.6667H18.6687H18.6732H18.6778H18.6787H18.6834L18.687 19.8613H18.688H18.6917H18.6973H18.6982L18.702 19.8633H18.7066H18.7084H18.7112L18.7149 19.865H18.7194H18.7241L18.7287 19.8668H18.7296H18.7333H18.738H18.7398L18.7424 19.8686H18.7474V19.8682ZM18.9629 12.4351C18.7317 12.2039 18.4109 12.0597 18.0567 12.0597C17.7035 12.0597 17.3826 12.2039 17.1505 12.4351C16.9193 12.6663 16.776 12.9863 16.776 13.3413C16.776 13.6947 16.9193 14.0146 17.1505 14.2477C17.3826 14.4788 17.7035 14.6213 18.0567 14.6213C18.4109 14.6213 18.7317 14.4788 18.9629 14.2477C19.1941 14.0147 19.3375 13.6947 19.3375 13.3413C19.3375 12.9863 19.1941 12.6663 18.9629 12.4351ZM18.0567 11.6047C18.5357 11.6047 18.9694 11.8008 19.2829 12.1133C19.5974 12.4297 19.7925 12.8623 19.7925 13.3413C19.7925 13.8185 19.5974 14.2532 19.2847 14.5676C18.9694 14.8819 18.5357 15.0761 18.0567 15.0761C17.5787 15.0761 17.1449 14.8819 16.8306 14.5676C16.5161 14.2532 16.3219 13.8185 16.3219 13.3413C16.3219 12.8623 16.5161 12.4297 16.8296 12.1152C17.1449 11.8008 17.5787 11.6047 18.0567 11.6047ZM14.2301 19.1913C14.3476 19.1469 14.4789 19.2062 14.5232 19.3227C14.5685 19.4392 14.5093 19.5704 14.3929 19.6167C13.888 19.809 13.4275 19.8775 13.0362 19.8497C12.5896 19.8183 12.2272 19.6591 11.9848 19.4078C11.7518 19.1655 11.5872 18.8122 11.5428 18.3775C11.5039 18.0076 11.552 17.5748 11.7195 17.1088C11.761 16.9903 11.8914 16.9276 12.0098 16.9701C12.1273 17.0127 12.1892 17.1422 12.1475 17.2605C12.0043 17.6619 11.9626 18.0243 11.9941 18.3314C12.0274 18.6604 12.1457 18.9213 12.3104 19.0933C12.476 19.2634 12.7358 19.3745 13.0687 19.3985C13.396 19.4206 13.7909 19.3596 14.2301 19.1913ZM23.8881 8.03155C23.8002 7.94278 23.8002 7.79851 23.8881 7.70974C23.9769 7.62104 24.1211 7.62104 24.2099 7.70974C24.5132 8.01294 24.6168 8.47353 24.5437 9.04693C24.4736 9.59247 24.2387 10.2546 23.8641 10.9834C23.8068 11.0961 23.6699 11.1386 23.5589 11.0832C23.4479 11.0259 23.4036 10.889 23.4609 10.778C23.8124 10.0936 24.0306 9.48342 24.0944 8.98949C24.1489 8.5605 24.086 8.22945 23.8881 8.03155ZM11.9552 7.49886C12.0459 7.41377 12.1901 7.41939 12.2751 7.5099C12.3602 7.60242 12.3548 7.74482 12.2632 7.82991C12.0588 8.02037 11.983 8.34954 12.0227 8.78062C12.0681 9.27622 12.2632 9.89574 12.5886 10.5913C12.6414 10.704 12.5924 10.8389 12.4795 10.8926C12.3658 10.9463 12.2307 10.8964 12.1789 10.7835C11.8314 10.0401 11.6205 9.37055 11.5714 8.82118C11.5187 8.24598 11.6399 7.79115 11.9552 7.49886ZM19.5197 25.9677H16.5937V28.5442H19.5197V25.9677ZM16.3662 25.5129H19.7471C19.873 25.5129 19.9745 25.6146 19.9745 25.7403V28.5441H22.8728V24.4937C22.8737 24.4105 22.9208 24.3291 23.0023 24.2902C24.9432 23.3544 26.5782 21.884 27.7175 20.0715C28.8179 18.3183 29.456 16.2412 29.456 14.0164C29.456 10.8685 28.1798 8.01842 26.1168 5.95627C24.0547 3.89405 21.2045 2.61792 18.0566 2.61792C14.9098 2.61792 12.0588 3.89398 9.99656 5.95627C7.93441 8.01842 6.6582 10.8685 6.6582 14.0164C6.6582 16.2412 7.29544 18.3183 8.39681 20.0715C9.53242 21.8803 11.1636 23.347 13.1 24.2847C13.1814 24.3179 13.2405 24.3993 13.2405 24.4937V28.5441H16.1388V25.7403C16.1388 25.6146 16.2414 25.5129 16.3662 25.5129ZM11.8951 14.2346C11.8119 14.1515 11.6963 14.0997 11.5687 14.0997C11.4421 14.0997 11.3265 14.1515 11.2432 14.2346C11.1609 14.3178 11.1091 14.4344 11.1091 14.5602C11.1091 14.6878 11.1609 14.8024 11.2441 14.8858C11.3274 14.9689 11.4421 15.0207 11.5687 15.0207C11.6963 15.0207 11.8111 14.9689 11.8943 14.8858C11.9774 14.8025 12.0292 14.6878 12.0292 14.5602C12.0292 14.4326 11.9774 14.3178 11.8951 14.2346ZM12.3094 15.1279C12.2845 15.1612 12.2586 15.1909 12.229 15.2205C12.0607 15.3906 11.8267 15.4942 11.5687 15.4942C11.3117 15.4942 11.0776 15.3906 10.9085 15.2205C10.7402 15.0521 10.6357 14.8191 10.6357 14.5602C10.6357 14.4401 10.6588 14.3253 10.6995 14.2199C10.5904 14.1109 10.5017 13.9961 10.435 13.8815C10.3362 13.7077 10.2844 13.5265 10.2844 13.3414C10.2844 12.5702 11.1896 11.8988 12.6527 11.4364C12.8043 11.3885 12.9634 11.3421 13.126 11.2977C13.041 11.1517 12.9625 11.0074 12.8893 10.8651C12.1828 9.50384 12.0163 8.38858 12.561 7.84484C13.1048 7.30103 14.22 7.46566 15.5821 8.17214C15.7236 8.24612 15.8679 8.32572 16.0149 8.41088C16.1786 7.8024 16.3719 7.27158 16.5873 6.84433C16.4857 6.72222 16.4236 6.56503 16.4236 6.39297C16.4236 6.20064 16.5023 6.02504 16.629 5.89925C16.7548 5.77165 16.9304 5.69392 17.1237 5.69392C17.2374 5.69392 17.3447 5.72163 17.4391 5.76783C17.5121 5.71983 17.587 5.68093 17.6629 5.64953C17.7923 5.59591 17.9245 5.5682 18.0568 5.5682C18.8271 5.5682 19.4994 6.47438 19.9617 7.93722C20.0098 8.08907 20.056 8.24612 20.0996 8.41081C20.2465 8.32565 20.3907 8.24612 20.5322 8.17207C21.8935 7.46559 23.0097 7.30096 23.5534 7.84477C24.0972 8.38851 23.9316 9.50384 23.225 10.865C23.1511 11.0074 23.0725 11.1517 22.9875 11.2995C23.4026 11.4106 23.7808 11.5345 24.1147 11.6714L24.1211 11.6658C24.248 11.5382 24.4236 11.4606 24.6169 11.4606C24.81 11.4606 24.9859 11.5382 25.1125 11.6658C25.2383 11.7917 25.3169 11.9673 25.3169 12.1596C25.3169 12.2243 25.3086 12.289 25.292 12.3483C25.4399 12.4759 25.5583 12.6091 25.6461 12.7459C25.7663 12.9364 25.8301 13.1343 25.8301 13.3414C25.8301 14.1109 24.924 14.7822 23.461 15.2464C23.3093 15.2945 23.1512 15.3389 22.9876 15.3833C23.0727 15.5312 23.1521 15.6756 23.2252 15.8161C23.9317 17.1773 24.0973 18.2925 23.5536 18.8362C23.0098 19.3818 21.8937 19.2154 20.5324 18.5089C20.3909 18.4349 20.2467 18.3554 20.0987 18.2703C19.8814 19.0822 19.6094 19.7536 19.3006 20.2343C19.3857 20.3658 19.4357 20.521 19.4357 20.6875C19.4357 20.9169 19.3422 21.124 19.1915 21.2738C19.0398 21.4254 18.8327 21.5197 18.6034 21.5197C18.3749 21.5197 18.1669 21.4254 18.0171 21.2755C17.9635 21.2219 17.9172 21.161 17.8792 21.0961C17.1793 20.9667 16.5708 20.0808 16.1436 18.7159C16.0991 18.5734 16.0558 18.4236 16.015 18.2719C15.868 18.3552 15.7237 18.4347 15.5822 18.5087C14.2201 19.2152 13.1048 19.3816 12.5611 18.836C12.0164 18.2923 12.1829 17.177 12.8894 15.8159C12.9634 15.6754 13.042 15.5292 13.1271 15.3831C12.8356 15.3055 12.5618 15.2186 12.3094 15.1279ZM25.5861 26.5246C25.6711 26.5246 25.7608 26.4691 25.7894 26.397C25.8653 26.2453 25.7497 26.0695 25.5861 26.0695H25.131C25.0459 26.0695 24.9562 26.125 24.9266 26.1971C24.8518 26.3488 24.9665 26.5246 25.131 26.5246H25.5861ZM27.4031 26.5246C27.4891 26.5246 27.5788 26.4691 27.6074 26.397C27.6833 26.2453 27.5677 26.0695 27.4031 26.0695H26.9491C26.863 26.0695 26.7733 26.125 26.7447 26.1971C26.6689 26.3488 26.7845 26.5246 26.9491 26.5246H27.4031ZM9.06453 30.8857C9.15046 30.8857 9.2402 30.8282 9.26882 30.7562C9.3446 30.6044 9.22909 30.4306 9.06453 30.4306H8.60956C8.52448 30.4306 8.43473 30.4861 8.40611 30.5582C8.33033 30.7099 8.44487 30.8857 8.60956 30.8857H9.06453ZM10.8825 30.8857C10.9675 30.8857 11.0582 30.8282 11.086 30.7562C11.1618 30.6044 11.0471 30.4306 10.8825 30.4306H10.4276C10.3425 30.4306 10.2518 30.4861 10.2241 30.5582C10.1482 30.7099 10.2629 30.8857 10.4276 30.8857H10.8825ZM12.6997 30.8857C12.7856 30.8857 12.8753 30.8282 12.904 30.7562C12.9798 30.6044 12.8642 30.4306 12.6997 30.4306H12.2456C12.1596 30.4306 12.0699 30.4861 12.0412 30.5582C11.9654 30.7099 12.0809 30.8857 12.2456 30.8857H12.6997ZM9.06453 29.4319C9.15046 29.4319 9.2402 29.3764 9.26882 29.3043C9.3446 29.1526 9.22909 28.9769 9.06453 28.9769H8.60956C8.52448 28.9769 8.43473 29.0325 8.40611 29.1045C8.33033 29.2563 8.44487 29.4319 8.60956 29.4319H9.06453ZM10.8825 29.4319C10.9675 29.4319 11.0582 29.3764 11.086 29.3043C11.1618 29.1526 11.0471 28.9769 10.8825 28.9769H10.4276C10.3425 28.9769 10.2518 29.0325 10.2241 29.1045C10.1482 29.2563 10.2629 29.4319 10.4276 29.4319H10.8825ZM12.6997 29.4319C12.7856 29.4319 12.8753 29.3764 12.904 29.3043C12.9798 29.1526 12.8642 28.9769 12.6997 28.9769H12.2456C12.1596 28.9769 12.0699 29.0325 12.0412 29.1045C11.9654 29.2563 12.0809 29.4319 12.2456 29.4319H12.6997ZM9.06453 27.9782C9.15046 27.9782 9.2402 27.9227 9.26882 27.8507C9.3446 27.6989 9.22909 27.5233 9.06453 27.5233H8.60956C8.52448 27.5233 8.43473 27.5788 8.40611 27.651C8.33033 27.8026 8.44487 27.9782 8.60956 27.9782H9.06453ZM10.8825 27.9782C10.9675 27.9782 11.0582 27.9227 11.086 27.8507C11.1618 27.6989 11.0471 27.5233 10.8825 27.5233H10.4276C10.3425 27.5233 10.2518 27.5788 10.2241 27.651C10.1482 27.8026 10.2629 27.9782 10.4276 27.9782H10.8825ZM12.6997 27.9782C12.7856 27.9782 12.8753 27.9227 12.904 27.8507C12.9798 27.6989 12.8642 27.5233 12.6997 27.5233H12.2456C12.1596 27.5233 12.0699 27.5788 12.0412 27.651C11.9654 27.8026 12.0809 27.9782 12.2456 27.9782H12.6997ZM9.06453 26.5246C9.15046 26.5246 9.2402 26.4691 9.26882 26.397C9.3446 26.2453 9.22909 26.0695 9.06453 26.0695H8.60956C8.52448 26.0695 8.43473 26.125 8.40611 26.1971C8.33033 26.3488 8.44487 26.5246 8.60956 26.5246H9.06453ZM10.8825 26.5246C10.9675 26.5246 11.0582 26.4691 11.086 26.397C11.1618 26.2453 11.0471 26.0695 10.8825 26.0695H10.4276C10.3425 26.0695 10.2518 26.125 10.2241 26.1971C10.1482 26.3488 10.2629 26.5246 10.4276 26.5246H10.8825ZM12.6997 26.5246C12.7856 26.5246 12.8753 26.4691 12.904 26.397C12.9798 26.2453 12.8642 26.0695 12.6997 26.0695H12.2456C12.1596 26.0695 12.0699 26.125 12.0412 26.1971C11.9654 26.3488 12.0809 26.5246 12.2456 26.5246H12.6997ZM23.768 30.8857C23.854 30.8857 23.9435 30.8282 23.9723 30.7562C24.0481 30.6044 23.9325 30.4306 23.768 30.4306H23.3139C23.2279 30.4306 23.1382 30.4861 23.1096 30.5582C23.0337 30.7099 23.1492 30.8857 23.3139 30.8857H23.768ZM25.5861 30.8857C25.6711 30.8857 25.7608 30.8282 25.7894 30.7562C25.8653 30.6044 25.7497 30.4306 25.5861 30.4306H25.131C25.0459 30.4306 24.9562 30.4861 24.9266 30.5582C24.8518 30.7099 24.9665 30.8857 25.131 30.8857H25.5861ZM27.4031 30.8857C27.4891 30.8857 27.5788 30.8282 27.6074 30.7562C27.6833 30.6044 27.5677 30.4306 27.4031 30.4306H26.9491C26.863 30.4306 26.7733 30.4861 26.7447 30.5582C26.6689 30.7099 26.7845 30.8857 26.9491 30.8857H27.4031ZM23.768 29.4319C23.854 29.4319 23.9435 29.3764 23.9723 29.3043C24.0481 29.1526 23.9325 28.9769 23.768 28.9769H23.3139C23.2279 28.9769 23.1382 29.0325 23.1096 29.1045C23.0337 29.2563 23.1492 29.4319 23.3139 29.4319H23.768ZM25.5861 29.4319C25.6711 29.4319 25.7608 29.3764 25.7894 29.3043C25.8653 29.1526 25.7497 28.9769 25.5861 28.9769H25.131C25.0459 28.9769 24.9562 29.0325 24.9266 29.1045C24.8518 29.2563 24.9665 29.4319 25.131 29.4319H25.5861ZM27.4031 29.4319C27.4891 29.4319 27.5788 29.3764 27.6074 29.3043C27.6833 29.1526 27.5677 28.9769 27.4031 28.9769H26.9491C26.863 28.9769 26.7733 29.0325 26.7447 29.1045C26.6689 29.2563 26.7845 29.4319 26.9491 29.4319H27.4031ZM23.768 27.9782C23.854 27.9782 23.9435 27.9227 23.9723 27.8507C24.0481 27.6989 23.9325 27.5233 23.768 27.5233H23.3139C23.2279 27.5233 23.1382 27.5788 23.1096 27.651C23.0337 27.8026 23.1492 27.9782 23.3139 27.9782H23.768ZM25.5861 27.9782C25.6711 27.9782 25.7608 27.9227 25.7894 27.8507C25.8653 27.6989 25.7497 27.5233 25.5861 27.5233H25.131C25.0459 27.5233 24.9562 27.5788 24.9266 27.651C24.8518 27.8026 24.9665 27.9782 25.131 27.9782H25.5861ZM27.4031 27.9782C27.4891 27.9782 27.5788 27.9227 27.6074 27.8507C27.6833 27.6989 27.5677 27.5233 27.4031 27.5233H26.9491C26.863 27.5233 26.7733 27.5788 26.7447 27.651C26.6689 27.8026 26.7845 27.9782 26.9491 27.9782H27.4031ZM23.3139 26.0695C23.2279 26.0695 23.1382 26.125 23.1096 26.1971C23.0337 26.3488 23.1492 26.5246 23.3139 26.5246H23.768C23.854 26.5246 23.9435 26.4691 23.9723 26.397C24.0481 26.2453 23.9325 26.0695 23.768 26.0695H23.3139ZM11.5687 13.6261C11.8257 13.6261 12.0598 13.7316 12.2289 13.8999C12.3972 14.0701 12.5026 14.3031 12.5026 14.5601C12.5026 14.6119 12.4989 14.6619 12.4905 14.7118C12.7597 14.808 13.0538 14.8968 13.371 14.9781C13.6992 14.4547 14.0941 13.9018 14.5453 13.3413C14.0941 12.7792 13.7002 12.2281 13.371 11.7046C13.1683 11.7563 12.9742 11.8119 12.7893 11.8692C11.5224 12.2705 10.7392 12.792 10.7392 13.3413C10.7392 13.4467 10.7696 13.5521 10.8288 13.6557C10.8659 13.7186 10.9121 13.7833 10.9685 13.8462C11.1322 13.7094 11.3412 13.6261 11.5687 13.6261Z" fill="white"/>
</svg>
