<svg width="48" height="49" viewBox="0 0 48 49" fill="none" xmlns="http://www.w3.org/2000/svg">
<rect x="0.375" y="0.432617" width="47.25" height="47.25" rx="23.625" fill="url(#paint0_linear_6002_2123)"/>
<rect x="0.375" y="0.432617" width="47.25" height="47.25" rx="23.625" stroke="url(#paint1_linear_6002_2123)" stroke-width="0.75"/>
<rect x="16.125" y="16.1826" width="15.749" height="15.749" rx="4.5" fill="url(#paint2_radial_6002_2123)"/>
<rect x="16.125" y="16.1826" width="15.749" height="15.749" rx="4.5" fill="url(#paint3_radial_6002_2123)"/>
<rect x="16.125" y="16.1826" width="15.749" height="15.749" rx="4.5" fill="white"/>
<path d="M27.9369 20.964C27.9369 21.4299 27.5592 21.8077 27.0932 21.8077C26.6273 21.8077 26.2495 21.4299 26.2495 20.964C26.2495 20.498 26.6273 20.1203 27.0932 20.1203C27.5592 20.1203 27.9369 20.498 27.9369 20.964Z" fill="#1A1A1A"/>
<path fill-rule="evenodd" clip-rule="evenodd" d="M23.9997 26.8698C25.5529 26.8698 26.812 25.6107 26.812 24.0575C26.812 22.5043 25.5529 21.2452 23.9997 21.2452C22.4465 21.2452 21.1873 22.5043 21.1873 24.0575C21.1873 25.6107 22.4465 26.8698 23.9997 26.8698ZM23.9997 25.7449C24.9316 25.7449 25.6871 24.9894 25.6871 24.0575C25.6871 23.1256 24.9316 22.3701 23.9997 22.3701C23.0677 22.3701 22.3123 23.1256 22.3123 24.0575C22.3123 24.9894 23.0677 25.7449 23.9997 25.7449Z" fill="#1A1A1A"/>
<path fill-rule="evenodd" clip-rule="evenodd" d="M18.375 23.8325C18.375 21.9425 18.375 20.9974 18.7428 20.2755C19.0664 19.6405 19.5827 19.1242 20.2177 18.8007C20.9396 18.4329 21.8846 18.4329 23.7747 18.4329H24.2246C26.1147 18.4329 27.0597 18.4329 27.7816 18.8007C28.4167 19.1242 28.9329 19.6405 29.2565 20.2755C29.6243 20.9974 29.6243 21.9425 29.6243 23.8325V24.2825C29.6243 26.1726 29.6243 27.1176 29.2565 27.8395C28.9329 28.4745 28.4167 28.9908 27.7816 29.3143C27.0597 29.6822 26.1147 29.6822 24.2246 29.6822H23.7747C21.8846 29.6822 20.9396 29.6822 20.2177 29.3143C19.5827 28.9908 19.0664 28.4745 18.7428 27.8395C18.375 27.1176 18.375 26.1726 18.375 24.2825V23.8325ZM23.7747 19.5578H24.2246C25.1882 19.5578 25.8433 19.5587 26.3496 19.6C26.8428 19.6403 27.095 19.7134 27.2709 19.803C27.6943 20.0187 28.0385 20.3629 28.2542 20.7862C28.3438 20.9622 28.4168 21.2144 28.4571 21.7076C28.4985 22.2139 28.4994 22.8689 28.4994 23.8325V24.2825C28.4994 25.2461 28.4985 25.9011 28.4571 26.4075C28.4168 26.9006 28.3438 27.1529 28.2542 27.3288C28.0385 27.7521 27.6943 28.0963 27.2709 28.312C27.095 28.4017 26.8428 28.4747 26.3496 28.515C25.8433 28.5564 25.1882 28.5572 24.2246 28.5572H23.7747C22.8111 28.5572 22.156 28.5564 21.6497 28.515C21.1565 28.4747 20.9043 28.4017 20.7284 28.312C20.305 28.0963 19.9609 27.7521 19.7452 27.3288C19.6555 27.1529 19.5825 26.9006 19.5422 26.4075C19.5008 25.9011 19.4999 25.2461 19.4999 24.2825V23.8325C19.4999 22.8689 19.5008 22.2139 19.5422 21.7076C19.5825 21.2144 19.6555 20.9622 19.7452 20.7862C19.9609 20.3629 20.305 20.0187 20.7284 19.803C20.9043 19.7134 21.1565 19.6403 21.6497 19.6C22.156 19.5587 22.8111 19.5578 23.7747 19.5578Z" fill="#1A1A1A"/>
<defs>
<linearGradient id="paint0_linear_6002_2123" x1="24" y1="0.0576172" x2="24" y2="48.0576" gradientUnits="userSpaceOnUse">
<stop stop-color="#1A1A1A"/>
<stop offset="1" stop-color="#1A1A1A" stop-opacity="0"/>
</linearGradient>
<linearGradient id="paint1_linear_6002_2123" x1="24" y1="0.0576172" x2="24" y2="48.0576" gradientUnits="userSpaceOnUse">
<stop stop-color="#262626"/>
<stop offset="1" stop-color="#262626" stop-opacity="0"/>
</linearGradient>
<radialGradient id="paint2_radial_6002_2123" cx="0" cy="0" r="1" gradientUnits="userSpaceOnUse" gradientTransform="translate(21.7497 27.9944) rotate(-55.3758) scale(14.3539)">
<stop stop-color="#B13589"/>
<stop offset="0.79309" stop-color="#C62F94"/>
<stop offset="1" stop-color="#8A3AC8"/>
</radialGradient>
<radialGradient id="paint3_radial_6002_2123" cx="0" cy="0" r="1" gradientUnits="userSpaceOnUse" gradientTransform="translate(21.1872 32.4941) rotate(-65.1363) scale(12.7085)">
<stop stop-color="#E0E8B7"/>
<stop offset="0.444662" stop-color="#FB8A2E"/>
<stop offset="0.71474" stop-color="#E2425C"/>
<stop offset="1" stop-color="#E2425C" stop-opacity="0"/>
</radialGradient>
</defs>
</svg>
