<svg width="49" height="49" viewBox="0 0 49 49" fill="none" xmlns="http://www.w3.org/2000/svg">
<rect x="0.875" y="0.432617" width="47.25" height="47.25" rx="23.625" fill="url(#paint0_linear_6002_2116)"/>
<rect x="0.875" y="0.432617" width="47.25" height="47.25" rx="23.625" stroke="url(#paint1_linear_6002_2116)" stroke-width="0.75"/>
<g clip-path="url(#clip0_6002_2116)">
<path d="M15.5977 16.4305C15.5977 15.7271 16.186 15.1567 16.9117 15.1567H32.0656C32.7913 15.1567 33.3797 15.7271 33.3797 16.4305V31.665C33.3797 32.3686 32.7913 32.9388 32.0656 32.9388H16.9117C16.186 32.9388 15.5977 32.3686 15.5977 31.665V16.4305Z" fill="white"/>
<path d="M19.6441 20.9163C20.5805 20.9163 21.1636 20.2997 21.1636 19.5292C21.1462 18.7413 20.5807 18.1418 19.6619 18.1418C18.7432 18.1418 18.1426 18.7413 18.1426 19.5292C18.1426 20.2997 18.7254 20.9163 19.6267 20.9163H19.6441Z" fill="#0F0F0F"/>
<path d="M20.9884 30.0413V22.0122H18.3027V30.0413H20.9884Z" fill="#0F0F0F"/>
<path d="M22.4746 30.0411H25.1603V25.5573C25.1603 25.3173 25.1777 25.0776 25.2486 24.9062C25.4428 24.4267 25.8846 23.9302 26.6267 23.9302C27.5985 23.9302 27.9873 24.6665 27.9873 25.7458V30.0411H30.6726V25.4374C30.6726 22.9712 29.3477 21.8237 27.5807 21.8237C26.132 21.8237 25.4958 22.6284 25.1423 23.1765H25.1603V22.012H22.4746C22.5098 22.7655 22.4746 30.0411 22.4746 30.0411Z" fill="#0F0F0F"/>
</g>
<defs>
<linearGradient id="paint0_linear_6002_2116" x1="24.5" y1="0.0576172" x2="24.5" y2="48.0576" gradientUnits="userSpaceOnUse">
<stop stop-color="#1A1A1A"/>
<stop offset="1" stop-color="#1A1A1A" stop-opacity="0"/>
</linearGradient>
<linearGradient id="paint1_linear_6002_2116" x1="24.5" y1="0.0576172" x2="24.5" y2="48.0576" gradientUnits="userSpaceOnUse">
<stop stop-color="#262626"/>
<stop offset="1" stop-color="#262626" stop-opacity="0"/>
</linearGradient>
<clipPath id="clip0_6002_2116">
<rect width="18" height="18" fill="white" transform="translate(15.5 15.0576)"/>
</clipPath>
</defs>
</svg>
