<svg width="101" height="41" viewBox="0 0 101 41" fill="none" xmlns="http://www.w3.org/2000/svg">
<path fill-rule="evenodd" clip-rule="evenodd" d="M13.7832 34.9438C14.3034 36.8939 14.8236 38.8438 17.168 39.9304C22.5646 42.4317 27.4502 35.9764 29.957 30.5732C31.0435 28.2289 32.9934 27.7088 34.9435 27.1887C36.8937 26.6686 38.8438 26.1485 39.9303 23.8043C42.4323 18.406 35.9676 13.5136 30.5729 11.0133C28.2286 9.92677 27.7083 7.97671 27.1882 6.02672C26.668 4.07669 26.1478 2.12667 23.8035 1.0401C18.4049 -1.46205 13.5126 5.00225 11.0124 10.3965C9.92592 12.7408 7.97635 13.2611 6.02678 13.7814C4.07717 14.3018 2.1276 14.8221 1.04109 17.1663C-1.46086 22.5645 5.00186 27.4561 10.3985 29.9573C12.7428 31.0439 13.263 32.9938 13.7832 34.9438ZM17.5237 26.8761C21.0533 28.512 25.2406 26.9769 26.8765 23.4473C28.5124 19.9177 26.9774 15.7304 23.4477 14.0944C19.9182 12.4586 15.7308 13.9937 14.0949 17.5232C12.459 21.0529 13.9941 25.2402 17.5237 26.8761Z" fill="url(#paint0_linear_6002_127)"/>
<path d="M54.8586 30.4854V13.0896H58.2424V30.4854H54.8586ZM62.3214 30.4854V17.5458H64.9427V23.0981H64.7044C64.7044 21.7795 64.8791 20.6834 65.2286 19.8096C65.5781 18.92 66.0944 18.2527 66.7776 17.8079C67.4766 17.3631 68.3424 17.1407 69.375 17.1407H69.518C71.059 17.1407 72.2266 17.6411 73.021 18.6419C73.8153 19.6269 74.2124 21.1044 74.2124 23.0743V30.4854H70.9001V22.7883C70.9001 21.994 70.6698 21.3506 70.209 20.8581C69.7642 20.3656 69.1446 20.1194 68.3503 20.1194C67.5401 20.1194 66.8808 20.3736 66.3724 20.8819C65.88 21.3744 65.6337 22.0417 65.6337 22.8837V30.4854H62.3214ZM83.3973 30.6522C82.2059 30.6522 81.2209 30.5012 80.4424 30.1994C79.6799 29.8817 79.108 29.3574 78.7267 28.6266C78.3454 27.88 78.1548 26.8791 78.1548 25.6241L78.1786 13.8998H81.2765L81.2527 25.8385C81.2527 26.474 81.4195 26.9665 81.7531 27.316C82.1026 27.6496 82.5951 27.8164 83.2305 27.8164H85.2561V30.6522H83.3973ZM76.1054 19.9764V17.5458H85.2561V19.9764H76.1054ZM91.7774 28.1739V16.4019H94.6847V28.1739H91.7774ZM87.4642 23.6224V20.9534H98.9978V23.6224H87.4642Z" fill="#666666"/>
<defs>
<linearGradient id="paint0_linear_6002_127" x1="1.61299" y1="15.9324" x2="37.0005" y2="32.3339" gradientUnits="userSpaceOnUse">
<stop stop-color="#666666"/>
<stop offset="1" stop-color="white"/>
</linearGradient>
</defs>
</svg>
