<svg width="266" height="266" viewBox="0 0 266 266" fill="none" xmlns="http://www.w3.org/2000/svg">
<g clip-path="url(#clip0_6178_2)">
<mask id="mask0_6178_2" style="mask-type:luminance" maskUnits="userSpaceOnUse" x="0" y="0" width="266" height="266">
<path d="M265.559 84.1023L84.1016 0L-0.000764132 181.457L181.457 265.56L265.559 84.1023Z" fill="white"/>
</mask>
<g mask="url(#mask0_6178_2)">
<path fill-rule="evenodd" clip-rule="evenodd" d="M106.293 189.547C108.342 197.23 110.391 204.912 119.627 209.193C140.888 219.047 160.135 193.616 170.011 172.329C174.291 163.094 181.973 161.045 189.656 158.996C197.338 156.947 205.021 154.898 209.301 145.663C219.158 124.396 193.69 105.121 172.437 95.2711C163.202 90.9907 161.152 83.3083 159.103 75.6261C157.053 67.9438 155.004 60.2615 145.768 55.9809C124.5 46.1234 105.226 71.5901 95.3767 92.8415C91.0964 102.077 83.4159 104.127 75.7353 106.176C68.0547 108.226 60.3742 110.276 56.0938 119.512C46.2371 140.778 71.6976 160.049 92.958 169.903C102.194 174.183 104.243 181.865 106.293 189.547ZM121.028 157.764C134.934 164.209 151.43 158.161 157.875 144.256C164.32 130.351 158.272 113.855 144.367 107.41C130.462 100.965 113.965 107.013 107.52 120.918C101.076 134.823 107.123 151.319 121.028 157.764Z" fill="url(#paint0_linear_6178_2)"/>
</g>
</g>
<defs>
<linearGradient id="paint0_linear_6178_2" x1="58.3431" y1="114.658" x2="197.756" y2="179.274" gradientUnits="userSpaceOnUse">
<stop stop-color="#4E18C3"/>
<stop offset="1" stop-color="#28A2D4"/>
</linearGradient>
<clipPath id="clip0_6178_2">
<rect width="200" height="200" fill="white" transform="translate(84.1016) rotate(24.8669)"/>
</clipPath>
</defs>
</svg>
