<svg width="41" height="41" viewBox="0 0 41 41" fill="none" xmlns="http://www.w3.org/2000/svg">
<path fill-rule="evenodd" clip-rule="evenodd" d="M13.7832 34.9438C14.3034 36.8939 14.8236 38.8438 17.168 39.9304C22.5646 42.4317 27.4502 35.9764 29.957 30.5732C31.0435 28.2289 32.9934 27.7088 34.9435 27.1887C36.8937 26.6686 38.8438 26.1485 39.9303 23.8043C42.4323 18.406 35.9676 13.5136 30.5729 11.0133C28.2286 9.92677 27.7083 7.97671 27.1882 6.02672C26.668 4.07669 26.1478 2.12667 23.8035 1.0401C18.4049 -1.46205 13.5126 5.00225 11.0124 10.3965C9.92592 12.7408 7.97635 13.2611 6.02678 13.7814C4.07717 14.3018 2.1276 14.8221 1.04109 17.1663C-1.46086 22.5645 5.00186 27.4561 10.3985 29.9573C12.7428 31.0439 13.263 32.9938 13.7832 34.9438ZM17.5237 26.8761C21.0533 28.512 25.2406 26.9769 26.8765 23.4473C28.5124 19.9177 26.9774 15.7304 23.4477 14.0944C19.9182 12.4586 15.7308 13.9937 14.0949 17.5232C12.459 21.0529 13.9941 25.2402 17.5237 26.8761Z" fill="url(#paint0_linear_6002_128)"/>
<defs>
<linearGradient id="paint0_linear_6002_128" x1="1.61299" y1="15.9324" x2="37.0005" y2="32.3339" gradientUnits="userSpaceOnUse">
<stop stop-color="#666666"/>
<stop offset="1" stop-color="white"/>
</linearGradient>
</defs>
</svg>
