<svg width="64" height="64" viewBox="0 0 64 64" fill="none" xmlns="http://www.w3.org/2000/svg">
<path fill-rule="evenodd" clip-rule="evenodd" d="M21.275 55.1334C22.1074 58.2537 22.9396 61.3736 26.6906 63.1121C35.3252 67.1141 43.1422 56.7857 47.1531 48.1405C48.8915 44.3897 52.0114 43.5575 55.1315 42.7254C58.2517 41.8932 61.3719 41.0611 63.1103 37.3103C67.1135 28.6731 56.77 20.8452 48.1385 16.8447C44.3877 15.1063 43.5552 11.9862 42.7231 8.86619C41.8907 5.74614 41.0584 2.62611 37.3074 0.8876C28.6697 -3.11584 20.842 7.22704 16.8417 15.8579C15.1033 19.6087 11.984 20.4412 8.86472 21.2737C5.74535 22.1063 2.62603 22.9388 0.887625 26.6895C-3.1155 35.3266 7.22486 43.1531 15.8594 47.1551C19.6104 48.8936 20.4427 52.0135 21.275 55.1334ZM27.2597 42.2252C32.9072 44.8426 39.6068 42.3865 42.2243 36.7391C44.8417 31.0918 42.3857 24.392 36.7382 21.7745C31.091 19.1571 24.3911 21.6133 21.7737 27.2606C19.1562 32.908 21.6125 39.6077 27.2597 42.2252Z" fill="url(#paint0_linear_6226_2)"/>
<defs>
<linearGradient id="paint0_linear_6226_2" x1="1.80263" y1="24.7153" x2="58.4227" y2="50.9577" gradientUnits="userSpaceOnUse">
<stop stop-color="#4E18C3"/>
<stop offset="1" stop-color="#28A2D4"/>
</linearGradient>
</defs>
</svg>
