<svg width="25" height="30" viewBox="0 0 25 30" fill="none" xmlns="http://www.w3.org/2000/svg">
<g clip-path="url(#clip0_6015_2653)">
<path d="M7.21594 18.6165C7.4543 18.4332 7.61931 18.2957 7.83016 18.1306C8.06852 19.0107 8.28854 19.8541 8.53607 20.6976C8.71942 21.321 8.8936 21.9627 9.15029 22.5586C9.55366 23.457 10.2412 24.1262 11.0755 24.6488C11.4147 24.8596 11.7172 25.1438 12.0197 25.4097C12.3956 25.7397 12.7623 26.0789 13.1565 26.4364C13.074 26.5006 12.9915 26.5831 12.8998 26.6473C11.543 27.5916 10.1954 28.5358 8.83859 29.4617C8.65524 29.5901 8.39855 29.6726 8.16936 29.6817C7.39012 29.7093 6.61088 29.6818 5.83164 29.7001C5.57495 29.7001 5.42827 29.6359 5.31826 29.3792C4.42901 27.3074 3.53059 25.2355 2.623 23.1728C2.50382 22.9069 2.50382 22.7144 2.76968 22.5586C3.68644 22.0269 3.86062 21.2384 3.83312 20.2208C3.75978 17.2872 3.80561 14.3536 3.81478 11.42C3.81478 11.1266 3.73227 10.9616 3.46641 10.8149C2.44882 10.2374 1.93544 9.32981 1.77959 8.13803C1.33038 8.13803 0.872 8.13803 0.376953 8.13803C0.386121 7.54214 0.386121 7.01042 0.386121 6.40536C1.13786 6.40536 1.89877 6.40536 2.72384 6.40536C2.68717 4.20515 3.34724 2.26163 4.51151 0.318115C4.95156 1.36321 5.4466 2.28914 5.7308 3.27006C6.02416 4.25099 6.11583 5.29609 6.30835 6.37786C6.94091 6.37786 7.64681 6.37786 8.38022 6.37786C8.38022 6.97375 8.38022 7.51464 8.38022 8.11053C7.83933 8.11053 7.30761 8.11053 6.73006 8.11053C6.89508 11.6217 7.05092 15.0687 7.21594 18.6165Z" fill="white"/>
<path d="M11.1763 18.2865C11.0112 17.1405 10.1312 16.783 9.27857 16.4071C9.03105 16.2971 8.94854 16.1504 8.95771 15.8846C8.97604 15.3804 8.96688 14.8853 8.96688 14.3169C9.33358 14.5003 9.70028 14.6836 10.0761 14.867C10.1678 14.9128 10.2778 14.9495 10.3603 15.0136C11.0021 15.4904 11.6071 15.4629 12.1847 14.8028C11.6713 13.9135 11.1304 12.9785 10.5529 11.9884C11.0479 11.7042 11.5246 11.42 12.038 11.1174C12.6064 12.08 13.1564 13.0243 13.7157 13.9777C14.1465 13.8585 14.5499 13.7485 15.0083 13.6294C15.0083 12.1992 15.0083 10.7599 15.0083 9.28394C15.6042 9.28394 16.1451 9.28394 16.7318 9.28394C16.7318 10.7232 16.7318 12.1625 16.7318 13.611C17.1993 13.7394 17.621 13.8585 18.0702 13.9869C18.6203 13.0518 19.1704 12.1075 19.7479 11.1266C20.2521 11.42 20.7288 11.695 21.233 11.9884C20.6738 12.951 20.1329 13.886 19.5737 14.8486C19.8121 14.9953 20.0321 15.1145 20.2338 15.2703C20.4446 15.4262 20.6188 15.4262 20.848 15.2978C21.7281 14.8395 22.6173 14.4086 23.5433 13.9502C23.8 14.4636 24.0383 14.9403 24.3133 15.4812C23.9558 15.6645 23.6258 15.8387 23.2866 16.0037C23.0391 16.1321 22.8007 16.2604 22.5532 16.3704C21.6823 16.7738 20.7747 17.1314 20.5822 18.2681C17.4469 16.4713 14.3574 16.453 11.1763 18.2865Z" fill="white"/>
<path d="M19.4268 21.0734C19.3259 21.7793 19.3168 22.5127 19.0967 23.1728C18.565 24.7496 16.9424 25.6297 15.2647 25.3455C13.7154 25.0888 12.4961 23.6862 12.4503 22.0819C12.4319 21.3393 12.4319 20.5875 12.4594 19.8358C12.4594 19.6983 12.5878 19.4874 12.707 19.4233C14.8247 18.3598 16.9515 18.3507 19.0692 19.4141C19.2068 19.4783 19.3168 19.7075 19.3351 19.8633C19.3718 20.2575 19.3443 20.6517 19.3443 21.0551C19.3718 21.0643 19.3993 21.0734 19.4268 21.0734Z" fill="white"/>
<path d="M24.4964 29.6543C20.2335 29.6543 15.9706 29.6543 11.5977 29.6543C12.4044 29.095 13.1195 28.5908 13.8437 28.0866C13.9812 27.9949 14.1279 27.9033 14.2562 27.7932C14.8338 27.3165 15.448 27.0873 16.2456 27.0873C17.5566 27.0873 18.675 26.4823 19.6101 25.5564C19.7476 25.428 19.9676 25.3088 20.151 25.3088C22.4429 25.3547 24.3589 27.1974 24.5147 29.4892C24.5239 29.5442 24.5147 29.5901 24.4964 29.6543Z" fill="white"/>
</g>
<defs>
<clipPath id="clip0_6015_2653">
<rect width="24.1381" height="29.3636" fill="white" transform="translate(0.386719 0.318115)"/>
</clipPath>
</defs>
</svg>
