<svg width="135" height="136" viewBox="0 0 135 136" fill="none" xmlns="http://www.w3.org/2000/svg">
<g filter="url(#filter0_i_6002_1730)">
<path d="M33.717 67.9261L67.395 34.2481L101.073 67.9261L67.395 101.604L33.717 67.9261Z" fill="white" fill-opacity="0.02"/>
<path d="M33.717 67.9261L67.395 34.2481L101.073 67.9261L67.395 101.604L33.717 67.9261Z" fill="url(#paint0_linear_6002_1730)" fill-opacity="0.2"/>
<path d="M134.751 27.5125V67.9261L67.395 0.57019H107.808L134.751 27.5125Z" fill="white" fill-opacity="0.02"/>
<path d="M134.751 27.5125V67.9261L67.395 0.57019H107.808L134.751 27.5125Z" fill="url(#paint1_linear_6002_1730)" fill-opacity="0.2"/>
<path d="M134.751 108.34V67.9261L67.395 135.282H107.808L134.751 108.34Z" fill="white" fill-opacity="0.02"/>
<path d="M134.751 108.34V67.9261L67.395 135.282H107.808L134.751 108.34Z" fill="url(#paint2_linear_6002_1730)" fill-opacity="0.2"/>
<path d="M0.0390625 108.34V67.9261L67.395 135.282H26.9814L0.0390625 108.34Z" fill="white" fill-opacity="0.02"/>
<path d="M0.0390625 108.34V67.9261L67.395 135.282H26.9814L0.0390625 108.34Z" fill="url(#paint3_linear_6002_1730)" fill-opacity="0.2"/>
<path d="M0.0390625 27.5125V67.9261L67.395 0.57019H26.9814L0.0390625 27.5125Z" fill="white" fill-opacity="0.02"/>
<path d="M0.0390625 27.5125V67.9261L67.395 0.57019H26.9814L0.0390625 27.5125Z" fill="url(#paint4_linear_6002_1730)" fill-opacity="0.2"/>
</g>
<defs>
<filter id="filter0_i_6002_1730" x="0.0390625" y="0.57019" width="134.711" height="134.712" filterUnits="userSpaceOnUse" color-interpolation-filters="sRGB">
<feFlood flood-opacity="0" result="BackgroundImageFix"/>
<feBlend mode="normal" in="SourceGraphic" in2="BackgroundImageFix" result="shape"/>
<feColorMatrix in="SourceAlpha" type="matrix" values="0 0 0 0 0 0 0 0 0 0 0 0 0 0 0 0 0 0 127 0" result="hardAlpha"/>
<feOffset/>
<feGaussianBlur stdDeviation="4.84962"/>
<feComposite in2="hardAlpha" operator="arithmetic" k2="-1" k3="1"/>
<feColorMatrix type="matrix" values="0 0 0 0 1 0 0 0 0 1 0 0 0 0 1 0 0 0 0.2 0"/>
<feBlend mode="normal" in2="shape" result="effect1_innerShadow_6002_1730"/>
</filter>
<linearGradient id="paint0_linear_6002_1730" x1="67.3949" y1="-64.2085" x2="67.3949" y2="135.282" gradientUnits="userSpaceOnUse">
<stop stop-color="white"/>
<stop offset="0.773658" stop-color="white" stop-opacity="0"/>
</linearGradient>
<linearGradient id="paint1_linear_6002_1730" x1="67.3949" y1="-64.2085" x2="67.3949" y2="135.282" gradientUnits="userSpaceOnUse">
<stop stop-color="white"/>
<stop offset="0.773658" stop-color="white" stop-opacity="0"/>
</linearGradient>
<linearGradient id="paint2_linear_6002_1730" x1="67.3949" y1="-64.2085" x2="67.3949" y2="135.282" gradientUnits="userSpaceOnUse">
<stop stop-color="white"/>
<stop offset="0.773658" stop-color="white" stop-opacity="0"/>
</linearGradient>
<linearGradient id="paint3_linear_6002_1730" x1="67.3949" y1="-64.2085" x2="67.3949" y2="135.282" gradientUnits="userSpaceOnUse">
<stop stop-color="white"/>
<stop offset="0.773658" stop-color="white" stop-opacity="0"/>
</linearGradient>
<linearGradient id="paint4_linear_6002_1730" x1="67.3949" y1="-64.2085" x2="67.3949" y2="135.282" gradientUnits="userSpaceOnUse">
<stop stop-color="white"/>
<stop offset="0.773658" stop-color="white" stop-opacity="0"/>
</linearGradient>
</defs>
</svg>
