<svg width="36" height="37" viewBox="0 0 36 37" fill="none" xmlns="http://www.w3.org/2000/svg">
<path d="M19.1122 16.0599L17.2006 17.9715L16.7709 17.5417C16.1929 16.9638 15.2594 16.9638 14.6815 17.5417C14.1036 18.1196 14.1036 19.0532 14.6815 19.6311L16.1633 21.1129C16.4597 21.4093 16.8301 21.5427 17.2154 21.5427C17.6007 21.5427 17.9711 21.3945 18.2675 21.1129L21.2312 18.1493C21.8091 17.5714 21.8091 16.6378 21.2312 16.0599C20.6533 15.482 19.6901 15.482 19.1122 16.0599Z" fill="white"/>
<path d="M17.9413 3.77563C9.76164 3.77563 3.12305 10.4142 3.12305 18.5939C3.12305 26.7736 9.76164 33.4122 17.9413 33.4122C26.121 33.4122 32.7596 26.7736 32.7596 18.5939C32.7596 10.4142 26.121 3.77563 17.9413 3.77563ZM17.9413 30.4486C11.4065 30.4486 6.08671 25.1288 6.08671 18.5939C6.08671 12.0591 11.4065 6.73929 17.9413 6.73929C24.4762 6.73929 29.796 12.0591 29.796 18.5939C29.796 25.1288 24.4762 30.4486 17.9413 30.4486Z" fill="white"/>
<path d="M23.6183 11.5551C23.0108 12.1034 22.9515 13.037 23.4998 13.6445C23.8406 14.0298 24.137 14.4447 24.3889 14.8744C24.6556 15.3486 25.1594 15.6154 25.6781 15.6154C25.93 15.6154 26.1819 15.5561 26.419 15.4227C27.1303 15.0226 27.3673 14.1039 26.9673 13.3926C26.6116 12.7702 26.1967 12.1923 25.7225 11.6589C25.1594 11.0661 24.2259 11.0217 23.6183 11.5551Z" fill="white"/>
<path d="M25.3811 18.594C25.3811 22.6987 22.047 26.0328 17.9423 26.0328C13.8376 26.0328 10.5035 22.6987 10.5035 18.594C10.5035 14.4894 13.8376 11.1552 17.9423 11.1552C18.787 11.1552 19.6168 11.3034 20.417 11.5701C21.1875 11.8369 22.0322 11.4368 22.3137 10.6662C22.5804 9.89568 22.1803 9.05104 21.4098 8.76949C20.2984 8.38421 19.1426 8.17676 17.9571 8.17676C12.2225 8.17676 7.55469 12.8445 7.55469 18.5792C7.55469 24.3139 12.2225 28.9816 17.9571 28.9816C23.6918 28.9816 28.3596 24.3139 28.3596 18.5792C28.3596 17.7642 27.6928 17.0974 26.8777 17.0974C26.0627 17.0974 25.3811 17.779 25.3811 18.594Z" fill="white"/>
</svg>
