<svg width="36" height="37" viewBox="0 0 36 37" fill="none" xmlns="http://www.w3.org/2000/svg">
<path d="M30.0833 3.08691H27.3072C27.0474 3.08691 26.8367 3.29759 26.8367 3.55744C26.8367 3.81729 27.0474 4.02797 27.3072 4.02797H30.0833C31.3161 4.02797 32.3191 5.03084 32.3191 6.2637V12.4347H30.0336V9.20807H30.8403C31.1 9.20807 31.3108 8.99747 31.3108 8.73755C31.3108 8.47762 31.1 8.26702 30.8403 8.26702H29.563C29.3032 8.26702 29.0926 8.47762 29.0926 8.73755V12.9052C29.0926 13.1651 29.3032 13.3757 29.563 13.3757H32.3191V22.0603H23.4432V20.6593H26.9712V20.9985C26.9712 21.2583 27.1818 21.4689 27.4417 21.4689C27.7015 21.4689 27.9122 21.2583 27.9122 20.9985V20.1889C27.9122 19.9289 27.7015 19.7183 27.4417 19.7183H22.9726C22.7128 19.7183 22.502 19.9289 22.502 20.1889V22.0603H17.6247C17.3649 22.0603 17.1541 22.271 17.1541 22.5309V32.6637H15.2088C14.949 32.6637 14.7383 32.8743 14.7383 33.1342C14.7383 33.394 14.949 33.6047 15.2088 33.6047H17.6247H32.7896C33.0494 33.6047 33.2601 33.394 33.2601 33.1342V22.5311V6.26377C33.2602 4.51204 31.835 3.08691 30.0833 3.08691ZM32.3191 27.3621H31.1796C30.9199 27.3621 30.7091 27.5728 30.7091 27.8327C30.7091 28.0925 30.9199 28.3032 31.1796 28.3032H32.3191V32.6637H18.0953V28.3032H25.7294V29.8849H24.6849V29.2611C24.6849 29.0013 24.4742 28.7907 24.2144 28.7907C23.9545 28.7907 23.7439 29.0013 23.7439 29.2611V30.3554C23.7439 30.6153 23.9545 30.8259 24.2144 30.8259H26.2C26.4598 30.8259 26.6705 30.6153 26.6705 30.3554V28.3032H29.0832C29.343 28.3032 29.5537 28.0925 29.5537 27.8327C29.5537 27.5728 29.343 27.3621 29.0832 27.3621H18.0953V23.0016H32.3191V27.3621Z" fill="white"/>
<path d="M5.65803 20.4303C5.39824 20.4303 5.1875 20.6409 5.1875 20.9008V29.6726C5.1875 29.9324 5.39824 30.1432 5.65803 30.1432C5.91788 30.1432 6.12855 29.9324 6.12855 29.6726V23.2511H8.07047C8.33025 23.2511 8.54093 23.0404 8.54093 22.7805V15.8402C8.54093 15.5803 8.33025 15.3696 8.07047 15.3696H5.65803C5.39824 15.3696 5.1875 15.5803 5.1875 15.8402C5.1875 16.1001 5.39824 16.3107 5.65803 16.3107H7.59994V22.3099H6.12855V20.9008C6.12855 20.6409 5.91788 20.4303 5.65803 20.4303Z" fill="white"/>
<path d="M27.1737 17.8123C27.4334 17.8123 27.6442 17.6017 27.6442 17.3418V15.7285H30.0344C30.2942 15.7285 30.5049 15.5179 30.5049 15.258C30.5049 14.9981 30.2942 14.7875 30.0344 14.7875H27.6442V6.85554C27.6442 6.59561 27.4334 6.38501 27.1737 6.38501C26.9139 6.38501 26.7031 6.59561 26.7031 6.85554V17.3419C26.7031 17.6017 26.9139 17.8123 27.1737 17.8123Z" fill="white"/>
<path d="M24.0528 17.3417V10.2362H24.9947C25.1705 10.2362 25.3319 10.138 25.4127 9.98161C25.4934 9.82532 25.4803 9.63695 25.3784 9.49344L22.9208 6.02888C22.8326 5.90447 22.6896 5.83057 22.5371 5.83057C22.3845 5.83057 22.2415 5.90447 22.1534 6.02888L19.6957 9.49344C19.5454 9.70543 19.5953 9.99911 19.8071 10.1494C20.0193 10.2998 20.313 10.2499 20.4632 10.0379L22.537 7.11434L24.084 9.29513H23.5822C23.3225 9.29513 23.1117 9.50581 23.1117 9.76566V16.8779H12.7994C12.5396 16.8779 12.3288 17.0886 12.3288 17.3484V28.6483H11.1793V15.7284H21.4918C21.7516 15.7284 21.9623 15.5178 21.9623 15.2579V9.76566C21.9623 9.50574 21.7516 9.29513 21.4918 9.29513C21.232 9.29513 21.0213 9.50581 21.0213 9.76566V14.7873H10.7087C10.449 14.7873 10.2383 14.9979 10.2383 15.2579V29.1188C10.2383 29.3786 10.449 29.5893 10.7087 29.5893H12.7994C13.0592 29.5893 13.27 29.3786 13.27 29.1188V17.8189H23.5823C23.8422 17.819 24.0528 17.6016 24.0528 17.3417Z" fill="white"/>
<path d="M18.0952 12.0807V4.02797H18.917C19.1768 4.02797 19.3876 3.81729 19.3876 3.55744C19.3876 3.29759 19.1768 3.08691 18.917 3.08691H5.91898C4.16731 3.08691 2.74219 4.51204 2.74219 6.26377V30.4281C2.74219 32.1797 4.16738 33.6048 5.91898 33.6048H8.51C8.76978 33.6048 8.98053 33.3941 8.98053 33.1343C8.98053 32.8745 8.76978 32.6638 8.51 32.6638H5.91898C4.68619 32.6638 3.68324 31.6609 3.68324 30.4281V18.624H5.65864C5.91849 18.624 6.12916 18.4134 6.12916 18.1535C6.12916 17.8937 5.91849 17.6831 5.65864 17.6831H3.68324V12.5513H6.856C7.11578 12.5513 7.32653 12.3406 7.32653 12.0808C7.32653 11.8208 7.11578 11.6102 6.856 11.6102H3.68324V6.26384C3.68324 5.03098 4.68612 4.02811 5.91898 4.02811H6.38547V8.81486H5.65864C5.39885 8.81486 5.18811 9.02553 5.18811 9.28538C5.18811 9.54524 5.39885 9.75591 5.65864 9.75591H6.856C7.11578 9.75591 7.32653 9.54524 7.32653 9.28538V4.02797H9.1985V6.42138C9.1985 6.68123 9.40924 6.8919 9.66902 6.8919H14.4692V9.28524C14.4692 9.54517 14.6799 9.75577 14.9397 9.75577C15.1996 9.75577 15.4102 9.5451 15.4102 9.28524V6.42138C15.4102 6.16146 15.1996 5.95085 14.9397 5.95085H10.1396V4.02797H17.1539V11.6101H12.7749V8.73755C12.7749 8.47762 12.5642 8.26702 12.3044 8.26702C12.0446 8.26702 11.8338 8.47762 11.8338 8.73755V11.6101H9.66902C9.40924 11.6101 9.1985 11.8208 9.1985 12.0806C9.1985 12.3405 9.40924 12.5512 9.66902 12.5512H17.6245C17.8844 12.5512 18.0952 12.3405 18.0952 12.0807Z" fill="white"/>
</svg>
