<svg width="37" height="37" viewBox="0 0 37 37" fill="none" xmlns="http://www.w3.org/2000/svg">
<g clip-path="url(#clip0_6002_148)">
<g clip-path="url(#clip1_6002_148)">
<path d="M9.87891 30.3577C9.87891 24.752 16.5471 25.8737 16.5471 23.6317C16.6217 22.8356 16.4059 22.0393 15.9396 21.3897C15.4078 20.8855 14.9889 20.2743 14.7105 19.5964C14.4321 18.9185 14.3005 18.1894 14.3244 17.4569C14.252 16.2008 14.6784 14.9669 15.5109 14.0235C16.3433 13.08 17.5145 12.5033 18.7699 12.4187C20.0252 12.5033 21.1964 13.08 22.0289 14.0235C22.8613 14.9669 23.2877 16.2008 23.2154 17.4569C23.242 18.1915 23.1095 18.9232 22.8269 19.6018C22.5442 20.2803 22.1182 20.8897 21.578 21.3882C21.1304 22.0464 20.9237 22.8388 20.9926 23.6317C20.9926 25.8737 27.6609 24.7535 27.6609 30.3592C27.6609 30.3592 25.8901 31.684 18.7699 31.684C11.6497 31.684 9.87891 30.3577 9.87891 30.3577Z" stroke="white" stroke-width="1.61654" stroke-miterlimit="10"/>
<path d="M9.11819 24.2244C8.27503 24.1859 7.53115 24.1281 6.87766 24.0555C5.3438 24.025 3.8369 23.6465 2.4707 22.9485C2.4707 17.3428 9.13894 18.4645 9.13894 16.2225C9.21346 15.4264 8.99769 14.6301 8.53139 13.9805C7.99959 13.4763 7.58069 12.8651 7.30229 12.1872C7.02388 11.5094 6.89229 10.7802 6.91619 10.0477C6.84383 8.79163 7.27023 7.55773 8.10268 6.61429C8.93513 5.67084 10.1063 5.09413 11.3617 5.00952C12.617 5.09413 13.7882 5.67084 14.6207 6.61429C15.4531 7.55773 15.8795 8.79163 15.8072 10.0477" stroke="white" stroke-width="1.61654" stroke-miterlimit="10"/>
<path d="M28.4234 24.2244C29.2666 24.1859 30.0105 24.1281 30.664 24.0555C32.1978 24.025 33.7047 23.6465 35.0709 22.9485C35.0709 17.3428 28.4027 18.4645 28.4027 16.2225C28.3282 15.4264 28.5439 14.6301 29.0103 13.9805C29.542 13.4763 29.9609 12.8651 30.2394 12.1872C30.5178 11.5094 30.6493 10.7802 30.6254 10.0477C30.6978 8.79163 30.2714 7.55773 29.439 6.61429C28.6065 5.67084 27.4353 5.09413 26.18 5.00952C24.9246 5.09413 23.7534 5.67084 22.921 6.61429C22.0885 7.55773 21.6621 8.79163 21.7345 10.0477" stroke="white" stroke-width="1.61654" stroke-miterlimit="10"/>
</g>
</g>
<defs>
<clipPath id="clip0_6002_148">
<rect width="35.5639" height="35.5639" fill="white" transform="translate(0.71875 0.563965)"/>
</clipPath>
<clipPath id="clip1_6002_148">
<rect width="35.5639" height="35.5639" fill="white" transform="translate(0.988281 0.563965)"/>
</clipPath>
</defs>
</svg>
