<svg width="49" height="49" viewBox="0 0 49 49" fill="none" xmlns="http://www.w3.org/2000/svg">
<rect x="0.875" y="0.432617" width="47.25" height="47.25" rx="23.625" fill="url(#paint0_linear_6002_2129)"/>
<rect x="0.875" y="0.432617" width="47.25" height="47.25" rx="23.625" stroke="url(#paint1_linear_6002_2129)" stroke-width="0.75"/>
<g clip-path="url(#clip0_6002_2129)">
<path d="M21.1897 31.2723C27.8999 31.2723 31.5701 25.7128 31.5701 20.8919C31.5701 20.7341 31.5701 20.5768 31.5594 20.4203C32.2734 19.9039 32.8897 19.2645 33.3795 18.5319C32.7136 18.8269 32.0073 19.0205 31.284 19.1058C32.0456 18.6498 32.6157 17.9328 32.8879 17.088C32.1717 17.513 31.3883 17.8125 30.5713 17.9735C29.1896 16.5043 26.8786 16.4334 25.4094 17.8151C24.4618 18.7061 24.0599 20.0339 24.3539 21.3009C21.4209 21.1537 18.6878 19.7683 16.8353 17.4891C15.867 19.156 16.3615 21.2887 17.9648 22.3592C17.3842 22.342 16.8163 22.1853 16.3089 21.9026C16.3089 21.9176 16.3089 21.9332 16.3089 21.9488C16.3093 23.6855 17.5335 25.1812 19.2359 25.5251C18.6988 25.6716 18.1352 25.6931 17.5885 25.5878C18.0664 27.074 19.436 28.0921 20.9969 28.1213C19.7049 29.1367 18.1091 29.6877 16.466 29.6861C16.1758 29.6856 15.8859 29.668 15.5977 29.6334C17.266 30.7041 19.2074 31.2719 21.1897 31.2693" fill="white"/>
</g>
<defs>
<linearGradient id="paint0_linear_6002_2129" x1="24.5" y1="0.0576172" x2="24.5" y2="48.0576" gradientUnits="userSpaceOnUse">
<stop stop-color="#1A1A1A"/>
<stop offset="1" stop-color="#1A1A1A" stop-opacity="0"/>
</linearGradient>
<linearGradient id="paint1_linear_6002_2129" x1="24.5" y1="0.0576172" x2="24.5" y2="48.0576" gradientUnits="userSpaceOnUse">
<stop stop-color="#262626"/>
<stop offset="1" stop-color="#262626" stop-opacity="0"/>
</linearGradient>
<clipPath id="clip0_6002_2129">
<rect width="18" height="18" fill="white" transform="translate(15.5 15.0576)"/>
</clipPath>
</defs>
</svg>
