<svg width="16" height="16" viewBox="0 0 16 16" fill="none" xmlns="http://www.w3.org/2000/svg">
<path d="M0.5 8.9375C0.5 8.41973 0.919733 8 1.4375 8H3.3125C3.83027 8 4.25 8.41973 4.25 8.9375V14.5625C4.25 15.0803 3.83027 15.5 3.3125 15.5H1.4375C0.919733 15.5 0.5 15.0803 0.5 14.5625V8.9375Z" stroke="#808080" stroke-linecap="round" stroke-linejoin="round"/>
<path d="M6.125 5.1875C6.125 4.66973 6.54473 4.25 7.0625 4.25H8.9375C9.45527 4.25 9.875 4.66973 9.875 5.1875V14.5625C9.875 15.0803 9.45527 15.5 8.9375 15.5H7.0625C6.54473 15.5 6.125 15.0803 6.125 14.5625V5.1875Z" stroke="#808080" stroke-linecap="round" stroke-linejoin="round"/>
<path d="M11.75 1.4375C11.75 0.919733 12.1697 0.5 12.6875 0.5H14.5625C15.0803 0.5 15.5 0.919733 15.5 1.4375V14.5625C15.5 15.0803 15.0803 15.5 14.5625 15.5H12.6875C12.1697 15.5 11.75 15.0803 11.75 14.5625V1.4375Z" stroke="#808080" stroke-linecap="round" stroke-linejoin="round"/>
</svg>
