<svg width="136" height="136" viewBox="0 0 136 136" fill="none" xmlns="http://www.w3.org/2000/svg">
<g filter="url(#filter0_i_6194_6)">
<path d="M67.8266 67.8271H101.505L135.182 34.1491V0.471191H101.505L67.8266 34.1491V67.8271Z" fill="white"/>
<path d="M67.8266 67.8271H101.505L135.182 34.1491V0.471191H101.505L67.8266 34.1491V67.8271Z" fill="url(#paint0_linear_6194_6)"/>
<path d="M67.8266 135.183H101.505L135.182 101.505V67.8271H101.505L67.8266 101.505V135.183Z" fill="white"/>
<path d="M67.8266 135.183H101.505L135.182 101.505V67.8271H101.505L67.8266 101.505V135.183Z" fill="url(#paint1_linear_6194_6)"/>
<path d="M0.470703 135.183H34.1486L67.8266 101.505V67.8271H34.1486L0.470703 101.505V135.183Z" fill="white"/>
<path d="M0.470703 135.183H34.1486L67.8266 101.505V67.8271H34.1486L0.470703 101.505V135.183Z" fill="url(#paint2_linear_6194_6)"/>
<path d="M0.470703 67.8271H34.1486L67.8266 34.1491V0.471191H34.1486L0.470703 34.1491V67.8271Z" fill="white"/>
<path d="M0.470703 67.8271H34.1486L67.8266 34.1491V0.471191H34.1486L0.470703 34.1491V67.8271Z" fill="url(#paint3_linear_6194_6)"/>
</g>
<defs>
<filter id="filter0_i_6194_6" x="0.470703" y="0.471191" width="134.711" height="134.712" filterUnits="userSpaceOnUse" color-interpolation-filters="sRGB">
<feFlood flood-opacity="0" result="BackgroundImageFix"/>
<feBlend mode="normal" in="SourceGraphic" in2="BackgroundImageFix" result="shape"/>
<feColorMatrix in="SourceAlpha" type="matrix" values="0 0 0 0 0 0 0 0 0 0 0 0 0 0 0 0 0 0 127 0" result="hardAlpha"/>
<feOffset/>
<feGaussianBlur stdDeviation="4.84962"/>
<feComposite in2="hardAlpha" operator="arithmetic" k2="-1" k3="1"/>
<feColorMatrix type="matrix" values="0 0 0 0 1 0 0 0 0 1 0 0 0 0 1 0 0 0 0.2 0"/>
<feBlend mode="normal" in2="shape" result="effect1_innerShadow_6194_6"/>
</filter>
<linearGradient id="paint0_linear_6194_6" x1="67.8266" y1="-64.3075" x2="67.8266" y2="135.183" gradientUnits="userSpaceOnUse">
<stop stop-color="white"/>
<stop offset="0.773658" stop-color="white" stop-opacity="0"/>
</linearGradient>
<linearGradient id="paint1_linear_6194_6" x1="67.8266" y1="-64.3075" x2="67.8266" y2="135.183" gradientUnits="userSpaceOnUse">
<stop stop-color="white"/>
<stop offset="0.773658" stop-color="white" stop-opacity="0"/>
</linearGradient>
<linearGradient id="paint2_linear_6194_6" x1="67.8266" y1="-64.3075" x2="67.8266" y2="135.183" gradientUnits="userSpaceOnUse">
<stop stop-color="white"/>
<stop offset="0.773658" stop-color="white" stop-opacity="0"/>
</linearGradient>
<linearGradient id="paint3_linear_6194_6" x1="67.8266" y1="-64.3075" x2="67.8266" y2="135.183" gradientUnits="userSpaceOnUse">
<stop stop-color="white"/>
<stop offset="0.773658" stop-color="white" stop-opacity="0"/>
</linearGradient>
</defs>
</svg>
