<svg width="58" height="58" viewBox="0 0 58 58" fill="none" xmlns="http://www.w3.org/2000/svg">
<rect x="0.5" y="0.5" width="57" height="57" rx="28.5" fill="url(#paint0_linear_6015_3289)"/>
<rect x="0.5" y="0.5" width="57" height="57" rx="28.5" stroke="url(#paint1_linear_6015_3289)"/>
<path fill-rule="evenodd" clip-rule="evenodd" d="M25.75 20.875C26.1128 20.875 26.4316 21.1155 26.5312 21.4643L27.4122 24.5477C27.7978 25.8973 28.8527 26.9522 30.2023 27.3378L33.2857 28.2188C33.6345 28.3184 33.875 28.6372 33.875 29C33.875 29.3628 33.6345 29.6816 33.2857 29.7812L30.2023 30.6622C28.8527 31.0478 27.7978 32.1027 27.4122 33.4523L26.5312 36.5357C26.4316 36.8845 26.1128 37.125 25.75 37.125C25.3872 37.125 25.0684 36.8845 24.9688 36.5357L24.0878 33.4523C23.7022 32.1027 22.6473 31.0478 21.2977 30.6622L18.2143 29.7812C17.8655 29.6816 17.625 29.3628 17.625 29C17.625 28.6372 17.8655 28.3184 18.2143 28.2188L21.2977 27.3378C22.6473 26.9522 23.7022 25.8973 24.0878 24.5477L24.9688 21.4643C25.0684 21.1155 25.3872 20.875 25.75 20.875Z" fill="white"/>
<path fill-rule="evenodd" clip-rule="evenodd" d="M35.5 17.625C35.8728 17.625 36.1978 17.8787 36.2882 18.2404L36.5687 19.3622C36.8234 20.3811 37.6189 21.1766 38.6378 21.4313L39.7596 21.7118C40.1213 21.8022 40.375 22.1272 40.375 22.5C40.375 22.8728 40.1213 23.1978 39.7596 23.2882L38.6378 23.5687C37.6189 23.8234 36.8234 24.6189 36.5687 25.6378L36.2882 26.7596C36.1978 27.1213 35.8728 27.375 35.5 27.375C35.1272 27.375 34.8022 27.1213 34.7118 26.7596L34.4313 25.6378C34.1766 24.6189 33.3811 23.8234 32.3622 23.5687L31.2404 23.2882C30.8787 23.1978 30.625 22.8728 30.625 22.5C30.625 22.1272 30.8787 21.8022 31.2404 21.7118L32.3622 21.4313C33.3811 21.1766 34.1766 20.3811 34.4313 19.3622L34.7118 18.2404C34.8022 17.8787 35.1272 17.625 35.5 17.625Z" fill="white"/>
<path fill-rule="evenodd" clip-rule="evenodd" d="M33.875 32.25C34.2247 32.25 34.5352 32.4738 34.6458 32.8056L35.0729 34.0869C35.2346 34.5721 35.6154 34.9529 36.1006 35.1146L37.3819 35.5417C37.7137 35.6523 37.9375 35.9628 37.9375 36.3125C37.9375 36.6622 37.7137 36.9727 37.3819 37.0833L36.1006 37.5104C35.6154 37.6721 35.2346 38.0529 35.0729 38.5381L34.6458 39.8194C34.5352 40.1512 34.2247 40.375 33.875 40.375C33.5253 40.375 33.2148 40.1512 33.1042 39.8194L32.6771 38.5381C32.5154 38.0529 32.1346 37.6721 31.6494 37.5104L30.3681 37.0833C30.0363 36.9727 29.8125 36.6622 29.8125 36.3125C29.8125 35.9628 30.0363 35.6523 30.3681 35.5417L31.6494 35.1146C32.1346 34.9529 32.5154 34.5721 32.6771 34.0869L33.1042 32.8056C33.2148 32.4738 33.5253 32.25 33.875 32.25Z" fill="white"/>
<defs>
<linearGradient id="paint0_linear_6015_3289" x1="29" y1="0" x2="29" y2="58" gradientUnits="userSpaceOnUse">
<stop stop-color="#1A1A1A"/>
<stop offset="1" stop-color="#1A1A1A" stop-opacity="0"/>
</linearGradient>
<linearGradient id="paint1_linear_6015_3289" x1="29" y1="0" x2="29" y2="58" gradientUnits="userSpaceOnUse">
<stop stop-color="#262626"/>
<stop offset="1" stop-color="#262626" stop-opacity="0"/>
</linearGradient>
</defs>
</svg>
